<?xml version="1.0" standalone="no"?>
<!DOCTYPE svg PUBLIC "-//W3C//DTD SVG 1.1//EN" "http://www.w3.org/Graphics/SVG/1.1/DTD/svg11.dtd" >
<svg xmlns="http://www.w3.org/2000/svg">
    <defs>
        <font id="Gotham-LightItalic">
            <font-face font-family="Gotham-LightItalic"
                       units-per-em="1000"
                       ascent="0"
                       descent="0"
                       bbox="-121 -200 1206 898"
                    />
            <missing-glyph horiz-adv-x="0" />
            
            <glyph glyph-name="!" unicode="&#x21;" horiz-adv-x="274" d=" M92,183 L120,183 L255,630 L274,700 L216,700 L197,630 M24,0 L90,0 L113,85 L47,85"/> 
            <glyph glyph-name="&quot;" unicode="&#x22;" horiz-adv-x="437" d=" M281,446 L310,446 L437,695 L437,700 L374,700 M101,446 L130,446 L257,695 L257,700 L194,700"/> 
            <glyph glyph-name="#" unicode="&#x23;" horiz-adv-x="695" d=" M91,0 L139,0 L204,187 L411,187 L346,0 L394,0 L459,187 L596,187 L608,234 L475,234 L558,470 L683,470 L695,517 L574,517 L638,700 L590,700 L526,517 L319,517 L383,700 L335,700 L271,517 L134,517 L122,470 L255,470 L172,234 L47,234 L35,187 L156,187 M221,234 L303,470 L510,470 L427,234"/> 
            <glyph glyph-name="$" unicode="&#x24;" horiz-adv-x="628" d=" M190,-98 L239,-98 L265,0 L284,0 Q341,0 388,15 Q435,30 468.5,56.5 Q502,83 520.5,119 Q539,155 539,198 Q539,260 498,300.5 Q457,341 366,374 L439,646 Q487,636 525,615.5 Q563,595 592,566 L628,602 Q596,634 553.5,657 Q511,680 456,691 L474,758 L425,758 L409,698 Q398,699 387,699.5 Q376,700 365,700 Q315,700 273,686 Q231,672 199.5,647 Q168,622 150.5,587.5 Q133,553 133,513 Q133,482 143,458 Q153,434 174.5,413.5 Q196,393 230,375 Q264,357 312,339 L235,51 Q171,60 121.5,86.5 Q72,113 37,155 L-1,122 Q37,78 93,47 Q149,16 218,5 M325,389 Q251,417 218.5,445 Q186,473 186,518 Q186,550 202.5,577 Q219,604 247.5,622.5 Q276,641 314,649 Q352,657 396,651 M278,47 L353,325 Q428,296 457,265 Q486,234 486,193 Q486,159 470.5,131.5 Q455,104 427,84.5 Q399,65 361,55 Q323,45 278,47"/> 
            <glyph glyph-name="%" unicode="&#x25;" horiz-adv-x="807" d=" M230,346 Q270,346 305,364.5 Q340,383 365.5,413.5 Q391,444 406,483.5 Q421,523 421,565 Q421,595 411,621 Q401,647 383,666.5 Q365,686 339.5,697 Q314,708 284,708 Q244,708 209,689.5 Q174,671 148.5,640.5 Q123,610 108,570.5 Q93,531 93,489 Q93,459 103,433 Q113,407 131,387.5 Q149,368 174.5,357 Q200,346 230,346 M65,0 L125,0 L807,700 L747,700 M588,-7 Q628,-7 663,11.5 Q698,30 723.5,60.5 Q749,91 764,130.5 Q779,170 779,212 Q779,242 769,268 Q759,294 741,313.5 Q723,333 697.5,344 Q672,355 642,355 Q602,355 567,336.5 Q532,318 506.5,287.5 Q481,257 466,217.5 Q451,178 451,136 Q451,106 461,80 Q471,54 489,34.5 Q507,15 532.5,4 Q558,-7 588,-7 M234,389 Q189,389 165.5,417.5 Q142,446 142,494 Q142,525 152.5,555.5 Q163,586 182,610.5 Q201,635 226,650 Q251,665 280,665 Q325,665 348.5,636.5 Q372,608 372,560 Q372,529 361.5,498.5 Q351,468 332,443.5 Q313,419 288,404 Q263,389 234,389 M592,36 Q547,36 523.5,64.5 Q500,93 500,141 Q500,172 510.5,202.5 Q521,233 540,257.5 Q559,282 584,297 Q609,312 638,312 Q683,312 706.5,283.5 Q730,255 730,207 Q730,176 719.5,145.5 Q709,115 690,90.5 Q671,66 646,51 Q621,36 592,36"/> 
            <glyph glyph-name="&amp;" unicode="&#x26;" horiz-adv-x="648" d=" M572,-14 L611,12 L521,140 Q553,176 584.5,220 Q616,264 648,318 L609,341 Q581,292 552,250 Q523,208 493,174 L351,375 Q416,393 459.5,414.5 Q503,436 529,460.5 Q555,485 566,512 Q577,539 577,567 Q577,633 532.5,672.5 Q488,712 413,712 Q376,712 342.5,698.5 Q309,685 284,661.5 Q259,638 244,606 Q229,574 229,536 Q229,502 242,469.5 Q255,437 276,403 Q154,372 92.5,311 Q31,250 31,165 Q31,123 46.5,90.5 Q62,58 89,35.5 Q116,13 152.5,1.5 Q189,-10 231,-10 Q271,-10 305,-2.5 Q339,5 369.5,19.5 Q400,34 429,56 Q458,78 487,107 M326,411 Q302,448 291,476.5 Q280,505 280,537 Q280,564 290.5,588 Q301,612 319,630 Q337,648 361,658 Q385,668 411,668 Q464,668 495,639.5 Q526,611 526,565 Q526,544 516.5,523 Q507,502 484,482 Q461,462 422.5,444 Q384,426 326,411 M237,36 Q167,36 125.5,72 Q84,108 84,171 Q84,233 136,286 Q188,339 301,366 L460,141 Q407,89 353.5,62.5 Q300,36 237,36"/> 
            <glyph glyph-name="'" unicode="&#x27;" horiz-adv-x="257" d=" M101,446 L130,446 L257,695 L257,700 L194,700"/> 
            <glyph glyph-name="(" unicode="&#x28;" horiz-adv-x="512" d=" M273,-140 L301,-111 Q270,-79 243,-44.5 Q216,-10 195.5,29.5 Q175,69 163,116 Q151,163 151,219 Q151,283 170.5,347.5 Q190,412 233,472.5 Q276,533 345,586.5 Q414,640 512,682 L495,719 Q393,677 318,621 Q243,565 194.5,500 Q146,435 122.5,363 Q99,291 99,218 Q99,158 113,106 Q127,54 151,9.5 Q175,-35 206.5,-72 Q238,-109 273,-140"/> 
            <glyph glyph-name=")" unicode="&#x29;" horiz-adv-x="349" d=" M-47,-139 Q55,-97 130,-41 Q205,15 253.5,80 Q302,145 325.5,217 Q349,289 349,362 Q349,422 334.5,474 Q320,526 296,570.5 Q272,615 240.5,652 Q209,689 175,720 L147,691 Q178,659 205,624.5 Q232,590 252.5,550.5 Q273,511 285,464 Q297,417 297,361 Q297,297 277.5,232.5 Q258,168 215,107.5 Q172,47 103,-6.5 Q34,-60 -64,-102"/> 
            <glyph glyph-name="*" unicode="&#x2A;" horiz-adv-x="438" d=" M270,406 L294,531 L378,434 L409,464 L309,548 L438,572 L426,613 L305,571 L347,692 L306,702 L282,577 L198,674 L167,644 L267,560 L138,536 L150,495 L271,537 L229,416"/> 
            <glyph glyph-name="+" unicode="&#x2B;" horiz-adv-x="594" d=" M256,113 L306,113 L364,328 L581,328 L594,376 L377,376 L434,591 L384,591 L327,376 L110,376 L97,328 L314,328"/> 
            <glyph glyph-name="," unicode="&#x2C;" horiz-adv-x="103" d=" M-32,-106 Q-7,-99 11.5,-89.5 Q30,-80 43.5,-66.5 Q57,-53 66.5,-34 Q76,-15 83,11 L103,85 L37,85 L14,0 L41,0 Q36,-29 17,-49 Q-2,-69 -39,-82"/> 
            <glyph glyph-name="-" unicode="&#x2D;" horiz-adv-x="357" d=" M74,269 L342,269 L357,325 L89,325"/> 
            <glyph glyph-name="." unicode="&#x2E;" horiz-adv-x="103" d=" M14,0 L80,0 L103,85 L37,85"/> 
            <glyph glyph-name="/" unicode="&#x2F;" horiz-adv-x="649" d=" M-121,-128 L-67,-128 L649,798 L595,798"/> 
            <glyph glyph-name="0" unicode="&#x30;" horiz-adv-x="677" d=" M317,-12 Q395,-12 461,28 Q527,68 575,133.5 Q623,199 650,281.5 Q677,364 677,450 Q677,506 662,554 Q647,602 617.5,637 Q588,672 544,692 Q500,712 442,712 Q390,712 343.5,693.5 Q297,675 257,643 Q217,611 184.5,566.5 Q152,522 129.5,471 Q107,420 94.5,363.5 Q82,307 82,250 Q82,194 97,146 Q112,98 141.5,63 Q171,28 215,8 Q259,-12 317,-12 M320,35 Q274,35 239.5,52 Q205,69 182,98 Q159,127 147.5,166 Q136,205 136,250 Q136,327 160.5,401.5 Q185,476 226,534.5 Q267,593 322,629 Q377,665 439,665 Q485,665 519.5,648 Q554,631 577,602 Q600,573 611.5,534 Q623,495 623,450 Q623,373 598.5,298.5 Q574,224 533,165.5 Q492,107 436.5,71 Q381,35 320,35"/> 
            <glyph glyph-name="1" unicode="&#x31;" horiz-adv-x="334" d=" M93,0 L145,0 L334,705 L293,705 L117,646 L119,599 L266,645"/> 
            <glyph glyph-name="2" unicode="&#x32;" horiz-adv-x="585" d=" M-19,0 L469,0 L482,50 L78,50 L440,330 Q507,382 546,431.5 Q585,481 585,543 Q585,580 570,611 Q555,642 528.5,664 Q502,686 465,698 Q428,710 383,710 Q345,710 311.5,701 Q278,692 248.5,676 Q219,660 193,639.5 Q167,619 144,595 L181,563 Q219,603 268.5,633 Q318,663 381,663 Q453,663 492,628.5 Q531,594 531,542 Q531,493 500,452.5 Q469,412 408,364 L-10,39"/> 
            <glyph glyph-name="3" unicode="&#x33;" horiz-adv-x="633" d=" M250,-12 Q305,-12 354.5,5 Q404,22 441.5,52 Q479,82 501,123.5 Q523,165 523,215 Q523,256 506.5,287 Q490,318 461.5,339.5 Q433,361 395.5,372.5 Q358,384 316,386 L623,663 L633,700 L183,700 L169,651 L544,651 L232,370 L243,344 L272,344 Q361,344 414.5,311.5 Q468,279 468,211 Q468,172 451.5,140 Q435,108 406.5,84.5 Q378,61 338.5,48 Q299,35 253,35 Q178,35 129.5,65 Q81,95 53,149 L10,125 Q39,62 99.5,25 Q160,-12 250,-12"/> 
            <glyph glyph-name="4" unicode="&#x34;" horiz-adv-x="609" d=" M369,0 L420,0 L466,171 L580,171 L592,216 L478,216 L609,705 L561,705 L28,210 L36,171 L415,171 M99,216 L536,622 L427,216"/> 
            <glyph glyph-name="5" unicode="&#x35;" horiz-adv-x="608" d=" M252,-12 Q316,-12 368,7.5 Q420,27 457,60.5 Q494,94 514.5,138 Q535,182 535,231 Q535,276 519.5,312 Q504,348 475,373.5 Q446,399 405,412.5 Q364,426 313,426 Q298,426 278.5,423 Q259,420 240,415.5 Q221,411 204,405 Q187,399 176,393 L262,650 L594,650 L608,700 L230,700 L119,361 L152,335 Q194,358 235.5,368.5 Q277,379 313,379 Q349,379 379.5,369 Q410,359 432.5,340 Q455,321 468,293 Q481,265 481,229 Q481,191 465,155.5 Q449,120 419.5,93 Q390,66 348,49.5 Q306,33 255,33 Q186,33 139,62 Q92,91 59,140 L16,113 Q33,87 55,64.5 Q77,42 106,25 Q135,8 171,-2 Q207,-12 252,-12"/> 
            <glyph glyph-name="6" unicode="&#x36;" horiz-adv-x="651" d=" M317,-12 Q375,-12 423.5,7.5 Q472,27 507.5,60.5 Q543,94 563,138 Q583,182 583,231 Q583,271 568,308 Q553,345 524.5,373 Q496,401 454,418 Q412,435 359,435 Q321,435 288,425.5 Q255,416 227.5,399.5 Q200,383 178.5,362 Q157,341 141,317 Q144,354 154.5,391.5 Q165,429 181,463.5 Q197,498 218,528.5 Q239,559 263,583 Q345,665 444,665 Q501,665 541.5,643 Q582,621 613,586 L651,619 Q616,661 566.5,686.5 Q517,712 447,712 Q323,712 223,612 Q193,582 167.5,542.5 Q142,503 123,456.5 Q104,410 93.5,356.5 Q83,303 83,245 Q83,177 101,130.5 Q119,84 151,52 Q180,23 223,5.5 Q266,-12 317,-12 M320,34 Q282,34 248,45.5 Q214,57 188,83 Q166,105 154,134 Q142,163 142,201 Q142,236 157.5,269.5 Q173,303 201,329 Q229,355 268.5,371 Q308,387 356,387 Q401,387 433.5,373 Q466,359 487,336.5 Q508,314 518.5,286.5 Q529,259 529,231 Q529,192 513.5,156 Q498,120 470,93 Q442,66 404,50 Q366,34 320,34"/> 
            <glyph glyph-name="7" unicode="&#x37;" horiz-adv-x="626" d=" M80,0 L140,0 L615,662 L626,700 L162,700 L148,650 L551,650"/> 
            <glyph glyph-name="8" unicode="&#x38;" horiz-adv-x="628" d=" M295,-10 Q353,-10 403.5,5 Q454,20 491,46.5 Q528,73 549,110 Q570,147 570,191 Q570,221 559.5,246.5 Q549,272 531.5,292 Q514,312 492,326.5 Q470,341 447,349 Q484,356 516.5,371.5 Q549,387 574,410 Q599,433 613.5,463.5 Q628,494 628,531 Q628,570 610.5,603 Q593,636 562.5,660 Q532,684 489.5,697 Q447,710 396,710 Q344,710 298.5,695.5 Q253,681 219.5,655.5 Q186,630 166.5,595.5 Q147,561 147,520 Q147,463 178.5,425 Q210,387 254,371 Q209,364 170,348 Q131,332 102,307.5 Q73,283 56.5,249 Q40,215 40,173 Q40,135 58,102 Q76,69 109.5,44 Q143,19 190,4.5 Q237,-10 295,-10 M375,380 Q336,380 304,390.5 Q272,401 249,419 Q226,437 213.5,462 Q201,487 201,516 Q201,547 215,574 Q229,601 254.5,620.5 Q280,640 316,651.5 Q352,663 396,663 Q435,663 468,653 Q501,643 524.5,625 Q548,607 561,582.5 Q574,558 574,528 Q574,501 561.5,474.5 Q549,448 524,427 Q499,406 461.5,393 Q424,380 375,380 M298,37 Q251,37 213.5,47.5 Q176,58 149.5,77 Q123,96 108.5,122 Q94,148 94,179 Q94,210 109,239 Q124,268 152.5,289.5 Q181,311 222,324 Q263,337 314,337 Q361,337 398.5,325 Q436,313 462,293.5 Q488,274 502,247.5 Q516,221 516,193 Q516,159 500.5,130.5 Q485,102 456.5,81 Q428,60 387.5,48.5 Q347,37 298,37"/> 
            <glyph glyph-name="9" unicode="&#x39;" horiz-adv-x="606" d=" M243,-13 Q306,-13 361,12 Q416,37 466,87 Q496,117 521.5,156.5 Q547,196 566,242.5 Q585,289 595.5,342.5 Q606,396 606,454 Q606,522 588,568.5 Q570,615 538,647 Q509,676 466.5,693.5 Q424,711 373,711 Q315,711 266,691 Q217,671 181.5,637 Q146,603 125.5,558 Q105,513 105,464 Q105,423 119.5,385.5 Q134,348 162.5,319 Q191,290 233,273 Q275,256 328,256 Q370,256 404,267 Q438,278 465,295.5 Q492,313 512.5,335 Q533,357 548,379 Q542,304 508,234 Q474,164 426,116 Q344,34 246,34 Q189,34 147.5,57 Q106,80 71,119 L33,86 Q70,41 123,14 Q176,-13 243,-13 M335,304 Q288,304 255,318 Q222,332 200.5,355 Q179,378 169,406.5 Q159,435 159,464 Q159,504 175,540.5 Q191,577 218.5,604.5 Q246,632 284.5,648.5 Q323,665 369,665 Q407,665 441,653 Q475,641 501,615 Q547,569 547,500 Q547,463 531.5,427.5 Q516,392 487.5,364.5 Q459,337 420,320.5 Q381,304 335,304"/> 
            <glyph glyph-name=":" unicode="&#x3A;" horiz-adv-x="222" d=" M133,425 L199,425 L222,510 L156,510 M19,0 L85,0 L108,85 L42,85"/> 
            <glyph glyph-name=";" unicode="&#x3B;" horiz-adv-x="222" d=" M133,425 L199,425 L222,510 L156,510 M-27,-106 Q-2,-99 16.5,-89.5 Q35,-80 48.5,-66.5 Q62,-53 71.5,-34 Q81,-15 88,11 L108,85 L42,85 L19,0 L46,0 Q41,-29 22,-49 Q3,-69 -34,-82"/> 
            <glyph glyph-name="&lt;" unicode="&#x3C;" horiz-adv-x="618" d=" M478,91 L492,140 L145,348 L603,554 L618,613 L89,372 L78,332"/> 
            <glyph glyph-name="=" unicode="&#x3D;" horiz-adv-x="609" d=" M142,439 L596,439 L609,490 L155,490 M81,214 L535,214 L549,265 L95,265"/> 
            <glyph glyph-name="&gt;" unicode="&#x3E;" horiz-adv-x="591" d=" M51,91 L580,332 L591,372 L191,613 L177,564 L524,356 L66,150"/> 
            <glyph glyph-name="?" unicode="&#x3F;" horiz-adv-x="534" d=" M194,183 L226,183 L269,308 Q322,315 370,333 Q418,351 454.5,379 Q491,407 512.5,445.5 Q534,484 534,534 Q534,572 520,604 Q506,636 480,659.5 Q454,683 416.5,696 Q379,709 333,709 Q295,709 261.5,701 Q228,693 199,679 Q170,665 145.5,646.5 Q121,628 101,608 L133,574 Q167,608 217.5,635 Q268,662 329,662 Q360,662 388,653.5 Q416,645 436.5,629 Q457,613 469,588.5 Q481,564 481,533 Q481,493 462.5,461 Q444,429 411,405.5 Q378,382 332,368 Q286,354 231,350 L224,345 M128,0 L194,0 L217,85 L151,85"/> 
            <glyph glyph-name="@" unicode="&#x40;" horiz-adv-x="948" d=" M486,-161 Q547,-161 600,-149.5 Q653,-138 707,-113 L693,-84 Q642,-107 592.5,-118 Q543,-129 486,-129 Q399,-129 327.5,-103 Q256,-77 206,-30 Q156,17 128.5,83.5 Q101,150 101,231 Q101,321 137,402.5 Q173,484 235,545.5 Q297,607 380,643.5 Q463,680 557,680 Q641,680 707,655 Q773,630 819,586.5 Q865,543 889,484.5 Q913,426 913,359 Q913,295 896.5,248 Q880,201 855,170.5 Q830,140 801,125 Q772,110 747,110 Q721,110 704,120 Q687,130 678.5,147.5 Q670,165 669.5,188 Q669,211 677,237 L752,479 L705,492 L675,394 Q667,415 654,434.5 Q641,454 622,469 Q603,484 578,493 Q553,502 521,502 Q476,502 432,481 Q388,460 354,424 Q320,388 299,340 Q278,292 278,237 Q278,198 290.5,167.5 Q303,137 324,115.5 Q345,94 373.5,82.5 Q402,71 435,71 Q541,71 621,173 Q628,127 658,100 Q688,73 742,73 Q775,73 811.5,91 Q848,109 878.5,145 Q909,181 928.5,234.5 Q948,288 948,359 Q948,433 922,497.5 Q896,562 845.5,609.5 Q795,657 722.5,684.5 Q650,712 557,712 Q456,712 366.5,673 Q277,634 210,568 Q143,502 104.5,415 Q66,328 66,231 Q66,142 96,70 Q126,-2 180.5,-53.5 Q235,-105 312.5,-133 Q390,-161 486,-161 M445,118 Q397,118 365.5,149.5 Q334,181 334,239 Q334,283 349,322 Q364,361 389.5,390.5 Q415,420 449.5,437.5 Q484,455 523,455 Q583,455 617,418.5 Q651,382 651,325 Q651,286 633,248.5 Q615,211 586,182 Q557,153 520,135.5 Q483,118 445,118"/> 
            <glyph glyph-name="A" unicode="&#x41;" horiz-adv-x="668" d=" M-34,0 L24,0 L166,196 L579,196 L615,0 L668,0 L531,705 L481,705 M200,243 L494,648 L569,243"/> 
            <glyph glyph-name="B" unicode="&#x42;" horiz-adv-x="693" d=" M36,0 L351,0 Q418,0 472,15.5 Q526,31 564,58 Q602,85 622,123 Q642,161 642,206 Q642,237 631.5,261 Q621,285 602.5,303 Q584,321 559.5,333 Q535,345 508,352 Q546,359 580,375 Q614,391 639,415 Q664,439 678.5,470.5 Q693,502 693,541 Q693,578 678,608 Q663,638 635.5,658 Q608,678 569.5,689 Q531,700 483,700 L224,700 M189,377 L263,652 L478,652 Q553,652 596,623 Q639,594 639,536 Q639,501 622.5,471.5 Q606,442 575.5,421 Q545,400 501.5,388.5 Q458,377 405,377 M101,48 L176,329 L404,329 Q444,329 477.5,321.5 Q511,314 536,298.5 Q561,283 575,260 Q589,237 589,206 Q589,169 572.5,139.5 Q556,110 525.5,90 Q495,70 451.5,59 Q408,48 354,48"/> 
            <glyph glyph-name="C" unicode="&#x43;" horiz-adv-x="767" d=" M378,-13 Q426,-13 466.5,-3.5 Q507,6 541,22.5 Q575,39 603,61 Q631,83 655,108 L620,140 Q572,92 516.5,63.5 Q461,35 383,35 Q332,35 288.5,51.5 Q245,68 213.5,99 Q182,130 164,174 Q146,218 146,273 Q146,347 174,417.5 Q202,488 250.5,543 Q299,598 365,631.5 Q431,665 507,665 Q548,665 580.5,656 Q613,647 639,630.5 Q665,614 685,590 Q705,566 722,537 L767,561 Q751,593 727,620.5 Q703,648 670.5,668.5 Q638,689 598,700.5 Q558,712 510,712 Q423,712 347,675 Q271,638 214.5,576.5 Q158,515 125,435.5 Q92,356 92,271 Q92,205 115,152 Q138,99 177,62.5 Q216,26 268,6.5 Q320,-13 378,-13"/> 
            <glyph glyph-name="D" unicode="&#x44;" horiz-adv-x="730" d=" M36,0 L265,0 Q374,0 466,36 Q558,72 621,135 Q674,188 702,256.5 Q730,325 730,406 Q730,471 710,520 Q690,569 653,606 Q605,654 534,677 Q463,700 381,700 L224,700 M101,48 L263,652 L378,652 Q453,652 512.5,632 Q572,612 611,573 Q676,510 676,402 Q676,332 651.5,272.5 Q627,213 582,168 Q524,110 445.5,79 Q367,48 272,48"/> 
            <glyph glyph-name="E" unicode="&#x45;" horiz-adv-x="717" d=" M36,0 L534,0 L547,48 L101,48 L176,329 L572,329 L585,377 L189,377 L263,652 L704,652 L717,700 L224,700"/> 
            <glyph glyph-name="F" unicode="&#x46;" horiz-adv-x="717" d=" M36,0 L88,0 L173,317 L569,317 L582,365 L186,365 L263,652 L704,652 L717,700 L224,700"/> 
            <glyph glyph-name="G" unicode="&#x47;" horiz-adv-x="777" d=" M396,-13 Q468,-13 527,6 Q586,25 643,62 L729,363 L445,363 L432,315 L665,315 L601,91 Q563,66 512.5,50 Q462,34 399,34 Q343,34 297,51 Q251,68 218,100.5 Q185,133 166.5,179 Q148,225 148,284 Q148,355 176,423.5 Q204,492 253,545.5 Q302,599 369.5,632 Q437,665 516,665 Q562,665 596.5,656.5 Q631,648 657,633 Q683,618 702,598 Q721,578 736,555 L777,582 Q761,607 739.5,630.5 Q718,654 687,672 Q656,690 615.5,701 Q575,712 521,712 Q429,712 351,675 Q273,638 216,578 Q159,518 126.5,440.5 Q94,363 94,282 Q94,214 116.5,159.5 Q139,105 179.5,67 Q220,29 275.5,8 Q331,-13 396,-13"/> 
            <glyph glyph-name="H" unicode="&#x48;" horiz-adv-x="771" d=" M36,0 L88,0 L176,328 L619,328 L531,0 L583,0 L771,700 L719,700 L632,376 L189,376 L276,700 L224,700"/> 
            <glyph glyph-name="I" unicode="&#x49;" horiz-adv-x="283" d=" M43,0 L95,0 L283,700 L231,700"/> 
            <glyph glyph-name="J" unicode="&#x4A;" horiz-adv-x="574" d=" M196,-10 Q239,-10 281.5,7 Q324,24 356,56 Q389,89 411,132 Q433,175 449,235 L574,700 L522,700 L399,242 Q385,192 366.5,154 Q348,116 321,89 Q269,37 194,37 Q133,37 97,70 Q61,103 41,167 L-5,151 Q4,118 20,88.5 Q36,59 60.5,37 Q85,15 118.5,2.5 Q152,-10 196,-10"/> 
            <glyph glyph-name="K" unicode="&#x4B;" horiz-adv-x="791" d=" M36,0 L88,0 L135,175 L359,357 L554,0 L614,0 L402,387 L791,700 L714,700 L154,245 L276,700 L224,700"/> 
            <glyph glyph-name="L" unicode="&#x4C;" horiz-adv-x="512" d=" M36,0 L499,0 L512,48 L101,48 L276,700 L224,700"/> 
            <glyph glyph-name="M" unicode="&#x4D;" horiz-adv-x="884" d=" M36,0 L86,0 L249,608 L418,205 L422,205 L807,608 L644,0 L696,0 L884,700 L829,700 L437,286 L267,700 L224,700"/> 
            <glyph glyph-name="N" unicode="&#x4E;" horiz-adv-x="802" d=" M36,0 L86,0 L254,626 L576,0 L614,0 L802,700 L752,700 L587,87 L272,700 L224,700"/> 
            <glyph glyph-name="O" unicode="&#x4F;" horiz-adv-x="801" d=" M398,-13 Q482,-13 555,22.5 Q628,58 683,117 Q738,176 769.5,252.5 Q801,329 801,411 Q801,474 778.5,529 Q756,584 716,624.5 Q676,665 620.5,688.5 Q565,712 499,712 Q415,712 342,676.5 Q269,641 214,582 Q159,523 127.5,446.5 Q96,370 96,288 Q96,225 118.5,170 Q141,115 181,74.5 Q221,34 276.5,10.5 Q332,-13 398,-13 M398,34 Q342,34 296.5,53.5 Q251,73 218.5,107.5 Q186,142 168,188 Q150,234 150,288 Q150,360 177,428 Q204,496 251,548.5 Q298,601 361.5,633 Q425,665 499,665 Q555,665 600.5,645.5 Q646,626 678.5,591.5 Q711,557 729,511 Q747,465 747,411 Q747,339 720,271 Q693,203 646,150.5 Q599,98 535.5,66 Q472,34 398,34"/> 
            <glyph glyph-name="P" unicode="&#x50;" horiz-adv-x="683" d=" M36,0 L88,0 L159,262 L337,262 Q416,262 480,278.5 Q544,295 589,327 Q634,359 658.5,405.5 Q683,452 683,512 Q683,589 635,637 Q603,669 554,684.5 Q505,700 442,700 L224,700 M171,309 L263,652 L441,652 Q546,652 595,603 Q631,567 631,510 Q631,413 556,361 Q481,309 339,309"/> 
            <glyph glyph-name="Q" unicode="&#x51;" horiz-adv-x="801" d=" M692,-24 L730,8 L655,90 Q722,150 761.5,234.5 Q801,319 801,411 Q801,474 778.5,529 Q756,584 716,624.5 Q676,665 620.5,688.5 Q565,712 499,712 Q415,712 342,676.5 Q269,641 214,582 Q159,523 127.5,446.5 Q96,370 96,288 Q96,225 118.5,170 Q141,115 181,74.5 Q221,34 276.5,10.5 Q332,-13 398,-13 Q460,-13 516,6.5 Q572,26 620,61 M398,34 Q342,34 296.5,53.5 Q251,73 218.5,107.5 Q186,142 168,188 Q150,234 150,288 Q150,360 177,428 Q204,496 251,548.5 Q298,601 361.5,633 Q425,665 499,665 Q555,665 600.5,645.5 Q646,626 678.5,591.5 Q711,557 729,511 Q747,465 747,411 Q747,330 714,255 Q681,180 623,126 L509,260 L471,227 L588,97 Q547,68 499.5,51 Q452,34 398,34"/> 
            <glyph glyph-name="R" unicode="&#x52;" horiz-adv-x="707" d=" M36,0 L88,0 L166,290 L383,290 L533,0 L593,0 L439,295 Q503,302 556.5,322.5 Q610,343 645,378 Q674,407 690.5,443.5 Q707,480 707,524 Q707,608 645.5,654 Q584,700 475,700 L224,700 M178,337 L263,652 L473,652 Q565,652 610,616.5 Q655,581 655,521 Q655,455 608,408 Q576,376 521,356.5 Q466,337 388,337"/> 
            <glyph glyph-name="S" unicode="&#x53;" horiz-adv-x="647" d=" M299,-10 Q355,-10 403,6 Q451,22 485.5,49.5 Q520,77 539.5,114 Q559,151 559,194 Q559,226 548,252 Q537,278 514.5,300 Q492,322 457,341 Q422,360 373,378 Q330,394 298.5,409.5 Q267,425 246.5,441.5 Q226,458 216,477.5 Q206,497 206,521 Q206,549 219.5,574.5 Q233,600 257.5,619.5 Q282,639 318,651 Q354,663 399,663 Q465,663 517,639.5 Q569,616 607,571 L647,603 Q609,650 546,680 Q483,710 404,710 Q347,710 301,694.5 Q255,679 222,653 Q189,627 171,592 Q153,557 153,517 Q153,485 164,459.5 Q175,434 199,412.5 Q223,391 261,371.5 Q299,352 353,331 Q395,314 424.5,298.5 Q454,283 472,266.5 Q490,250 498,231.5 Q506,213 506,190 Q506,157 490.5,129 Q475,101 448,80.5 Q421,60 384,48.5 Q347,37 304,37 Q220,37 162.5,66 Q105,95 60,153 L20,124 Q64,62 133.5,26 Q203,-10 299,-10"/> 
            <glyph glyph-name="T" unicode="&#x54;" horiz-adv-x="693" d=" M209,0 L261,0 L436,652 L680,652 L693,700 L153,700 L140,652 L384,652"/> 
            <glyph glyph-name="U" unicode="&#x55;" horiz-adv-x="782" d=" M348,-11 Q409,-11 462.5,11.5 Q516,34 559,77 Q596,114 624,165 Q652,216 670,283 L782,700 L730,700 L621,294 Q604,230 578,183.5 Q552,137 523,108 Q487,72 443,54 Q399,36 352,36 Q299,36 260.5,49.5 Q222,63 197,87 Q172,111 159.5,143 Q147,175 147,213 Q147,236 149.5,257 Q152,278 156,293 L264,700 L212,700 L110,317 Q103,291 99.5,264.5 Q96,238 96,209 Q96,162 111.5,122 Q127,82 158.5,52.5 Q190,23 237.5,6 Q285,-11 348,-11"/> 
            <glyph glyph-name="V" unicode="&#x56;" horiz-adv-x="800" d=" M259,-5 L305,-5 L800,700 L741,700 L295,56 L196,700 L142,700"/> 
            <glyph glyph-name="W" unicode="&#x57;" horiz-adv-x="1152" d=" M215,-5 L257,-5 L625,603 L667,-5 L709,-5 L1152,700 L1094,700 L707,77 L669,702 L629,702 L257,77 L204,700 L150,700"/> 
            <glyph glyph-name="X" unicode="&#x58;" horiz-adv-x="757" d=" M-23,0 L44,0 L368,323 L541,0 L597,0 L405,353 L757,700 L690,700 L380,392 L213,700 L157,700 L343,362"/> 
            <glyph glyph-name="Y" unicode="&#x59;" horiz-adv-x="779" d=" M234,0 L286,0 L358,271 L779,700 L709,700 L345,324 L184,700 L127,700 L310,284"/> 
            <glyph glyph-name="Z" unicode="&#x5A;" horiz-adv-x="719" d=" M-19,0 L534,0 L547,47 L75,47 L711,671 L719,700 L186,700 L173,653 L625,653 L-11,29"/> 
            <glyph glyph-name="[" unicode="&#x5B;" horiz-adv-x="512" d=" M16,-130 L289,-130 L299,-92 L72,-92 L274,662 L501,662 L512,700 L239,700"/> 
            <glyph glyph-name="\" unicode="&#x5C;" horiz-adv-x="412" d=" M368,-128 L412,-128 L191,798 L147,798"/> 
            <glyph glyph-name="]" unicode="&#x5D;" horiz-adv-x="429" d=" M-67,-130 L206,-130 L429,700 L156,700 L146,662 L373,662 L171,-92 L-56,-92"/> 
            <glyph glyph-name="^" unicode="&#x5E;" horiz-adv-x="489" d=" M129,493 L186,493 L359,660 L442,493 L489,493 L387,703 L343,703"/> 
            <glyph glyph-name="_" unicode="&#x5F;" horiz-adv-x="503" d=" M-114,-160 L491,-160 L503,-116 L-102,-116"/> 
            <glyph glyph-name="`" unicode="&#x60;" horiz-adv-x="403" d=" M368,595 L403,595 L351,728 L289,698"/> 
            <glyph glyph-name="a" unicode="&#x61;" horiz-adv-x="508" d=" M190,-12 Q257,-12 307.5,16 Q358,44 395,88 L372,0 L420,0 L498,292 Q503,309 505.5,327 Q508,345 508,359 Q508,433 456,475.5 Q404,518 310,518 Q262,518 224.5,510.5 Q187,503 149,489 L158,445 Q195,458 229.5,465 Q264,472 306,472 Q381,472 420.5,441 Q460,410 460,352 Q460,341 458,326.5 Q456,312 453,301 L449,287 Q411,298 359.5,307 Q308,316 253,316 Q203,316 160.5,303 Q118,290 87.5,266 Q57,242 40,207.5 Q23,173 23,131 Q23,95 37,68.5 Q51,42 74.5,24 Q98,6 128,-3 Q158,-12 190,-12 M199,33 Q142,33 108.5,61 Q75,89 75,137 Q75,167 87.5,191.5 Q100,216 122.5,234 Q145,252 176.5,262 Q208,272 246,272 Q303,272 351.5,265 Q400,258 439,248 L427,203 Q416,164 393,133 Q370,102 338.5,79.5 Q307,57 271,45 Q235,33 199,33"/> 
            <glyph glyph-name="b" unicode="&#x62;" horiz-adv-x="600" d=" M312,-13 Q369,-13 421,11.5 Q473,36 513,79 Q553,122 576.5,180.5 Q600,239 600,307 Q600,354 584.5,393.5 Q569,433 541.5,461.5 Q514,490 476.5,506 Q439,522 395,522 Q327,522 274,489 Q221,456 183,410 L270,730 L221,730 L25,0 L74,0 L109,130 Q119,103 136,77 Q153,51 177.5,31 Q202,11 235.5,-1 Q269,-13 312,-13 M310,33 Q271,33 238.5,47 Q206,61 182.5,85 Q159,109 146.5,141.5 Q134,174 134,211 Q134,262 156,310 Q178,358 214,394.5 Q250,431 295.5,453.5 Q341,476 389,476 Q424,476 453,463.5 Q482,451 503,428 Q524,405 535.5,372.5 Q547,340 547,301 Q547,248 529.5,199.5 Q512,151 480.5,114 Q449,77 405.5,55 Q362,33 310,33"/> 
            <glyph glyph-name="c" unicode="&#x63;" horiz-adv-x="550" d=" M272,-12 Q335,-12 384.5,12.5 Q434,37 473,75 L440,107 Q405,74 365,54 Q325,34 275,34 Q242,34 211,45.5 Q180,57 156,79.5 Q132,102 117.5,135 Q103,168 103,211 Q103,263 123,311 Q143,359 176.5,396 Q210,433 254,454.5 Q298,476 347,476 Q379,476 404,468 Q429,460 448.5,446.5 Q468,433 482.5,414.5 Q497,396 509,376 L550,399 Q538,423 520,445 Q502,467 477.5,484.5 Q453,502 421,512 Q389,522 350,522 Q290,522 235.5,496.5 Q181,471 139.5,427.5 Q98,384 74,327.5 Q50,271 50,208 Q50,155 69,114.5 Q88,74 119,45.5 Q150,17 190,2.5 Q230,-12 272,-12"/> 
            <glyph glyph-name="d" unicode="&#x64;" horiz-adv-x="688" d=" M259,-13 Q327,-13 379.5,20 Q432,53 470,99 L444,0 L493,0 L688,730 L639,730 L545,379 Q535,406 518,432 Q501,458 476.5,478 Q452,498 418.5,510 Q385,522 342,522 Q285,522 233,497.5 Q181,473 141,430 Q101,387 77.5,328.5 Q54,270 54,202 Q54,155 69.5,115.5 Q85,76 112.5,47.5 Q140,19 177.5,3 Q215,-13 259,-13 M265,33 Q230,33 201,45.5 Q172,58 151,81 Q130,104 118.5,136.5 Q107,169 107,208 Q107,261 124.5,309.5 Q142,358 173.5,395 Q205,432 248.5,454 Q292,476 344,476 Q383,476 415.5,462 Q448,448 471.5,424 Q495,400 507.5,367.5 Q520,335 520,298 Q520,247 498,199 Q476,151 440,114.5 Q404,78 358.5,55.5 Q313,33 265,33"/> 
            <glyph glyph-name="e" unicode="&#x65;" horiz-adv-x="538" d=" M105,238 L524,238 Q538,278 538,327 Q538,366 526,401.5 Q514,437 489.5,464 Q465,491 429,506.5 Q393,522 345,522 Q283,522 229,494.5 Q175,467 135,422 Q95,377 72.5,319.5 Q50,262 50,202 Q50,155 66.5,115.5 Q83,76 112.5,47.5 Q142,19 182.5,3.5 Q223,-12 272,-12 Q341,-12 388,11 Q435,34 475,67 L446,102 Q409,72 369.5,53 Q330,34 272,34 Q234,34 203,46 Q172,58 150,80.5 Q128,103 115.5,134 Q103,165 103,204 Q103,212 103.5,221 Q104,230 105,238 M114,282 Q125,321 146,356.5 Q167,392 197,419 Q227,446 264,461.5 Q301,477 344,477 Q381,477 408,464.5 Q435,452 453,431 Q471,410 479.5,382.5 Q488,355 488,324 Q488,310 487,299.5 Q486,289 484,282"/> 
            <glyph glyph-name="f" unicode="&#x66;" horiz-adv-x="477" d=" M55,0 L104,0 L229,465 L413,465 L425,510 L241,510 L258,573 Q274,633 303.5,659.5 Q333,686 373,686 Q398,686 418.5,680 Q439,674 465,662 L477,706 Q456,717 430,723.5 Q404,730 375,730 Q251,730 212,584 L192,510 L118,510 L106,465 L180,465"/> 
            <glyph glyph-name="g" unicode="&#x67;" horiz-adv-x="630" d=" M236,-162 Q300,-162 347.5,-143.5 Q395,-125 431,-89 Q457,-63 477,-26.5 Q497,10 511,63 L630,510 L581,510 L548,386 Q537,411 521,435.5 Q505,460 481.5,479 Q458,498 425.5,510 Q393,522 349,522 Q295,522 243,501 Q191,480 150.5,442.5 Q110,405 85,352.5 Q60,300 60,236 Q60,189 78,152.5 Q96,116 125.5,90.5 Q155,65 193.5,51.5 Q232,38 273,38 Q307,38 337,46 Q367,54 393,68 Q419,82 441.5,100.5 Q464,119 483,139 L465,75 Q453,32 437,-0.5 Q421,-33 395,-59 Q370,-84 331,-100 Q292,-116 238,-116 Q175,-116 123.5,-92.5 Q72,-69 31,-31 L-5,-67 Q41,-111 104.5,-136.5 Q168,-162 236,-162 M282,84 Q250,84 219.5,94 Q189,104 165.5,123.5 Q142,143 127.5,172 Q113,201 113,239 Q113,291 133,334.5 Q153,378 185.5,409.5 Q218,441 260,458 Q302,475 347,475 Q389,475 422,461 Q455,447 478.5,424 Q502,401 514,371.5 Q526,342 526,312 Q526,269 506,228 Q486,187 452,155 Q418,123 374,103.5 Q330,84 282,84"/> 
            <glyph glyph-name="h" unicode="&#x68;" horiz-adv-x="545" d=" M25,0 L74,0 L151,288 Q162,330 184.5,364.5 Q207,399 236,424.5 Q265,450 298,464 Q331,478 364,478 Q425,478 460,445 Q495,412 495,355 Q495,341 493,323.5 Q491,306 487,292 L409,0 L458,0 L534,288 Q539,306 542,324.5 Q545,343 545,360 Q545,434 499.5,478 Q454,522 378,522 Q346,522 318.5,513.5 Q291,505 268,491 Q245,477 224.5,457 Q204,437 185,415 L270,730 L221,730"/> 
            <glyph glyph-name="i" unicode="&#x69;" horiz-adv-x="278" d=" M199,643 L260,643 L278,710 L217,710 M32,0 L81,0 L218,510 L169,510"/> 
            <glyph glyph-name="j" unicode="&#x6A;" horiz-adv-x="278" d=" M199,643 L260,643 L278,710 L217,710 M-52,-163 Q-9,-163 22,-134 Q53,-105 67,-52 L218,510 L169,510 L19,-48 Q9,-84 -10.5,-100.5 Q-30,-117 -56,-117 Q-67,-117 -79.5,-114.5 Q-92,-112 -103,-109 L-115,-153 Q-97,-159 -83,-161 Q-69,-163 -52,-163"/> 
            <glyph glyph-name="k" unicode="&#x6B;" horiz-adv-x="592" d=" M25,0 L74,0 L107,124 L267,252 L403,0 L460,0 L308,282 L592,510 L521,510 L125,189 L270,730 L221,730"/> 
            <glyph glyph-name="l" unicode="&#x6C;" horiz-adv-x="277" d=" M32,0 L81,0 L277,730 L228,730"/> 
            <glyph glyph-name="m" unicode="&#x6D;" horiz-adv-x="890" d=" M25,0 L74,0 L151,288 Q162,329 183.5,363.5 Q205,398 232.5,423.5 Q260,449 291.5,463.5 Q323,478 354,478 Q410,478 442.5,445 Q475,412 475,355 Q475,341 473,323.5 Q471,306 467,292 L389,0 L438,0 L514,288 Q525,329 546.5,363.5 Q568,398 595.5,423.5 Q623,449 654.5,463.5 Q686,478 717,478 Q773,478 805.5,445 Q838,412 838,355 Q838,341 836,323.5 Q834,306 830,292 L752,0 L801,0 L877,288 Q882,306 886,324.5 Q890,343 890,360 Q890,396 878,425.5 Q866,455 845,476.5 Q824,498 794.5,510 Q765,522 731,522 Q659,522 605.5,488 Q552,454 517,397 Q513,420 502,442.5 Q491,465 473,482.5 Q455,500 428.5,511 Q402,522 368,522 Q337,522 311.5,514 Q286,506 264.5,491.5 Q243,477 223.5,457.5 Q204,438 185,415 L210,510 L161,510"/> 
            <glyph glyph-name="n" unicode="&#x6E;" horiz-adv-x="545" d=" M25,0 L74,0 L151,288 Q162,330 184.5,364.5 Q207,399 236,424.5 Q265,450 298,464 Q331,478 364,478 Q425,478 460,445 Q495,412 495,355 Q495,341 493,323.5 Q491,306 487,292 L409,0 L458,0 L534,288 Q539,306 542,324.5 Q545,343 545,360 Q545,434 499.5,478 Q454,522 378,522 Q346,522 318.5,513.5 Q291,505 268,491 Q245,477 224.5,457 Q204,437 185,415 L210,510 L161,510"/> 
            <glyph glyph-name="o" unicode="&#x6F;" horiz-adv-x="581" d=" M278,-12 Q337,-12 392,13 Q447,38 489,80 Q531,122 556,178 Q581,234 581,296 Q581,345 564.5,386.5 Q548,428 518,458 Q488,488 446.5,505 Q405,522 354,522 Q293,522 238,496.5 Q183,471 141.5,428.5 Q100,386 75.5,330 Q51,274 51,214 Q51,165 67.5,123.5 Q84,82 114,52 Q144,22 185.5,5 Q227,-12 278,-12 M283,34 Q203,34 153.5,81.5 Q104,129 104,216 Q104,267 124,314 Q144,361 178,397 Q212,433 256.5,454.5 Q301,476 349,476 Q429,476 478.5,428.5 Q528,381 528,294 Q528,241 507,194 Q486,147 452,111.5 Q418,76 373.5,55 Q329,34 283,34"/> 
            <glyph glyph-name="p" unicode="&#x70;" horiz-adv-x="600" d=" M-18,-160 L31,-160 L109,130 Q119,103 136,77 Q153,51 177.5,31 Q202,11 235.5,-1 Q269,-13 312,-13 Q369,-13 421,11.5 Q473,36 513,79 Q553,122 576.5,180.5 Q600,239 600,307 Q600,354 584.5,393.5 Q569,433 541.5,461.5 Q514,490 476.5,506 Q439,522 395,522 Q327,522 274,489 Q221,456 183,410 L210,510 L161,510 M310,33 Q271,33 238.5,47 Q206,61 182.5,85 Q159,109 146.5,141.5 Q134,174 134,211 Q134,262 156,310 Q178,358 214,394.5 Q250,431 295.5,453.5 Q341,476 389,476 Q424,476 453,463.5 Q482,451 503,428 Q524,405 535.5,372.5 Q547,340 547,301 Q547,248 529.5,199.5 Q512,151 480.5,114 Q449,77 405.5,55 Q362,33 310,33"/> 
            <glyph glyph-name="q" unicode="&#x71;" horiz-adv-x="629" d=" M391,-200 L440,-200 L629,510 L580,510 L545,380 Q535,407 518,433 Q501,459 476.5,478.5 Q452,498 418.5,510 Q385,522 342,522 Q285,522 233,497.5 Q181,473 141,430 Q101,387 77.5,328.5 Q54,270 54,202 Q54,155 69.5,115.5 Q85,76 112.5,47.5 Q140,19 177.5,3 Q215,-13 259,-13 Q327,-13 380,20.5 Q433,54 471,100 M265,33 Q230,33 201,45.5 Q172,58 151,81 Q130,104 118.5,136.5 Q107,169 107,208 Q107,261 124.5,309.5 Q142,358 173.5,395 Q205,432 248.5,454 Q292,476 344,476 Q383,476 415.5,462 Q448,448 471.5,424 Q495,400 507.5,368 Q520,336 520,299 Q520,248 498,200 Q476,152 440,115 Q404,78 358.5,55.5 Q313,33 265,33"/> 
            <glyph glyph-name="r" unicode="&#x72;" horiz-adv-x="434" d=" M25,0 L74,0 L130,209 Q146,270 176,317.5 Q206,365 244.5,397.5 Q283,430 327.5,447 Q372,464 416,464 L420,464 L434,518 Q393,520 356.5,509.5 Q320,499 287.5,479 Q255,459 226,429.5 Q197,400 172,365 L210,510 L161,510"/> 
            <glyph glyph-name="s" unicode="&#x73;" horiz-adv-x="474" d=" M217,-11 Q256,-11 290.5,0.5 Q325,12 351,32.5 Q377,53 392,81.5 Q407,110 407,143 Q407,166 399.5,184.5 Q392,203 375.5,219.5 Q359,236 332.5,251 Q306,266 268,281 Q232,295 210,307 Q188,319 175,330.5 Q162,342 157.5,354 Q153,366 153,381 Q153,399 161.5,416 Q170,433 186.5,446.5 Q203,460 228,468 Q253,476 285,476 Q330,476 371.5,458 Q413,440 442,416 L474,453 Q442,480 393,500.5 Q344,521 290,521 Q247,521 212,509.5 Q177,498 152.5,477.5 Q128,457 114.5,430 Q101,403 101,373 Q101,323 136,293 Q171,263 244,236 Q277,224 298.5,212 Q320,200 332.5,188 Q345,176 350,163 Q355,150 355,135 Q355,112 343.5,93.5 Q332,75 313.5,61.5 Q295,48 271,41 Q247,34 223,34 Q172,34 125,52.5 Q78,71 36,112 L1,77 Q45,33 101,11 Q157,-11 217,-11"/> 
            <glyph glyph-name="t" unicode="&#x74;" horiz-adv-x="414" d=" M206,-9 Q226,-9 242,-6.5 Q258,-4 278,4 L291,52 Q249,36 217,36 Q179,36 156.5,50.5 Q134,65 134,97 Q134,106 135.5,118 Q137,130 139,140 L226,465 L402,465 L414,510 L238,510 L282,673 L233,673 L189,510 L115,510 L103,465 L177,465 L90,141 Q88,131 86,117.5 Q84,104 84,92 Q84,39 119.5,15 Q155,-9 206,-9"/> 
            <glyph glyph-name="u" unicode="&#x75;" horiz-adv-x="584" d=" M231,-12 Q263,-12 290.5,-3.5 Q318,5 341,19 Q364,33 384.5,52.5 Q405,72 424,95 L399,0 L448,0 L584,510 L535,510 L458,222 Q447,180 424.5,145.5 Q402,111 373,85.5 Q344,60 311,46 Q278,32 245,32 Q184,32 149,65 Q114,98 114,155 Q114,169 116,186.5 Q118,204 122,218 L200,510 L151,510 L75,222 Q70,204 67,185.5 Q64,167 64,150 Q64,76 109.5,32 Q155,-12 231,-12"/> 
            <glyph glyph-name="v" unicode="&#x76;" horiz-adv-x="585" d=" M179,-4 L221,-4 L585,510 L526,510 L213,55 L142,510 L89,510"/> 
            <glyph glyph-name="w" unicode="&#x77;" horiz-adv-x="862" d=" M148,-4 L189,-4 L459,433 L494,-4 L537,-4 L862,510 L808,510 L533,66 L498,512 L459,512 L186,66 L149,510 L99,510"/> 
            <glyph glyph-name="x" unicode="&#x78;" horiz-adv-x="578" d=" M-29,0 L37,0 L277,229 L395,0 L451,0 L310,260 L578,510 L512,510 L288,295 L176,510 L120,510 L255,264"/> 
            <glyph glyph-name="y" unicode="&#x79;" horiz-adv-x="592" d=" M20,-163 Q75,-163 124,-130.5 Q173,-98 229,-18 L592,510 L533,510 L226,54 L137,510 L85,510 L189,3 Q142,-65 103.5,-91 Q65,-117 26,-117 Q6,-117 -19.5,-109 Q-45,-101 -61,-88 L-88,-128 Q-38,-163 20,-163"/> 
            <glyph glyph-name="z" unicode="&#x7A;" horiz-adv-x="558" d=" M-17,0 L424,0 L436,44 L75,44 L550,482 L558,510 L134,510 L122,466 L466,466 L-9,28"/> 
            <glyph glyph-name="{" unicode="&#x7B;" horiz-adv-x="541" d=" M312,-141 L326,-110 Q258,-91 230.5,-55.5 Q203,-20 203,30 Q203,56 210,87.5 Q217,119 225,145 Q230,160 232,175.5 Q234,191 234,202 Q234,264 165,285 Q197,291 221.5,303 Q246,315 264,338 Q282,361 295,396.5 Q308,432 318,485 Q326,528 340.5,562.5 Q355,597 380.5,622 Q406,647 444,661 Q482,675 538,678 L541,715 Q470,711 422.5,694 Q375,677 344.5,648 Q314,619 297,579 Q280,539 270,490 Q260,440 247,405 Q234,370 214.5,348 Q195,326 167.5,316 Q140,306 101,306 L75,306 L65,268 L91,268 Q143,268 164.5,250.5 Q186,233 186,201 Q186,177 177,146 Q171,123 166.5,106 Q162,89 159,75.5 Q156,62 155,50.5 Q154,39 154,26 Q154,-1 162.5,-27 Q171,-53 189.5,-75 Q208,-97 238,-114.5 Q268,-132 312,-141"/> 
            <glyph glyph-name="|" unicode="&#x7C;" horiz-adv-x="185" d=" M141,-128 L185,-128 L185,798 L141,798"/> 
            <glyph glyph-name="}" unicode="&#x7D;" horiz-adv-x="432" d=" M-44,-141 Q26,-137 73.5,-120 Q121,-103 152,-74 Q183,-45 200,-5.5 Q217,34 227,84 Q237,134 250,169 Q263,204 282.5,226 Q302,248 329.5,258 Q357,268 396,268 L422,268 L432,306 L406,306 Q354,306 332.5,323.5 Q311,341 311,373 Q311,396 320,428 Q326,451 330.5,468 Q335,485 338,498.5 Q341,512 342,523.5 Q343,535 343,548 Q343,575 334.5,601 Q326,627 307.5,649 Q289,671 258.5,688.5 Q228,706 185,715 L171,684 Q239,665 266.5,629 Q294,593 294,544 Q294,518 287,486.5 Q280,455 272,429 Q267,414 265,398.5 Q263,383 263,372 Q263,310 332,289 Q300,283 275.5,271 Q251,259 233,236 Q215,213 202,177 Q189,141 179,89 Q171,45 156.5,11 Q142,-23 116.5,-48 Q91,-73 52.5,-87 Q14,-101 -41,-104"/> 
            <glyph glyph-name="~" unicode="&#x7E;" horiz-adv-x="403" d=" M125,245 Q142,275 155,290 Q168,305 184,305 Q197,305 206,298 Q215,291 232,275 Q249,259 262.5,249.5 Q276,240 299,240 Q331,240 355,263.5 Q379,287 403,336 L365,351 Q348,321 335,306 Q322,291 306,291 Q293,291 284,298 Q275,305 258,321 Q241,337 227.5,346.5 Q214,356 191,356 Q159,356 135,332.5 Q111,309 87,260"/> 
            <glyph glyph-name="¡" unicode="&#xA1;" horiz-adv-x="278" d=" M189,615 L255,615 L278,700 L212,700 M28,0 L86,0 L105,70 L210,517 L182,517 L47,70"/> 
            <glyph glyph-name="¢" unicode="&#xA2;" horiz-adv-x="588" d=" M204,105 L160,-6 L210,-6 L249,92 Q274,87 296,87 Q366,87 417.5,111 Q469,135 511,174 L478,206 Q440,172 397,152.5 Q354,133 299,133 Q279,133 263,136 L433,569 Q477,558 503,533 Q529,508 547,476 L588,499 Q571,536 538.5,567 Q506,598 453,612 L491,706 L441,706 L407,620 Q400,621 393,621 Q387,621 380,621 Q317,621 261.5,595.5 Q206,570 164.5,526.5 Q123,483 99,425 Q75,367 75,303 Q75,235 110,182.5 Q145,130 204,105 M391,575 L223,148 Q178,168 153,209 Q128,250 128,304 Q128,359 147.5,408.5 Q167,458 200.5,495 Q234,532 279.5,553.5 Q325,575 377,575"/> 
            <glyph glyph-name="£" unicode="&#xA3;" horiz-adv-x="643" d=" M-2,0 L509,0 L522,47 L148,47 L217,305 L515,305 L528,353 L230,353 L263,475 Q287,564 333,610 Q383,660 454,660 Q508,660 541,636.5 Q574,613 600,571 L643,597 Q617,645 571.5,676 Q526,707 457,707 Q406,707 366.5,689.5 Q327,672 294,639 Q268,613 247.5,572.5 Q227,532 214,484 L179,353 L93,353 L80,305 L166,305 L96,45 L5,25"/> 
            <glyph glyph-name="¤" unicode="&#xA4;" horiz-adv-x="712" d=" M372,-12 Q412,-12 445.5,-3.5 Q479,5 508,20.5 Q537,36 561.5,57 Q586,78 609,103 L574,133 Q532,87 485,61 Q438,35 373,35 Q329,35 295,50.5 Q261,66 237,94 Q213,122 199,160.5 Q185,199 183,245 L466,245 L479,293 L183,293 Q185,325 190.5,356 Q196,387 205,416 L511,416 L524,464 L223,464 Q242,508 269.5,545 Q297,582 330.5,608.5 Q364,635 403,650 Q442,665 484,665 Q521,665 549.5,656 Q578,647 600,630 Q622,613 638.5,589 Q655,565 667,535 L712,553 Q701,586 681.5,615 Q662,644 635,665.5 Q608,687 572.5,699.5 Q537,712 493,712 Q436,712 386.5,693 Q337,674 295.5,641 Q254,608 221.5,562.5 Q189,517 168,464 L95,464 L82,416 L151,416 Q133,358 130,293 L50,293 L37,245 L129,245 Q132,185 151,137.5 Q170,90 202.5,56.5 Q235,23 278,5.5 Q321,-12 372,-12"/> 
            <glyph glyph-name="¥" unicode="&#xA5;" horiz-adv-x="796" d=" M251,0 L303,0 L336,125 L550,125 L562,170 L348,170 L374,268 L588,268 L600,313 L416,313 L796,700 L728,700 L364,324 L203,700 L144,700 L314,313 L124,313 L112,268 L322,268 L296,170 L86,170 L74,125 L284,125"/> 
            <glyph glyph-name="§" unicode="&#xA7;" horiz-adv-x="613" d=" M288,-10 Q325,-10 358,-1.5 Q391,7 415.5,23 Q440,39 454.5,62 Q469,85 469,114 Q469,148 446,172 Q423,196 392,210 Q434,210 470,219 Q506,228 533,244.5 Q560,261 575,285 Q590,309 590,338 Q590,387 543,419 Q496,451 402,484 Q330,510 296.5,532.5 Q263,555 263,587 Q263,622 298.5,643.5 Q334,665 385,665 Q448,665 499,642.5 Q550,620 580,591 L613,628 Q596,644 572.5,659 Q549,674 520.5,685 Q492,696 459,703 Q426,710 392,710 Q355,710 322,701.5 Q289,693 264.5,677 Q240,661 225.5,638 Q211,615 211,586 Q211,552 234,528 Q257,504 288,490 Q246,490 210,481 Q174,472 147,455.5 Q120,439 105,415 Q90,391 90,362 Q90,313 137,281 Q184,249 278,216 Q350,190 383.5,167.5 Q417,145 417,113 Q417,78 381.5,56.5 Q346,35 295,35 Q232,35 181,57.5 Q130,80 100,109 L67,72 Q83,56 107,41 Q131,26 159.5,15 Q188,4 220.5,-3 Q253,-10 288,-10 M392,245 Q357,245 331,250 Q305,255 275,266 Q203,291 172.5,314 Q142,337 142,366 Q142,384 153,400 Q164,416 183.5,428.5 Q203,441 229.5,448 Q256,455 288,455 Q323,455 348.5,450 Q374,445 405,434 Q477,409 507.5,386 Q538,363 538,334 Q538,316 527,300 Q516,284 496.5,271.5 Q477,259 450,252 Q423,245 392,245"/> 
            <glyph glyph-name="¨" unicode="&#xA8;" horiz-adv-x="467" d=" M376,595 L445,595 L467,675 L398,675 M213,595 L282,595 L304,675 L235,675"/> 
            <glyph glyph-name="©" unicode="&#xA9;" horiz-adv-x="802" d=" M439,-12 Q515,-12 581.5,17 Q648,46 697,95.5 Q746,145 774,211 Q802,277 802,351 Q802,425 774,491 Q746,557 697.5,606 Q649,655 583,683.5 Q517,712 441,712 Q365,712 298.5,683 Q232,654 183,604.5 Q134,555 106,489 Q78,423 78,349 Q78,275 106,209 Q134,143 182.5,94 Q231,45 297,16.5 Q363,-12 439,-12 M439,16 Q368,16 307.5,42 Q247,68 202.5,113.5 Q158,159 133,219.5 Q108,280 108,349 Q108,418 133.5,479 Q159,540 203.5,585.5 Q248,631 309,657.5 Q370,684 441,684 Q512,684 572.5,658 Q633,632 677.5,586.5 Q722,541 747,480.5 Q772,420 772,351 Q772,282 746.5,221 Q721,160 676.5,114.5 Q632,69 571,42.5 Q510,16 439,16 M444,166 Q493,166 526,183.5 Q559,201 588,230 L560,258 Q534,233 508,219.5 Q482,206 445,206 Q416,206 390.5,218 Q365,230 346.5,250.5 Q328,271 317,298 Q306,325 306,356 Q306,387 316,414 Q326,441 344.5,461 Q363,481 388.5,493 Q414,505 444,505 Q479,505 506.5,489.5 Q534,474 556,453 L586,484 Q558,510 526,527.5 Q494,545 445,545 Q406,545 372.5,530 Q339,515 314.5,489 Q290,463 276,428.5 Q262,394 262,355 Q262,316 276,281.5 Q290,247 314.5,221.5 Q339,196 372,181 Q405,166 444,166"/> 
            <glyph glyph-name="ª" unicode="&#xAA;" horiz-adv-x="380" d=" M191,410 Q227,410 255,426 Q283,442 305,466 L291,416 L331,416 L374,577 Q376,587 378,597 Q380,607 380,616 Q380,657 351.5,680.5 Q323,704 269,704 Q241,704 218.5,699.5 Q196,695 175,687 L182,652 Q201,659 220,663 Q239,667 262,667 Q340,667 340,609 Q340,603 339,595 Q338,587 336,582 L334,576 Q314,581 288.5,586 Q263,591 237,591 Q180,591 143,562 Q106,533 106,485 Q106,450 131,430 Q156,410 191,410 M58,293 L302,293 L312,333 L68,333 M201,442 Q177,442 162.5,455 Q148,468 148,489 Q148,521 173,540.5 Q198,560 237,560 Q263,560 285.5,556.5 Q308,553 327,548 L323,534 Q318,515 305.5,498.5 Q293,482 276,469.5 Q259,457 239.5,449.5 Q220,442 201,442"/> 
            <glyph glyph-name="«" unicode="&#xAB;" horiz-adv-x="503" d=" M353,42 L394,64 L311,248 L503,440 L467,468 L251,259 L249,251 M149,42 L190,64 L107,248 L299,440 L263,468 L47,259 L45,251"/> 
            <glyph glyph-name="®" unicode="&#xAE;" horiz-adv-x="802" d=" M439,-12 Q515,-12 581.5,17 Q648,46 697,95.5 Q746,145 774,211 Q802,277 802,351 Q802,425 774,491 Q746,557 697.5,606 Q649,655 583,683.5 Q517,712 441,712 Q365,712 298.5,683 Q232,654 183,604.5 Q134,555 106,489 Q78,423 78,349 Q78,275 106,209 Q134,143 182.5,94 Q231,45 297,16.5 Q363,-12 439,-12 M439,16 Q368,16 307.5,42 Q247,68 202.5,113.5 Q158,159 133,219.5 Q108,280 108,349 Q108,418 133.5,479 Q159,540 203.5,585.5 Q248,631 309,657.5 Q370,684 441,684 Q512,684 572.5,658 Q633,632 677.5,586.5 Q722,541 747,480.5 Q772,420 772,351 Q772,282 746.5,221 Q721,160 676.5,114.5 Q632,69 571,42.5 Q510,16 439,16 M301,177 L344,177 L344,324 L450,324 L566,177 L622,177 L500,331 Q545,339 572.5,365.5 Q600,392 600,437 Q600,486 562,514.5 Q524,543 465,543 L301,543 M344,364 L344,502 L463,502 Q506,502 530.5,484.5 Q555,467 555,435 Q555,400 527.5,382 Q500,364 458,364"/> 
            <glyph glyph-name="¯" unicode="&#xAF;" horiz-adv-x="504" d=" M190,600 L490,600 L504,653 L204,653"/> 
            <glyph glyph-name="°" unicode="&#xB0;" horiz-adv-x="380" d=" M214,411 Q248,411 278,424.5 Q308,438 330.5,461.5 Q353,485 366.5,515.5 Q380,546 380,579 Q380,606 370.5,629 Q361,652 344.5,669 Q328,686 305,695.5 Q282,705 254,705 Q220,705 190,691.5 Q160,678 137.5,654.5 Q115,631 101.5,600.5 Q88,570 88,537 Q88,510 97.5,487 Q107,464 123.5,447 Q140,430 163,420.5 Q186,411 214,411 M219,453 Q181,453 157,476.5 Q133,500 133,542 Q133,566 142.5,588 Q152,610 168,626.5 Q184,643 205,653 Q226,663 249,663 Q287,663 311,639.5 Q335,616 335,574 Q335,550 325.5,528 Q316,506 300,489.5 Q284,473 263,463 Q242,453 219,453"/> 
            <glyph glyph-name="±" unicode="&#xB1;" horiz-adv-x="591" d=" M260,-12 Q314,-12 361.5,3.5 Q409,19 444.5,46.5 Q480,74 500,111 Q520,148 520,191 Q520,224 508.5,249.5 Q497,275 478,294.5 Q459,314 433.5,327.5 Q408,341 380,349 Q476,365 533.5,411.5 Q591,458 591,537 Q591,579 573,611 Q555,643 525,665 Q495,687 455.5,698.5 Q416,710 372,710 Q298,710 244.5,686 Q191,662 150,629 L182,594 Q221,625 266,644 Q311,663 372,663 Q407,663 437,654 Q467,645 489,628.5 Q511,612 523.5,588 Q536,564 536,534 Q536,460 465.5,418 Q395,376 271,376 L231,376 L219,330 L249,330 Q294,330 333,322 Q372,314 401.5,296.5 Q431,279 448,252.5 Q465,226 465,189 Q465,157 450.5,129 Q436,101 409,80 Q382,59 345,47 Q308,35 263,35 Q181,35 131.5,65 Q82,95 52,141 L7,114 Q41,59 105,23.5 Q169,-12 260,-12"/> 
            <glyph glyph-name="´" unicode="&#xB4;" horiz-adv-x="437" d=" M251,595 L302,595 L437,698 L375,728"/> 
            <glyph glyph-name="µ" unicode="&#xB5;" horiz-adv-x="801" d=" M692,-24 L730,8 L655,90 Q722,150 761.5,234.5 Q801,319 801,411 Q801,474 778.5,529 Q756,584 716,624.5 Q676,665 620.5,688.5 Q565,712 499,712 Q415,712 342,676.5 Q269,641 214,582 Q159,523 127.5,446.5 Q96,370 96,288 Q96,225 118.5,170 Q141,115 181,74.5 Q221,34 276.5,10.5 Q332,-13 398,-13 Q460,-13 516,6.5 Q572,26 620,61 M398,34 Q342,34 296.5,53.5 Q251,73 218.5,107.5 Q186,142 168,188 Q150,234 150,288 Q150,360 177,428 Q204,496 251,548.5 Q298,601 361.5,633 Q425,665 499,665 Q555,665 600.5,645.5 Q646,626 678.5,591.5 Q711,557 729,511 Q747,465 747,411 Q747,330 714,255 Q681,180 623,126 L509,260 L471,227 L588,97 Q547,68 499.5,51 Q452,34 398,34"/> 
            <glyph glyph-name="¶" unicode="&#xB6;" horiz-adv-x="501" d=" M260,0 L313,0 L501,700 L428,700 Q352,700 291.5,682.5 Q231,665 189,632.5 Q147,600 124.5,553 Q102,506 102,446 Q102,399 120.5,365.5 Q139,332 170,310 Q201,288 242.5,277 Q284,266 330,263"/> 
            <glyph glyph-name="·" unicode="&#xB7;" horiz-adv-x="171" d=" M82,255 L148,255 L171,340 L105,340"/> 
            <glyph glyph-name="¸" unicode="&#xB8;" horiz-adv-x="238" d=" M118,-148 L238,10 L195,10 L70,-122"/> 
            <glyph glyph-name="º" unicode="&#xBA;" horiz-adv-x="412" d=" M245,407 Q279,407 309.5,421 Q340,435 363,458 Q386,481 399,512 Q412,543 412,576 Q412,604 402.5,627.5 Q393,651 376,668 Q359,685 335,695 Q311,705 282,705 Q247,705 217,691 Q187,677 164,654 Q141,631 128,600 Q115,569 115,536 Q115,480 150.5,443.5 Q186,407 245,407 M60,293 L328,293 L338,333 L70,333 M248,444 Q208,444 182.5,469.5 Q157,495 157,538 Q157,563 166.5,586.5 Q176,610 192.5,628 Q209,646 231.5,657 Q254,668 279,668 Q319,668 344,642.5 Q369,617 369,574 Q369,548 359.5,524.5 Q350,501 333.5,483 Q317,465 295,454.5 Q273,444 248,444"/> 
            <glyph glyph-name="»" unicode="&#xBB;" horiz-adv-x="469" d=" M251,41 L467,250 L469,258 L365,467 L324,445 L407,261 L215,69 M47,41 L263,250 L265,258 L161,467 L120,445 L203,261 L11,69"/> 
            <glyph glyph-name="¿" unicode="&#xBF;" horiz-adv-x="484" d=" M368,615 L434,615 L457,700 L391,700 M252,-9 Q290,-9 323.5,-1 Q357,7 386,21 Q415,35 439.5,53.5 Q464,72 484,92 L452,126 Q418,92 367.5,65 Q317,38 256,38 Q224,38 196.5,46.5 Q169,55 148.5,71 Q128,87 116,111 Q104,135 104,167 Q104,207 122.5,239 Q141,271 174,294.5 Q207,318 253,332 Q299,346 354,350 L361,355 L391,517 L359,517 L316,392 Q263,384 215,366.5 Q167,349 130.5,321 Q94,293 72.5,254.5 Q51,216 51,166 Q51,128 65,96 Q79,64 105,40.5 Q131,17 168,4 Q205,-9 252,-9"/> 
            <glyph glyph-name="À" unicode="&#xC0;" horiz-adv-x="668" d=" M-34,0 L24,0 L166,196 L579,196 L615,0 L668,0 L531,705 L481,705 M200,243 L494,648 L569,243 M517,765 L552,765 L500,898 L438,868"/> 
            <glyph glyph-name="Á" unicode="&#xC1;" horiz-adv-x="675" d=" M-34,0 L24,0 L166,196 L579,196 L615,0 L668,0 L531,705 L481,705 M200,243 L494,648 L569,243 M489,765 L540,765 L675,868 L613,898"/> 
            <glyph glyph-name="Â" unicode="&#xC2;" horiz-adv-x="668" d=" M-34,0 L24,0 L166,196 L579,196 L615,0 L668,0 L531,705 L481,705 M200,243 L494,648 L569,243 M401,765 L449,765 L545,833 L597,765 L641,765 L574,887 L534,887"/> 
            <glyph glyph-name="Ã" unicode="&#xC3;" horiz-adv-x="694" d=" M-34,0 L24,0 L166,196 L579,196 L615,0 L668,0 L531,705 L481,705 M200,243 L494,648 L569,243 M416,763 Q433,793 446,808 Q459,823 475,823 Q488,823 497,816 Q506,809 523,793 Q540,777 553.5,767.5 Q567,758 590,758 Q622,758 646,781.5 Q670,805 694,854 L656,869 Q639,839 626,824 Q613,809 597,809 Q584,809 575,816 Q566,823 549,839 Q532,855 518.5,864.5 Q505,874 482,874 Q450,874 426,850.5 Q402,827 378,778"/> 
            <glyph glyph-name="Ä" unicode="&#xC4;" horiz-adv-x="668" d=" M-34,0 L24,0 L166,196 L579,196 L615,0 L668,0 L531,705 L481,705 M200,243 L494,648 L569,243 M575,765 L644,765 L666,845 L597,845 M412,765 L481,765 L503,845 L434,845"/> 
            <glyph glyph-name="Å" unicode="&#xC5;" horiz-adv-x="678" d=" M-24,0 L34,0 L176,196 L589,196 L625,0 L678,0 L547,672 Q582,680 606,707.5 Q630,735 630,772 Q630,807 603.5,830.5 Q577,854 534,854 Q513,854 493.5,846 Q474,838 459.5,824.5 Q445,811 436.5,792 Q428,773 428,752 Q428,703 474,681 M524,702 Q495,702 479.5,716 Q464,730 464,752 Q464,781 484.5,801.5 Q505,822 534,822 Q563,822 578.5,808 Q594,794 594,772 Q594,743 573.5,722.5 Q553,702 524,702 M210,243 L504,648 L579,243"/> 
            <glyph glyph-name="Æ" unicode="&#xC6;" horiz-adv-x="1120" d=" M-32,0 L31,0 L201,196 L502,196 L449,0 L937,0 L950,48 L514,48 L589,329 L975,329 L988,377 L602,377 L676,652 L1107,652 L1120,700 L579,700 M242,243 L597,653 L624,653 L514,243"/> 
            <glyph glyph-name="Ç" unicode="&#xC7;" horiz-adv-x="767" d=" M374,-13 L378,-13 Q426,-13 466.5,-3.5 Q507,6 541,22.5 Q575,39 603,61 Q631,83 655,108 L620,140 Q572,92 516.5,63.5 Q461,35 383,35 Q332,35 288.5,51.5 Q245,68 213.5,99 Q182,130 164,174 Q146,218 146,273 Q146,347 174,417.5 Q202,488 250.5,543 Q299,598 365,631.5 Q431,665 507,665 Q548,665 580.5,656 Q613,647 639,630.5 Q665,614 685,590 Q705,566 722,537 L767,561 Q751,593 727,620.5 Q703,648 670.5,668.5 Q638,689 598,700.5 Q558,712 510,712 Q423,712 347,675 Q271,638 214.5,576.5 Q158,515 125,435.5 Q92,356 92,271 Q92,212 110.5,163.5 Q129,115 161,79 Q193,43 236.5,20.5 Q280,-2 330,-9 L223,-122 L271,-148"/> 
            <glyph glyph-name="È" unicode="&#xC8;" horiz-adv-x="717" d=" M36,0 L534,0 L547,48 L101,48 L176,329 L572,329 L585,377 L189,377 L263,652 L704,652 L717,700 L224,700 M480,765 L515,765 L463,898 L401,868"/> 
            <glyph glyph-name="É" unicode="&#xC9;" horiz-adv-x="717" d=" M36,0 L534,0 L547,48 L101,48 L176,329 L572,329 L585,377 L189,377 L263,652 L704,652 L717,700 L224,700 M413,765 L464,765 L599,868 L537,898"/> 
            <glyph glyph-name="Ê" unicode="&#xCA;" horiz-adv-x="717" d=" M36,0 L534,0 L547,48 L101,48 L176,329 L572,329 L585,377 L189,377 L263,652 L704,652 L717,700 L224,700 M355,765 L403,765 L499,833 L551,765 L595,765 L528,887 L488,887"/> 
            <glyph glyph-name="Ë" unicode="&#xCB;" horiz-adv-x="717" d=" M36,0 L534,0 L547,48 L101,48 L176,329 L572,329 L585,377 L189,377 L263,652 L704,652 L717,700 L224,700 M528,765 L597,765 L619,845 L550,845 M365,765 L434,765 L456,845 L387,845"/> 
            <glyph glyph-name="Ì" unicode="&#xCC;" horiz-adv-x="300" d=" M43,0 L95,0 L283,700 L231,700 M65801,765 L65836,765 L65784,898 L65722,868"/> 
            <glyph glyph-name="Í" unicode="&#xCD;" horiz-adv-x="419" d=" M43,0 L95,0 L283,700 L231,700 M65769,765 L65820,765 L65955,868 L65893,898"/> 
            <glyph glyph-name="Î" unicode="&#xCE;" horiz-adv-x="389" d=" M43,0 L95,0 L283,700 L231,700 M65685,765 L65733,765 L65829,833 L65881,765 L65925,765 L65858,887 L65818,887"/> 
            <glyph glyph-name="Ï" unicode="&#xCF;" horiz-adv-x="414" d=" M43,0 L95,0 L283,700 L231,700 M65859,765 L65928,765 L65950,845 L65881,845 M65696,765 L65765,765 L65787,845 L65718,845"/> 
            <glyph glyph-name="Ð" unicode="&#xD0;" horiz-adv-x="760" d=" M66,0 L295,0 Q404,0 496,36 Q588,72 651,135 Q704,188 732,256.5 Q760,325 760,406 Q760,471 740,520 Q720,569 683,606 Q635,654 564,677 Q493,700 411,700 L254,700 L167,376 L92,376 L79,328 L154,328 M131,48 L206,328 L438,328 L451,376 L219,376 L293,652 L408,652 Q483,652 542.5,632 Q602,612 641,573 Q706,510 706,402 Q706,332 681.5,272.5 Q657,213 612,168 Q554,110 475.5,79 Q397,48 302,48"/> 
            <glyph glyph-name="Ñ" unicode="&#xD1;" horiz-adv-x="802" d=" M36,0 L86,0 L254,626 L576,0 L614,0 L802,700 L752,700 L587,87 L272,700 L224,700 M407,763 Q424,793 437,808 Q450,823 466,823 Q479,823 488,816 Q497,809 514,793 Q531,777 544.5,767.5 Q558,758 581,758 Q613,758 637,781.5 Q661,805 685,854 L647,869 Q630,839 617,824 Q604,809 588,809 Q575,809 566,816 Q557,823 540,839 Q523,855 509.5,864.5 Q496,874 473,874 Q441,874 417,850.5 Q393,827 369,778"/> 
            <glyph glyph-name="Ò" unicode="&#xD2;" horiz-adv-x="801" d=" M398,-13 Q482,-13 555,22.5 Q628,58 683,117 Q738,176 769.5,252.5 Q801,329 801,411 Q801,474 778.5,529 Q756,584 716,624.5 Q676,665 620.5,688.5 Q565,712 499,712 Q415,712 342,676.5 Q269,641 214,582 Q159,523 127.5,446.5 Q96,370 96,288 Q96,225 118.5,170 Q141,115 181,74.5 Q221,34 276.5,10.5 Q332,-13 398,-13 M398,34 Q342,34 296.5,53.5 Q251,73 218.5,107.5 Q186,142 168,188 Q150,234 150,288 Q150,360 177,428 Q204,496 251,548.5 Q298,601 361.5,633 Q425,665 499,665 Q555,665 600.5,645.5 Q646,626 678.5,591.5 Q711,557 729,511 Q747,465 747,411 Q747,339 720,271 Q693,203 646,150.5 Q599,98 535.5,66 Q472,34 398,34 M546,765 L581,765 L529,898 L467,868"/> 
            <glyph glyph-name="Ó" unicode="&#xD3;" horiz-adv-x="801" d=" M398,-13 Q482,-13 555,22.5 Q628,58 683,117 Q738,176 769.5,252.5 Q801,329 801,411 Q801,474 778.5,529 Q756,584 716,624.5 Q676,665 620.5,688.5 Q565,712 499,712 Q415,712 342,676.5 Q269,641 214,582 Q159,523 127.5,446.5 Q96,370 96,288 Q96,225 118.5,170 Q141,115 181,74.5 Q221,34 276.5,10.5 Q332,-13 398,-13 M398,34 Q342,34 296.5,53.5 Q251,73 218.5,107.5 Q186,142 168,188 Q150,234 150,288 Q150,360 177,428 Q204,496 251,548.5 Q298,601 361.5,633 Q425,665 499,665 Q555,665 600.5,645.5 Q646,626 678.5,591.5 Q711,557 729,511 Q747,465 747,411 Q747,339 720,271 Q693,203 646,150.5 Q599,98 535.5,66 Q472,34 398,34 M469,765 L520,765 L655,868 L593,898"/> 
            <glyph glyph-name="Ô" unicode="&#xD4;" horiz-adv-x="801" d=" M398,-13 Q482,-13 555,22.5 Q628,58 683,117 Q738,176 769.5,252.5 Q801,329 801,411 Q801,474 778.5,529 Q756,584 716,624.5 Q676,665 620.5,688.5 Q565,712 499,712 Q415,712 342,676.5 Q269,641 214,582 Q159,523 127.5,446.5 Q96,370 96,288 Q96,225 118.5,170 Q141,115 181,74.5 Q221,34 276.5,10.5 Q332,-13 398,-13 M398,34 Q342,34 296.5,53.5 Q251,73 218.5,107.5 Q186,142 168,188 Q150,234 150,288 Q150,360 177,428 Q204,496 251,548.5 Q298,601 361.5,633 Q425,665 499,665 Q555,665 600.5,645.5 Q646,626 678.5,591.5 Q711,557 729,511 Q747,465 747,411 Q747,339 720,271 Q693,203 646,150.5 Q599,98 535.5,66 Q472,34 398,34 M420,765 L468,765 L564,833 L616,765 L660,765 L593,887 L553,887"/> 
            <glyph glyph-name="Õ" unicode="&#xD5;" horiz-adv-x="801" d=" M398,-13 Q482,-13 555,22.5 Q628,58 683,117 Q738,176 769.5,252.5 Q801,329 801,411 Q801,474 778.5,529 Q756,584 716,624.5 Q676,665 620.5,688.5 Q565,712 499,712 Q415,712 342,676.5 Q269,641 214,582 Q159,523 127.5,446.5 Q96,370 96,288 Q96,225 118.5,170 Q141,115 181,74.5 Q221,34 276.5,10.5 Q332,-13 398,-13 M398,34 Q342,34 296.5,53.5 Q251,73 218.5,107.5 Q186,142 168,188 Q150,234 150,288 Q150,360 177,428 Q204,496 251,548.5 Q298,601 361.5,633 Q425,665 499,665 Q555,665 600.5,645.5 Q646,626 678.5,591.5 Q711,557 729,511 Q747,465 747,411 Q747,339 720,271 Q693,203 646,150.5 Q599,98 535.5,66 Q472,34 398,34 M421,763 Q438,793 451,808 Q464,823 480,823 Q493,823 502,816 Q511,809 528,793 Q545,777 558.5,767.5 Q572,758 595,758 Q627,758 651,781.5 Q675,805 699,854 L661,869 Q644,839 631,824 Q618,809 602,809 Q589,809 580,816 Q571,823 554,839 Q537,855 523.5,864.5 Q510,874 487,874 Q455,874 431,850.5 Q407,827 383,778"/> 
            <glyph glyph-name="Ö" unicode="&#xD6;" horiz-adv-x="801" d=" M398,-13 Q482,-13 555,22.5 Q628,58 683,117 Q738,176 769.5,252.5 Q801,329 801,411 Q801,474 778.5,529 Q756,584 716,624.5 Q676,665 620.5,688.5 Q565,712 499,712 Q415,712 342,676.5 Q269,641 214,582 Q159,523 127.5,446.5 Q96,370 96,288 Q96,225 118.5,170 Q141,115 181,74.5 Q221,34 276.5,10.5 Q332,-13 398,-13 M398,34 Q342,34 296.5,53.5 Q251,73 218.5,107.5 Q186,142 168,188 Q150,234 150,288 Q150,360 177,428 Q204,496 251,548.5 Q298,601 361.5,633 Q425,665 499,665 Q555,665 600.5,645.5 Q646,626 678.5,591.5 Q711,557 729,511 Q747,465 747,411 Q747,339 720,271 Q693,203 646,150.5 Q599,98 535.5,66 Q472,34 398,34 M584,765 L653,765 L675,845 L606,845 M421,765 L490,765 L512,845 L443,845"/> 
            <glyph glyph-name="Ø" unicode="&#xD8;" horiz-adv-x="902" d=" M398,-13 Q482,-13 555,22.5 Q628,58 683,117 Q738,176 769.5,252.5 Q801,329 801,411 Q801,459 788.5,501.5 Q776,544 753,580 L902,705 L833,705 L726,615 Q685,660 627.5,686 Q570,712 499,712 Q415,712 342,676.5 Q269,641 214,582 Q159,523 127.5,446.5 Q96,370 96,288 Q96,243 107.5,202 Q119,161 140,126 L-17,-5 L52,-5 L166,90 Q207,42 266,14.5 Q325,-13 398,-13 M180,159 Q150,216 150,288 Q150,360 177,428 Q204,496 251,548.5 Q298,601 361.5,633 Q425,665 499,665 Q559,665 607,643 Q655,621 688,583 M398,34 Q335,34 285.5,57 Q236,80 204,122 L713,547 Q747,487 747,411 Q747,339 720,271 Q693,203 646,150.5 Q599,98 535.5,66 Q472,34 398,34"/> 
            <glyph glyph-name="Ù" unicode="&#xD9;" horiz-adv-x="782" d=" M348,-11 Q409,-11 462.5,11.5 Q516,34 559,77 Q596,114 624,165 Q652,216 670,283 L782,700 L730,700 L621,294 Q604,230 578,183.5 Q552,137 523,108 Q487,72 443,54 Q399,36 352,36 Q299,36 260.5,49.5 Q222,63 197,87 Q172,111 159.5,143 Q147,175 147,213 Q147,236 149.5,257 Q152,278 156,293 L264,700 L212,700 L110,317 Q103,291 99.5,264.5 Q96,238 96,209 Q96,162 111.5,122 Q127,82 158.5,52.5 Q190,23 237.5,6 Q285,-11 348,-11 M506,765 L541,765 L489,898 L427,868"/> 
            <glyph glyph-name="Ú" unicode="&#xDA;" horiz-adv-x="782" d=" M348,-11 Q409,-11 462.5,11.5 Q516,34 559,77 Q596,114 624,165 Q652,216 670,283 L782,700 L730,700 L621,294 Q604,230 578,183.5 Q552,137 523,108 Q487,72 443,54 Q399,36 352,36 Q299,36 260.5,49.5 Q222,63 197,87 Q172,111 159.5,143 Q147,175 147,213 Q147,236 149.5,257 Q152,278 156,293 L264,700 L212,700 L110,317 Q103,291 99.5,264.5 Q96,238 96,209 Q96,162 111.5,122 Q127,82 158.5,52.5 Q190,23 237.5,6 Q285,-11 348,-11 M439,765 L490,765 L625,868 L563,898"/> 
            <glyph glyph-name="Û" unicode="&#xDB;" horiz-adv-x="782" d=" M348,-11 Q409,-11 462.5,11.5 Q516,34 559,77 Q596,114 624,165 Q652,216 670,283 L782,700 L730,700 L621,294 Q604,230 578,183.5 Q552,137 523,108 Q487,72 443,54 Q399,36 352,36 Q299,36 260.5,49.5 Q222,63 197,87 Q172,111 159.5,143 Q147,175 147,213 Q147,236 149.5,257 Q152,278 156,293 L264,700 L212,700 L110,317 Q103,291 99.5,264.5 Q96,238 96,209 Q96,162 111.5,122 Q127,82 158.5,52.5 Q190,23 237.5,6 Q285,-11 348,-11 M387,765 L435,765 L531,833 L583,765 L627,765 L560,887 L520,887"/> 
            <glyph glyph-name="Ü" unicode="&#xDC;" horiz-adv-x="782" d=" M348,-11 Q409,-11 462.5,11.5 Q516,34 559,77 Q596,114 624,165 Q652,216 670,283 L782,700 L730,700 L621,294 Q604,230 578,183.5 Q552,137 523,108 Q487,72 443,54 Q399,36 352,36 Q299,36 260.5,49.5 Q222,63 197,87 Q172,111 159.5,143 Q147,175 147,213 Q147,236 149.5,257 Q152,278 156,293 L264,700 L212,700 L110,317 Q103,291 99.5,264.5 Q96,238 96,209 Q96,162 111.5,122 Q127,82 158.5,52.5 Q190,23 237.5,6 Q285,-11 348,-11 M555,765 L624,765 L646,845 L577,845 M392,765 L461,765 L483,845 L414,845"/> 
            <glyph glyph-name="Ý" unicode="&#xDD;" horiz-adv-x="779" d=" M234,0 L286,0 L358,271 L779,700 L709,700 L345,324 L184,700 L127,700 L310,284 M395,765 L446,765 L581,868 L519,898"/> 
            <glyph glyph-name="Þ" unicode="&#xDE;" horiz-adv-x="649" d=" M36,0 L88,0 L125,135 L303,135 Q382,135 446,151.5 Q510,168 555,200 Q600,232 624.5,278.5 Q649,325 649,385 Q649,462 601,510 Q569,542 520,557.5 Q471,573 408,573 L242,573 L275,700 L224,700 M137,182 L229,525 L407,525 Q512,525 561,476 Q597,440 597,383 Q597,286 522,234 Q447,182 305,182"/> 
            <glyph glyph-name="ß" unicode="&#xDF;" horiz-adv-x="599" d=" M220,-2 Q297,-3 357.5,12.5 Q418,28 460,55.5 Q502,83 524,120 Q546,157 546,201 Q546,235 533.5,261.5 Q521,288 499.5,308.5 Q478,329 449,342.5 Q420,356 387,365 Q430,377 468.5,394.5 Q507,412 536,437.5 Q565,463 582,497 Q599,531 599,576 Q599,611 585,640.5 Q571,670 546,691.5 Q521,713 486.5,725 Q452,737 412,737 Q364,737 322,719 Q280,701 246,667 Q217,638 195,594.5 Q173,551 159,500 L25,0 L74,0 L204,485 Q230,582 282,636.5 Q334,691 408,691 Q474,691 510,658 Q546,625 546,574 Q546,508 494,461.5 Q442,415 324,387 L312,342 Q399,326 446,292.5 Q493,259 493,202 Q493,171 478,142.5 Q463,114 431.5,92 Q400,70 350.5,56.5 Q301,43 232,42"/> 
            <glyph glyph-name="à" unicode="&#xE0;" horiz-adv-x="508" d=" M190,-12 Q257,-12 307.5,16 Q358,44 395,88 L372,0 L420,0 L498,292 Q503,309 505.5,327 Q508,345 508,359 Q508,433 456,475.5 Q404,518 310,518 Q262,518 224.5,510.5 Q187,503 149,489 L158,445 Q195,458 229.5,465 Q264,472 306,472 Q381,472 420.5,441 Q460,410 460,352 Q460,341 458,326.5 Q456,312 453,301 L449,287 Q411,298 359.5,307 Q308,316 253,316 Q203,316 160.5,303 Q118,290 87.5,266 Q57,242 40,207.5 Q23,173 23,131 Q23,95 37,68.5 Q51,42 74.5,24 Q98,6 128,-3 Q158,-12 190,-12 M199,33 Q142,33 108.5,61 Q75,89 75,137 Q75,167 87.5,191.5 Q100,216 122.5,234 Q145,252 176.5,262 Q208,272 246,272 Q303,272 351.5,265 Q400,258 439,248 L427,203 Q416,164 393,133 Q370,102 338.5,79.5 Q307,57 271,45 Q235,33 199,33 M620,595 L655,595 L603,728 L541,698"/> 
            <glyph glyph-name="á" unicode="&#xE1;" horiz-adv-x="508" d=" M190,-12 Q257,-12 307.5,16 Q358,44 395,88 L372,0 L420,0 L498,292 Q503,309 505.5,327 Q508,345 508,359 Q508,433 456,475.5 Q404,518 310,518 Q262,518 224.5,510.5 Q187,503 149,489 L158,445 Q195,458 229.5,465 Q264,472 306,472 Q381,472 420.5,441 Q460,410 460,352 Q460,341 458,326.5 Q456,312 453,301 L449,287 Q411,298 359.5,307 Q308,316 253,316 Q203,316 160.5,303 Q118,290 87.5,266 Q57,242 40,207.5 Q23,173 23,131 Q23,95 37,68.5 Q51,42 74.5,24 Q98,6 128,-3 Q158,-12 190,-12 M199,33 Q142,33 108.5,61 Q75,89 75,137 Q75,167 87.5,191.5 Q100,216 122.5,234 Q145,252 176.5,262 Q208,272 246,272 Q303,272 351.5,265 Q400,258 439,248 L427,203 Q416,164 393,133 Q370,102 338.5,79.5 Q307,57 271,45 Q235,33 199,33 M301,595 L352,595 L487,698 L425,728"/> 
            <glyph glyph-name="â" unicode="&#xE2;" horiz-adv-x="508" d=" M190,-12 Q257,-12 307.5,16 Q358,44 395,88 L372,0 L420,0 L498,292 Q503,309 505.5,327 Q508,345 508,359 Q508,433 456,475.5 Q404,518 310,518 Q262,518 224.5,510.5 Q187,503 149,489 L158,445 Q195,458 229.5,465 Q264,472 306,472 Q381,472 420.5,441 Q460,410 460,352 Q460,341 458,326.5 Q456,312 453,301 L449,287 Q411,298 359.5,307 Q308,316 253,316 Q203,316 160.5,303 Q118,290 87.5,266 Q57,242 40,207.5 Q23,173 23,131 Q23,95 37,68.5 Q51,42 74.5,24 Q98,6 128,-3 Q158,-12 190,-12 M199,33 Q142,33 108.5,61 Q75,89 75,137 Q75,167 87.5,191.5 Q100,216 122.5,234 Q145,252 176.5,262 Q208,272 246,272 Q303,272 351.5,265 Q400,258 439,248 L427,203 Q416,164 393,133 Q370,102 338.5,79.5 Q307,57 271,45 Q235,33 199,33 M246,595 L294,595 L390,663 L442,595 L486,595 L419,717 L379,717"/> 
            <glyph glyph-name="ã" unicode="&#xE3;" horiz-adv-x="536" d=" M190,-12 Q257,-12 307.5,16 Q358,44 395,88 L372,0 L420,0 L498,292 Q503,309 505.5,327 Q508,345 508,359 Q508,433 456,475.5 Q404,518 310,518 Q262,518 224.5,510.5 Q187,503 149,489 L158,445 Q195,458 229.5,465 Q264,472 306,472 Q381,472 420.5,441 Q460,410 460,352 Q460,341 458,326.5 Q456,312 453,301 L449,287 Q411,298 359.5,307 Q308,316 253,316 Q203,316 160.5,303 Q118,290 87.5,266 Q57,242 40,207.5 Q23,173 23,131 Q23,95 37,68.5 Q51,42 74.5,24 Q98,6 128,-3 Q158,-12 190,-12 M199,33 Q142,33 108.5,61 Q75,89 75,137 Q75,167 87.5,191.5 Q100,216 122.5,234 Q145,252 176.5,262 Q208,272 246,272 Q303,272 351.5,265 Q400,258 439,248 L427,203 Q416,164 393,133 Q370,102 338.5,79.5 Q307,57 271,45 Q235,33 199,33 M258,593 Q275,623 288,638 Q301,653 317,653 Q330,653 339,646 Q348,639 365,623 Q382,607 395.5,597.5 Q409,588 432,588 Q464,588 488,611.5 Q512,635 536,684 L498,699 Q481,669 468,654 Q455,639 439,639 Q426,639 417,646 Q408,653 391,669 Q374,685 360.5,694.5 Q347,704 324,704 Q292,704 268,680.5 Q244,657 220,608"/> 
            <glyph glyph-name="ä" unicode="&#xE4;" horiz-adv-x="508" d=" M190,-12 Q257,-12 307.5,16 Q358,44 395,88 L372,0 L420,0 L498,292 Q503,309 505.5,327 Q508,345 508,359 Q508,433 456,475.5 Q404,518 310,518 Q262,518 224.5,510.5 Q187,503 149,489 L158,445 Q195,458 229.5,465 Q264,472 306,472 Q381,472 420.5,441 Q460,410 460,352 Q460,341 458,326.5 Q456,312 453,301 L449,287 Q411,298 359.5,307 Q308,316 253,316 Q203,316 160.5,303 Q118,290 87.5,266 Q57,242 40,207.5 Q23,173 23,131 Q23,95 37,68.5 Q51,42 74.5,24 Q98,6 128,-3 Q158,-12 190,-12 M199,33 Q142,33 108.5,61 Q75,89 75,137 Q75,167 87.5,191.5 Q100,216 122.5,234 Q145,252 176.5,262 Q208,272 246,272 Q303,272 351.5,265 Q400,258 439,248 L427,203 Q416,164 393,133 Q370,102 338.5,79.5 Q307,57 271,45 Q235,33 199,33 M411,595 L480,595 L502,675 L433,675 M248,595 L317,595 L339,675 L270,675"/> 
            <glyph glyph-name="å" unicode="&#xE5;" horiz-adv-x="508" d=" M190,-12 Q257,-12 307.5,16 Q358,44 395,88 L372,0 L420,0 L498,292 Q503,309 505.5,327 Q508,345 508,359 Q508,433 456,475.5 Q404,518 310,518 Q262,518 224.5,510.5 Q187,503 149,489 L158,445 Q195,458 229.5,465 Q264,472 306,472 Q381,472 420.5,441 Q460,410 460,352 Q460,341 458,326.5 Q456,312 453,301 L449,287 Q411,298 359.5,307 Q308,316 253,316 Q203,316 160.5,303 Q118,290 87.5,266 Q57,242 40,207.5 Q23,173 23,131 Q23,95 37,68.5 Q51,42 74.5,24 Q98,6 128,-3 Q158,-12 190,-12 M199,33 Q142,33 108.5,61 Q75,89 75,137 Q75,167 87.5,191.5 Q100,216 122.5,234 Q145,252 176.5,262 Q208,272 246,272 Q303,272 351.5,265 Q400,258 439,248 L427,203 Q416,164 393,133 Q370,102 338.5,79.5 Q307,57 271,45 Q235,33 199,33 M384,595 Q405,595 424.5,603 Q444,611 458.5,624.5 Q473,638 481.5,657 Q490,676 490,697 Q490,732 463.5,755.5 Q437,779 394,779 Q373,779 353.5,771 Q334,763 319.5,749.5 Q305,736 296.5,717 Q288,698 288,677 Q288,642 314.5,618.5 Q341,595 384,595 M384,627 Q355,627 339.5,641 Q324,655 324,677 Q324,706 344.5,726.5 Q365,747 394,747 Q423,747 438.5,733 Q454,719 454,697 Q454,668 433.5,647.5 Q413,627 384,627"/> 
            <glyph glyph-name="æ" unicode="&#xE6;" horiz-adv-x="922" d=" M455,113 Q478,57 529.5,22.5 Q581,-12 659,-12 Q722,-12 770.5,11 Q819,34 859,67 L830,102 Q793,72 753.5,53 Q714,34 656,34 Q618,34 587,46 Q556,58 534,80.5 Q512,103 499.5,134 Q487,165 487,204 Q487,212 487.5,221 Q488,230 489,238 L908,238 Q922,278 922,327 Q922,366 910,401.5 Q898,437 873.5,464 Q849,491 813,506.5 Q777,522 729,522 Q660,522 602,486.5 Q544,451 504,397 Q491,454 441,486 Q391,518 310,518 Q262,518 224.5,510.5 Q187,503 149,489 L158,445 Q195,458 229.5,465 Q264,472 306,472 Q381,472 420.5,441 Q460,410 460,352 Q460,341 458,326.5 Q456,312 453,301 L449,287 Q412,298 361,307 Q310,316 257,316 Q207,316 164,303.5 Q121,291 89.5,267.5 Q58,244 40.5,211 Q23,178 23,136 Q23,100 36.5,72 Q50,44 74,25.5 Q98,7 130.5,-2.5 Q163,-12 200,-12 Q272,-12 337.5,23.5 Q403,59 455,113 M498,282 Q509,321 530,356.5 Q551,392 581,419 Q611,446 648,461.5 Q685,477 728,477 Q765,477 792,464.5 Q819,452 837,431 Q855,410 863.5,382.5 Q872,355 872,324 Q872,310 871,299.5 Q870,289 868,282 M441,249 Q438,228 438,206 Q438,194 439,181.5 Q440,169 442,158 Q388,99 328.5,66 Q269,33 204,33 Q142,33 108.5,62.5 Q75,92 75,142 Q75,170 88,194 Q101,218 124,235 Q147,252 179.5,262 Q212,272 250,272 Q301,272 353.5,265.5 Q406,259 441,249"/> 
            <glyph glyph-name="ç" unicode="&#xE7;" horiz-adv-x="550" d=" M226,-8 L118,-122 L166,-148 L269,-12 L272,-12 Q335,-12 384.5,12.5 Q434,37 473,75 L440,107 Q405,74 365,54 Q325,34 275,34 Q242,34 211,45.5 Q180,57 156,79.5 Q132,102 117.5,135 Q103,168 103,211 Q103,263 123,311 Q143,359 176.5,396 Q210,433 254,454.5 Q298,476 347,476 Q379,476 404,468 Q429,460 448.5,446.5 Q468,433 482.5,414.5 Q497,396 509,376 L550,399 Q538,423 520,445 Q502,467 477.5,484.5 Q453,502 421,512 Q389,522 350,522 Q290,522 235.5,496.5 Q181,471 139.5,427.5 Q98,384 74,327.5 Q50,271 50,208 Q50,163 64.5,126 Q79,89 103,61.5 Q127,34 159,16.5 Q191,-1 226,-8"/> 
            <glyph glyph-name="è" unicode="&#xE8;" horiz-adv-x="538" d=" M105,238 L524,238 Q538,278 538,327 Q538,366 526,401.5 Q514,437 489.5,464 Q465,491 429,506.5 Q393,522 345,522 Q283,522 229,494.5 Q175,467 135,422 Q95,377 72.5,319.5 Q50,262 50,202 Q50,155 66.5,115.5 Q83,76 112.5,47.5 Q142,19 182.5,3.5 Q223,-12 272,-12 Q341,-12 388,11 Q435,34 475,67 L446,102 Q409,72 369.5,53 Q330,34 272,34 Q234,34 203,46 Q172,58 150,80.5 Q128,103 115.5,134 Q103,165 103,204 Q103,212 103.5,221 Q104,230 105,238 M114,282 Q125,321 146,356.5 Q167,392 197,419 Q227,446 264,461.5 Q301,477 344,477 Q381,477 408,464.5 Q435,452 453,431 Q471,410 479.5,382.5 Q488,355 488,324 Q488,310 487,299.5 Q486,289 484,282 M368,595 L403,595 L351,728 L289,698"/> 
            <glyph glyph-name="é" unicode="&#xE9;" horiz-adv-x="538" d=" M105,238 L524,238 Q538,278 538,327 Q538,366 526,401.5 Q514,437 489.5,464 Q465,491 429,506.5 Q393,522 345,522 Q283,522 229,494.5 Q175,467 135,422 Q95,377 72.5,319.5 Q50,262 50,202 Q50,155 66.5,115.5 Q83,76 112.5,47.5 Q142,19 182.5,3.5 Q223,-12 272,-12 Q341,-12 388,11 Q435,34 475,67 L446,102 Q409,72 369.5,53 Q330,34 272,34 Q234,34 203,46 Q172,58 150,80.5 Q128,103 115.5,134 Q103,165 103,204 Q103,212 103.5,221 Q104,230 105,238 M114,282 Q125,321 146,356.5 Q167,392 197,419 Q227,446 264,461.5 Q301,477 344,477 Q381,477 408,464.5 Q435,452 453,431 Q471,410 479.5,382.5 Q488,355 488,324 Q488,310 487,299.5 Q486,289 484,282 M310,595 L361,595 L496,698 L434,728"/> 
            <glyph glyph-name="ê" unicode="&#xEA;" horiz-adv-x="538" d=" M105,238 L524,238 Q538,278 538,327 Q538,366 526,401.5 Q514,437 489.5,464 Q465,491 429,506.5 Q393,522 345,522 Q283,522 229,494.5 Q175,467 135,422 Q95,377 72.5,319.5 Q50,262 50,202 Q50,155 66.5,115.5 Q83,76 112.5,47.5 Q142,19 182.5,3.5 Q223,-12 272,-12 Q341,-12 388,11 Q435,34 475,67 L446,102 Q409,72 369.5,53 Q330,34 272,34 Q234,34 203,46 Q172,58 150,80.5 Q128,103 115.5,134 Q103,165 103,204 Q103,212 103.5,221 Q104,230 105,238 M114,282 Q125,321 146,356.5 Q167,392 197,419 Q227,446 264,461.5 Q301,477 344,477 Q381,477 408,464.5 Q435,452 453,431 Q471,410 479.5,382.5 Q488,355 488,324 Q488,310 487,299.5 Q486,289 484,282 M244,595 L292,595 L388,663 L440,595 L484,595 L417,717 L377,717"/> 
            <glyph glyph-name="ë" unicode="&#xEB;" horiz-adv-x="538" d=" M105,238 L524,238 Q538,278 538,327 Q538,366 526,401.5 Q514,437 489.5,464 Q465,491 429,506.5 Q393,522 345,522 Q283,522 229,494.5 Q175,467 135,422 Q95,377 72.5,319.5 Q50,262 50,202 Q50,155 66.5,115.5 Q83,76 112.5,47.5 Q142,19 182.5,3.5 Q223,-12 272,-12 Q341,-12 388,11 Q435,34 475,67 L446,102 Q409,72 369.5,53 Q330,34 272,34 Q234,34 203,46 Q172,58 150,80.5 Q128,103 115.5,134 Q103,165 103,204 Q103,212 103.5,221 Q104,230 105,238 M114,282 Q125,321 146,356.5 Q167,392 197,419 Q227,446 264,461.5 Q301,477 344,477 Q381,477 408,464.5 Q435,452 453,431 Q471,410 479.5,382.5 Q488,355 488,324 Q488,310 487,299.5 Q486,289 484,282 M415,595 L484,595 L506,675 L437,675 M252,595 L321,595 L343,675 L274,675"/> 
            <glyph glyph-name="ì" unicode="&#xEC;" horiz-adv-x="218" d=" M32,0 L81,0 L218,510 L169,510 M65717,595 L65752,595 L65700,728 L65638,698"/> 
            <glyph glyph-name="í" unicode="&#xED;" horiz-adv-x="368" d=" M32,0 L81,0 L218,510 L169,510 M438,595 L489,595 L624,698 L562,728"/> 
            <glyph glyph-name="î" unicode="&#xEE;" horiz-adv-x="328" d=" M32,0 L81,0 L218,510 L169,510 M65624,595 L65672,595 L65768,663 L65820,595 L65864,595 L65797,717 L65757,717"/> 
            <glyph glyph-name="ï" unicode="&#xEF;" horiz-adv-x="351" d=" M32,0 L81,0 L218,510 L169,510 M516,595 L585,595 L607,675 L538,675 M353,595 L422,595 L444,675 L375,675"/> 
            <glyph glyph-name="ð" unicode="&#xF0;" horiz-adv-x="567" d=" M271,-11 Q336,-11 390.5,13.5 Q445,38 484,78 Q523,118 545,169 Q567,220 567,274 Q567,295 564.5,316 Q562,337 556,359.5 Q550,382 541,407.5 Q532,433 520,464 L447,648 L563,699 L541,739 L430,690 L414,730 L355,730 L381,669 L223,599 L245,559 L399,627 L481,432 Q456,453 419,469 Q382,485 327,485 Q273,485 222.5,463 Q172,441 133,402.5 Q94,364 70.5,312.5 Q47,261 47,202 Q47,157 64,118 Q81,79 111,50.5 Q141,22 182,5.5 Q223,-11 271,-11 M276,35 Q238,35 205.5,47 Q173,59 149.5,81 Q126,103 113,134.5 Q100,166 100,205 Q100,253 118,295.5 Q136,338 167.5,370.5 Q199,403 240,422 Q281,441 328,441 Q372,441 406.5,427.5 Q441,414 465,390.5 Q489,367 501.5,336.5 Q514,306 514,272 Q514,223 495,180 Q476,137 443.5,104.5 Q411,72 367.5,53.5 Q324,35 276,35"/> 
            <glyph glyph-name="ñ" unicode="&#xF1;" horiz-adv-x="556" d=" M25,0 L74,0 L151,288 Q162,330 184.5,364.5 Q207,399 236,424.5 Q265,450 298,464 Q331,478 364,478 Q425,478 460,445 Q495,412 495,355 Q495,341 493,323.5 Q491,306 487,292 L409,0 L458,0 L534,288 Q539,306 542,324.5 Q545,343 545,360 Q545,434 499.5,478 Q454,522 378,522 Q346,522 318.5,513.5 Q291,505 268,491 Q245,477 224.5,457 Q204,437 185,415 L210,510 L161,510 M278,593 Q295,623 308,638 Q321,653 337,653 Q350,653 359,646 Q368,639 385,623 Q402,607 415.5,597.5 Q429,588 452,588 Q484,588 508,611.5 Q532,635 556,684 L518,699 Q501,669 488,654 Q475,639 459,639 Q446,639 437,646 Q428,653 411,669 Q394,685 380.5,694.5 Q367,704 344,704 Q312,704 288,680.5 Q264,657 240,608"/> 
            <glyph glyph-name="ò" unicode="&#xF2;" horiz-adv-x="581" d=" M278,-12 Q337,-12 392,13 Q447,38 489,80 Q531,122 556,178 Q581,234 581,296 Q581,345 564.5,386.5 Q548,428 518,458 Q488,488 446.5,505 Q405,522 354,522 Q293,522 238,496.5 Q183,471 141.5,428.5 Q100,386 75.5,330 Q51,274 51,214 Q51,165 67.5,123.5 Q84,82 114,52 Q144,22 185.5,5 Q227,-12 278,-12 M283,34 Q203,34 153.5,81.5 Q104,129 104,216 Q104,267 124,314 Q144,361 178,397 Q212,433 256.5,454.5 Q301,476 349,476 Q429,476 478.5,428.5 Q528,381 528,294 Q528,241 507,194 Q486,147 452,111.5 Q418,76 373.5,55 Q329,34 283,34 M378,595 L413,595 L361,728 L299,698"/> 
            <glyph glyph-name="ó" unicode="&#xF3;" horiz-adv-x="581" d=" M278,-12 Q337,-12 392,13 Q447,38 489,80 Q531,122 556,178 Q581,234 581,296 Q581,345 564.5,386.5 Q548,428 518,458 Q488,488 446.5,505 Q405,522 354,522 Q293,522 238,496.5 Q183,471 141.5,428.5 Q100,386 75.5,330 Q51,274 51,214 Q51,165 67.5,123.5 Q84,82 114,52 Q144,22 185.5,5 Q227,-12 278,-12 M283,34 Q203,34 153.5,81.5 Q104,129 104,216 Q104,267 124,314 Q144,361 178,397 Q212,433 256.5,454.5 Q301,476 349,476 Q429,476 478.5,428.5 Q528,381 528,294 Q528,241 507,194 Q486,147 452,111.5 Q418,76 373.5,55 Q329,34 283,34 M322,595 L373,595 L508,698 L446,728"/> 
            <glyph glyph-name="ô" unicode="&#xF4;" horiz-adv-x="581" d=" M278,-12 Q337,-12 392,13 Q447,38 489,80 Q531,122 556,178 Q581,234 581,296 Q581,345 564.5,386.5 Q548,428 518,458 Q488,488 446.5,505 Q405,522 354,522 Q293,522 238,496.5 Q183,471 141.5,428.5 Q100,386 75.5,330 Q51,274 51,214 Q51,165 67.5,123.5 Q84,82 114,52 Q144,22 185.5,5 Q227,-12 278,-12 M283,34 Q203,34 153.5,81.5 Q104,129 104,216 Q104,267 124,314 Q144,361 178,397 Q212,433 256.5,454.5 Q301,476 349,476 Q429,476 478.5,428.5 Q528,381 528,294 Q528,241 507,194 Q486,147 452,111.5 Q418,76 373.5,55 Q329,34 283,34 M278,595 L326,595 L422,663 L474,595 L518,595 L451,717 L411,717"/> 
            <glyph glyph-name="õ" unicode="&#xF5;" horiz-adv-x="581" d=" M278,-12 Q337,-12 392,13 Q447,38 489,80 Q531,122 556,178 Q581,234 581,296 Q581,345 564.5,386.5 Q548,428 518,458 Q488,488 446.5,505 Q405,522 354,522 Q293,522 238,496.5 Q183,471 141.5,428.5 Q100,386 75.5,330 Q51,274 51,214 Q51,165 67.5,123.5 Q84,82 114,52 Q144,22 185.5,5 Q227,-12 278,-12 M283,34 Q203,34 153.5,81.5 Q104,129 104,216 Q104,267 124,314 Q144,361 178,397 Q212,433 256.5,454.5 Q301,476 349,476 Q429,476 478.5,428.5 Q528,381 528,294 Q528,241 507,194 Q486,147 452,111.5 Q418,76 373.5,55 Q329,34 283,34 M282,593 Q299,623 312,638 Q325,653 341,653 Q354,653 363,646 Q372,639 389,623 Q406,607 419.5,597.5 Q433,588 456,588 Q488,588 512,611.5 Q536,635 560,684 L522,699 Q505,669 492,654 Q479,639 463,639 Q450,639 441,646 Q432,653 415,669 Q398,685 384.5,694.5 Q371,704 348,704 Q316,704 292,680.5 Q268,657 244,608"/> 
            <glyph glyph-name="ö" unicode="&#xF6;" horiz-adv-x="581" d=" M278,-12 Q337,-12 392,13 Q447,38 489,80 Q531,122 556,178 Q581,234 581,296 Q581,345 564.5,386.5 Q548,428 518,458 Q488,488 446.5,505 Q405,522 354,522 Q293,522 238,496.5 Q183,471 141.5,428.5 Q100,386 75.5,330 Q51,274 51,214 Q51,165 67.5,123.5 Q84,82 114,52 Q144,22 185.5,5 Q227,-12 278,-12 M283,34 Q203,34 153.5,81.5 Q104,129 104,216 Q104,267 124,314 Q144,361 178,397 Q212,433 256.5,454.5 Q301,476 349,476 Q429,476 478.5,428.5 Q528,381 528,294 Q528,241 507,194 Q486,147 452,111.5 Q418,76 373.5,55 Q329,34 283,34 M432,595 L501,595 L523,675 L454,675 M269,595 L338,595 L360,675 L291,675"/> 
            <glyph glyph-name="ø" unicode="&#xF8;" horiz-adv-x="669" d=" M278,-12 Q337,-12 392,13 Q447,38 489,80 Q531,122 556,178 Q581,234 581,296 Q581,366 549,419 L669,517 L602,517 L523,453 Q493,485 450.5,503.5 Q408,522 354,522 Q293,522 238,496.5 Q183,471 141.5,428.5 Q100,386 75.5,330 Q51,274 51,214 Q51,144 83,91 L-35,-5 L32,-5 L109,58 Q139,26 181.5,7 Q224,-12 278,-12 M123,124 Q114,144 109,166.5 Q104,189 104,216 Q104,267 124,314 Q144,361 178,397 Q212,433 256.5,454.5 Q301,476 349,476 Q437,476 486,422 M283,34 Q194,34 146,88 L509,386 Q518,366 523,343.5 Q528,321 528,294 Q528,241 507,194 Q486,147 452,111.5 Q418,76 373.5,55 Q329,34 283,34"/> 
            <glyph glyph-name="ù" unicode="&#xF9;" horiz-adv-x="584" d=" M231,-12 Q263,-12 290.5,-3.5 Q318,5 341,19 Q364,33 384.5,52.5 Q405,72 424,95 L399,0 L448,0 L584,510 L535,510 L458,222 Q447,180 424.5,145.5 Q402,111 373,85.5 Q344,60 311,46 Q278,32 245,32 Q184,32 149,65 Q114,98 114,155 Q114,169 116,186.5 Q118,204 122,218 L200,510 L151,510 L75,222 Q70,204 67,185.5 Q64,167 64,150 Q64,76 109.5,32 Q155,-12 231,-12 M370,595 L405,595 L353,728 L291,698"/> 
            <glyph glyph-name="ú" unicode="&#xFA;" horiz-adv-x="584" d=" M231,-12 Q263,-12 290.5,-3.5 Q318,5 341,19 Q364,33 384.5,52.5 Q405,72 424,95 L399,0 L448,0 L584,510 L535,510 L458,222 Q447,180 424.5,145.5 Q402,111 373,85.5 Q344,60 311,46 Q278,32 245,32 Q184,32 149,65 Q114,98 114,155 Q114,169 116,186.5 Q118,204 122,218 L200,510 L151,510 L75,222 Q70,204 67,185.5 Q64,167 64,150 Q64,76 109.5,32 Q155,-12 231,-12 M330,595 L381,595 L516,698 L454,728"/> 
            <glyph glyph-name="û" unicode="&#xFB;" horiz-adv-x="584" d=" M231,-12 Q263,-12 290.5,-3.5 Q318,5 341,19 Q364,33 384.5,52.5 Q405,72 424,95 L399,0 L448,0 L584,510 L535,510 L458,222 Q447,180 424.5,145.5 Q402,111 373,85.5 Q344,60 311,46 Q278,32 245,32 Q184,32 149,65 Q114,98 114,155 Q114,169 116,186.5 Q118,204 122,218 L200,510 L151,510 L75,222 Q70,204 67,185.5 Q64,167 64,150 Q64,76 109.5,32 Q155,-12 231,-12 M263,595 L311,595 L407,663 L459,595 L503,595 L436,717 L396,717"/> 
            <glyph glyph-name="ü" unicode="&#xFC;" horiz-adv-x="584" d=" M231,-12 Q263,-12 290.5,-3.5 Q318,5 341,19 Q364,33 384.5,52.5 Q405,72 424,95 L399,0 L448,0 L584,510 L535,510 L458,222 Q447,180 424.5,145.5 Q402,111 373,85.5 Q344,60 311,46 Q278,32 245,32 Q184,32 149,65 Q114,98 114,155 Q114,169 116,186.5 Q118,204 122,218 L200,510 L151,510 L75,222 Q70,204 67,185.5 Q64,167 64,150 Q64,76 109.5,32 Q155,-12 231,-12 M431,595 L500,595 L522,675 L453,675 M268,595 L337,595 L359,675 L290,675"/> 
            <glyph glyph-name="ý" unicode="&#xFD;" horiz-adv-x="592" d=" M20,-163 Q75,-163 124,-130.5 Q173,-98 229,-18 L592,510 L533,510 L226,54 L137,510 L85,510 L189,3 Q142,-65 103.5,-91 Q65,-117 26,-117 Q6,-117 -19.5,-109 Q-45,-101 -61,-88 L-88,-128 Q-38,-163 20,-163 M295,595 L346,595 L481,698 L419,728"/> 
            <glyph glyph-name="þ" unicode="&#xFE;" horiz-adv-x="600" d=" M-18,-160 L31,-160 L109,130 Q119,103 136,77 Q153,51 177.5,31 Q202,11 235.5,-1 Q269,-13 312,-13 Q369,-13 421,11.5 Q473,36 513,79 Q553,122 576.5,180.5 Q600,239 600,307 Q600,354 584.5,393.5 Q569,433 541.5,461.5 Q514,490 476.5,506 Q439,522 395,522 Q327,522 274,489 Q221,456 183,410 L270,730 L221,730 M310,33 Q271,33 238.5,47 Q206,61 182.5,85 Q159,109 146.5,141.5 Q134,174 134,211 Q134,262 156,310 Q178,358 214,394.5 Q250,431 295.5,453.5 Q341,476 389,476 Q424,476 453,463.5 Q482,451 503,428 Q524,405 535.5,372.5 Q547,340 547,301 Q547,248 529.5,199.5 Q512,151 480.5,114 Q449,77 405.5,55 Q362,33 310,33"/> 
            <glyph glyph-name="ÿ" unicode="&#xFF;" horiz-adv-x="592" d=" M20,-163 Q75,-163 124,-130.5 Q173,-98 229,-18 L592,510 L533,510 L226,54 L137,510 L85,510 L189,3 Q142,-65 103.5,-91 Q65,-117 26,-117 Q6,-117 -19.5,-109 Q-45,-101 -61,-88 L-88,-128 Q-38,-163 20,-163 M405,595 L474,595 L496,675 L427,675 M242,595 L311,595 L333,675 L264,675"/> 
            <glyph glyph-name="ı" unicode="&#x131;" horiz-adv-x="218" d=" M32,0 L81,0 L218,510 L169,510"/> 
            <glyph glyph-name="Ł" unicode="&#x141;" horiz-adv-x="562" d=" M86,0 L549,0 L562,48 L151,48 L227,332 L470,401 L483,449 L240,380 L326,700 L274,700 L184,364 L103,341 L91,293 L171,316"/> 
            <glyph glyph-name="ł" unicode="&#x142;" horiz-adv-x="307" d=" M62,0 L111,0 L205,350 L288,374 L302,424 L218,400 L307,730 L258,730 L165,385 L84,362 L71,312 L152,335"/> 
            <glyph glyph-name="Œ" unicode="&#x152;" horiz-adv-x="1206" d=" M441,0 L1023,0 L1036,48 L601,48 L676,329 L1061,329 L1074,377 L689,377 L763,652 L1193,652 L1206,700 L557,700 Q448,700 356,664 Q264,628 201,565 Q148,512 120,443.5 Q92,375 92,294 Q92,229 112,180 Q132,131 169,94 Q217,46 288,23 Q359,0 441,0 M444,48 Q369,48 309.5,68 Q250,88 211,127 Q180,158 163,201 Q146,244 146,298 Q146,368 170.5,427.5 Q195,487 240,532 Q298,590 376.5,621 Q455,652 550,652 L711,652 L549,48"/> 
            <glyph glyph-name="œ" unicode="&#x153;" horiz-adv-x="1003" d=" M570,238 L989,238 Q1003,278 1003,327 Q1003,366 991,401.5 Q979,437 954.5,464 Q930,491 894,506.5 Q858,522 810,522 Q765,522 727,508.5 Q689,495 658.5,472.5 Q628,450 604.5,420.5 Q581,391 564,359 Q556,392 539,422 Q522,452 495.5,474 Q469,496 433.5,509 Q398,522 354,522 Q293,522 238,496.5 Q183,471 141.5,428.5 Q100,386 75.5,330 Q51,274 51,214 Q51,165 67.5,123.5 Q84,82 114,52 Q144,22 185,5 Q226,-12 275,-12 Q319,-12 357.5,0.5 Q396,13 427.5,34.5 Q459,56 484.5,84 Q510,112 529,143 Q545,73 601.5,30.5 Q658,-12 740,-12 Q803,-12 851.5,11 Q900,34 940,67 L911,102 Q874,72 834.5,53 Q795,34 737,34 Q699,34 668,46 Q637,58 615,80.5 Q593,103 580.5,134 Q568,165 568,204 Q568,212 568.5,221 Q569,230 570,238 M579,282 Q590,321 611,356.5 Q632,392 662,419 Q692,446 729,461.5 Q766,477 809,477 Q846,477 873,464.5 Q900,452 918,431 Q936,410 944.5,382.5 Q953,355 953,324 Q953,310 952,299.5 Q951,289 949,282 M283,34 Q203,34 153.5,81.5 Q104,129 104,216 Q104,267 124,314 Q144,361 178,397 Q212,433 256.5,454.5 Q301,476 349,476 Q429,476 478.5,428 Q528,380 528,289 Q528,238 507,192 Q486,146 452,110.5 Q418,75 373.5,54.5 Q329,34 283,34"/> 
            <glyph glyph-name="Š" unicode="&#x160;" horiz-adv-x="647" d=" M299,-10 Q355,-10 403,6 Q451,22 485.5,49.5 Q520,77 539.5,114 Q559,151 559,194 Q559,226 548,252 Q537,278 514.5,300 Q492,322 457,341 Q422,360 373,378 Q330,394 298.5,409.5 Q267,425 246.5,441.5 Q226,458 216,477.5 Q206,497 206,521 Q206,549 219.5,574.5 Q233,600 257.5,619.5 Q282,639 318,651 Q354,663 399,663 Q465,663 517,639.5 Q569,616 607,571 L647,603 Q609,650 546,680 Q483,710 404,710 Q347,710 301,694.5 Q255,679 222,653 Q189,627 171,592 Q153,557 153,517 Q153,485 164,459.5 Q175,434 199,412.5 Q223,391 261,371.5 Q299,352 353,331 Q395,314 424.5,298.5 Q454,283 472,266.5 Q490,250 498,231.5 Q506,213 506,190 Q506,157 490.5,129 Q475,101 448,80.5 Q421,60 384,48.5 Q347,37 304,37 Q220,37 162.5,66 Q105,95 60,153 L20,124 Q64,62 133.5,26 Q203,-10 299,-10 M420,765 L460,765 L593,887 L545,887 L449,819 L397,887 L353,887"/> 
            <glyph glyph-name="š" unicode="&#x161;" horiz-adv-x="482" d=" M217,-11 Q256,-11 290.5,0.5 Q325,12 351,32.5 Q377,53 392,81.5 Q407,110 407,143 Q407,166 399.5,184.5 Q392,203 375.5,219.5 Q359,236 332.5,251 Q306,266 268,281 Q232,295 210,307 Q188,319 175,330.5 Q162,342 157.5,354 Q153,366 153,381 Q153,399 161.5,416 Q170,433 186.5,446.5 Q203,460 228,468 Q253,476 285,476 Q330,476 371.5,458 Q413,440 442,416 L474,453 Q442,480 393,500.5 Q344,521 290,521 Q247,521 212,509.5 Q177,498 152.5,477.5 Q128,457 114.5,430 Q101,403 101,373 Q101,323 136,293 Q171,263 244,236 Q277,224 298.5,212 Q320,200 332.5,188 Q345,176 350,163 Q355,150 355,135 Q355,112 343.5,93.5 Q332,75 313.5,61.5 Q295,48 271,41 Q247,34 223,34 Q172,34 125,52.5 Q78,71 36,112 L1,77 Q45,33 101,11 Q157,-11 217,-11 M565,595 L605,595 L738,717 L690,717 L594,649 L542,717 L498,717"/> 
            <glyph glyph-name="Ÿ" unicode="&#x178;" horiz-adv-x="779" d=" M234,0 L286,0 L358,271 L779,700 L709,700 L345,324 L184,700 L127,700 L310,284 M506,765 L575,765 L597,845 L528,845 M343,765 L412,765 L434,845 L365,845"/> 
            <glyph glyph-name="Ž" unicode="&#x17D;" horiz-adv-x="719" d=" M-19,0 L534,0 L547,47 L75,47 L711,671 L719,700 L186,700 L173,653 L625,653 L-11,29 M426,765 L466,765 L599,887 L551,887 L455,819 L403,887 L359,887"/> 
            <glyph glyph-name="ž" unicode="&#x17E;" horiz-adv-x="558" d=" M-17,0 L424,0 L436,44 L75,44 L550,482 L558,510 L134,510 L122,466 L466,466 L-9,28 M330,595 L370,595 L503,717 L455,717 L359,649 L307,717 L263,717"/> 
            <glyph glyph-name="ƒ" unicode="&#x192;" horiz-adv-x="596" d=" M33,-10 Q58,-10 80,-3 Q102,4 121.5,20 Q141,36 159.5,63 Q178,90 195,129 L307,384 L476,384 L488,429 L326,429 L380,551 Q406,611 437.5,638.5 Q469,666 511,666 Q531,666 548.5,662 Q566,658 581,653 L596,695 Q578,702 557.5,706 Q537,710 513,710 Q453,710 410,674 Q367,638 335,563 L276,429 L162,429 L150,384 L257,384 L150,141 Q125,85 98.5,59.5 Q72,34 37,34 Q20,34 8.5,36.5 Q-3,39 -10,41 L-23,-2 Q-13,-5 0,-7.5 Q13,-10 33,-10"/> 
            <glyph glyph-name="ˆ" unicode="&#x2C6;" horiz-adv-x="462" d=" M222,595 L270,595 L366,663 L418,595 L462,595 L395,717 L355,717"/> 
            <glyph glyph-name="ˇ" unicode="&#x2C7;" horiz-adv-x="494" d=" M321,595 L361,595 L494,717 L446,717 L350,649 L298,717 L254,717"/> 
            <glyph glyph-name="ˉ" unicode="&#x2C9;" horiz-adv-x="504" d=" M190,600 L490,600 L504,653 L204,653"/> 
            <glyph glyph-name="˘" unicode="&#x2D8;" horiz-adv-x="505" d=" M339,593 Q395,593 440,625.5 Q485,658 505,717 L459,717 Q441,683 415,663.5 Q389,644 350,644 Q307,644 293,663.5 Q279,683 279,717 L239,717 Q235,700 235,684 Q235,640 263,616.5 Q291,593 339,593"/> 
            <glyph glyph-name="˙" unicode="&#x2D9;" horiz-adv-x="396" d=" M307,593 L373,593 L396,678 L330,678"/> 
            <glyph glyph-name="˚" unicode="&#x2DA;" horiz-adv-x="465" d=" M359,595 Q380,595 399.5,603 Q419,611 433.5,624.5 Q448,638 456.5,657 Q465,676 465,697 Q465,732 438.5,755.5 Q412,779 369,779 Q348,779 328.5,771 Q309,763 294.5,749.5 Q280,736 271.5,717 Q263,698 263,677 Q263,642 289.5,618.5 Q316,595 359,595 M359,627 Q330,627 314.5,641 Q299,655 299,677 Q299,706 319.5,726.5 Q340,747 369,747 Q398,747 413.5,733 Q429,719 429,697 Q429,668 408.5,647.5 Q388,627 359,627"/> 
            <glyph glyph-name="˛" unicode="&#x2DB;" horiz-adv-x="234" d=" M226,-164 L234,-133 Q136,-128 136,-72 Q136,-58 144,-32.5 Q152,-7 161,10 L118,10 Q104,-10 93,-36 Q82,-62 82,-82 Q82,-120 116.5,-143 Q151,-166 226,-164"/> 
            <glyph glyph-name="˜" unicode="&#x2DC;" horiz-adv-x="511" d=" M233,593 Q250,623 263,638 Q276,653 292,653 Q305,653 314,646 Q323,639 340,623 Q357,607 370.5,597.5 Q384,588 407,588 Q439,588 463,611.5 Q487,635 511,684 L473,699 Q456,669 443,654 Q430,639 414,639 Q401,639 392,646 Q383,653 366,669 Q349,685 335.5,694.5 Q322,704 299,704 Q267,704 243,680.5 Q219,657 195,608"/> 
            <glyph glyph-name="˝" unicode="&#x2DD;" horiz-adv-x="516" d=" M344,595 L387,595 L516,699 L469,728 M192,595 L235,595 L364,699 L317,728"/> 
            <glyph glyph-name="Ω" unicode="&#x3A9;" horiz-adv-x="839" d=" M417,0 L466,0 L591,465 L775,465 L787,510 L603,510 L620,573 Q636,633 665.5,659.5 Q695,686 735,686 Q760,686 780.5,680 Q801,674 827,662 L839,706 Q818,717 792,723.5 Q766,730 737,730 Q613,730 574,584 L554,510 L480,510 L468,465 L542,465 M55,0 L104,0 L229,465 L413,465 L425,510 L241,510 L258,573 Q274,633 303.5,659.5 Q333,686 373,686 Q398,686 418.5,680 Q439,674 465,662 L477,706 Q456,717 430,723.5 Q404,730 375,730 Q251,730 212,584 L192,510 L118,510 L106,465 L180,465"/> 
            <glyph glyph-name="μ" unicode="&#x3BC;" horiz-adv-x="801" d=" M692,-24 L730,8 L655,90 Q722,150 761.5,234.5 Q801,319 801,411 Q801,474 778.5,529 Q756,584 716,624.5 Q676,665 620.5,688.5 Q565,712 499,712 Q415,712 342,676.5 Q269,641 214,582 Q159,523 127.5,446.5 Q96,370 96,288 Q96,225 118.5,170 Q141,115 181,74.5 Q221,34 276.5,10.5 Q332,-13 398,-13 Q460,-13 516,6.5 Q572,26 620,61 M398,34 Q342,34 296.5,53.5 Q251,73 218.5,107.5 Q186,142 168,188 Q150,234 150,288 Q150,360 177,428 Q204,496 251,548.5 Q298,601 361.5,633 Q425,665 499,665 Q555,665 600.5,645.5 Q646,626 678.5,591.5 Q711,557 729,511 Q747,465 747,411 Q747,330 714,255 Q681,180 623,126 L509,260 L471,227 L588,97 Q547,68 499.5,51 Q452,34 398,34"/> 
            <glyph glyph-name="π" unicode="&#x3C0;" horiz-adv-x="802" d=" M439,-12 Q515,-12 581.5,17 Q648,46 697,95.5 Q746,145 774,211 Q802,277 802,351 Q802,425 774,491 Q746,557 697.5,606 Q649,655 583,683.5 Q517,712 441,712 Q365,712 298.5,683 Q232,654 183,604.5 Q134,555 106,489 Q78,423 78,349 Q78,275 106,209 Q134,143 182.5,94 Q231,45 297,16.5 Q363,-12 439,-12 M439,16 Q368,16 307.5,42 Q247,68 202.5,113.5 Q158,159 133,219.5 Q108,280 108,349 Q108,418 133.5,479 Q159,540 203.5,585.5 Q248,631 309,657.5 Q370,684 441,684 Q512,684 572.5,658 Q633,632 677.5,586.5 Q722,541 747,480.5 Q772,420 772,351 Q772,282 746.5,221 Q721,160 676.5,114.5 Q632,69 571,42.5 Q510,16 439,16 M321,175 L365,175 L365,303 L455,303 Q485,303 512,310.5 Q539,318 559.5,333 Q580,348 592.5,371 Q605,394 605,425 Q605,482 566,511.5 Q527,541 462,541 L321,541 M365,344 L365,500 L459,500 Q506,500 533,481.5 Q560,463 560,423 Q560,385 532,364.5 Q504,344 456,344"/> 
            <glyph glyph-name="–" unicode="&#x2013;" horiz-adv-x="476" d=" M74,271 L462,271 L476,323 L88,323"/> 
            <glyph glyph-name="—" unicode="&#x2014;" horiz-adv-x="846" d=" M74,271 L832,271 L846,323 L88,323"/> 
            <glyph glyph-name="‘" unicode="&#x2018;" horiz-adv-x="289" d=" M147,513 L213,513 L236,598 L209,598 Q214,627 233,647 Q252,667 289,680 L282,704 Q257,697 238.5,687.5 Q220,678 206.5,664.5 Q193,651 183.5,632 Q174,613 167,587"/> 
            <glyph glyph-name="’" unicode="&#x2019;" horiz-adv-x="273" d=" M138,509 Q163,516 181.5,525.5 Q200,535 213.5,548.5 Q227,562 236.5,581 Q246,600 253,626 L273,700 L207,700 L184,615 L211,615 Q206,586 187,566 Q168,546 131,533"/> 
            <glyph glyph-name="‚" unicode="&#x201A;" horiz-adv-x="103" d=" M-32,-106 Q-7,-99 11.5,-89.5 Q30,-80 43.5,-66.5 Q57,-53 66.5,-34 Q76,-15 83,11 L103,85 L37,85 L14,0 L41,0 Q36,-29 17,-49 Q-2,-69 -39,-82"/> 
            <glyph glyph-name="“" unicode="&#x201C;" horiz-adv-x="468" d=" M326,513 L392,513 L415,598 L388,598 Q393,627 412,647 Q431,667 468,680 L461,704 Q436,697 417.5,687.5 Q399,678 385.5,664.5 Q372,651 362.5,632 Q353,613 346,587 M146,513 L212,513 L235,598 L208,598 Q213,627 232,647 Q251,667 288,680 L281,704 Q256,697 237.5,687.5 Q219,678 205.5,664.5 Q192,651 182.5,632 Q173,613 166,587"/> 
            <glyph glyph-name="”" unicode="&#x201D;" horiz-adv-x="442" d=" M307,509 Q332,516 350.5,525.5 Q369,535 382.5,548.5 Q396,562 405.5,581 Q415,600 422,626 L442,700 L376,700 L353,615 L380,615 Q375,586 356,566 Q337,546 300,533 M127,509 Q152,516 170.5,525.5 Q189,535 202.5,548.5 Q216,562 225.5,581 Q235,600 242,626 L262,700 L196,700 L173,615 L200,615 Q195,586 176,566 Q157,546 120,533"/> 
            <glyph glyph-name="„" unicode="&#x201E;" horiz-adv-x="284" d=" M149,-106 Q174,-99 192.5,-89.5 Q211,-80 224.5,-66.5 Q238,-53 247.5,-34 Q257,-15 264,11 L284,85 L218,85 L195,0 L222,0 Q217,-29 198,-49 Q179,-69 142,-82 M-32,-106 Q-7,-99 11.5,-89.5 Q30,-80 43.5,-66.5 Q57,-53 66.5,-34 Q76,-15 83,11 L103,85 L37,85 L14,0 L41,0 Q36,-29 17,-49 Q-2,-69 -39,-82"/> 
            <glyph glyph-name="†" unicode="&#x2020;" horiz-adv-x="411" d=" M160,238 L204,238 L275,524 L399,517 L411,562 L285,555 L331,700 L281,700 L249,555 L127,562 L115,517 L241,524"/> 
            <glyph glyph-name="‡" unicode="&#x2021;" horiz-adv-x="421" d=" M103,0 L153,0 L185,145 L307,138 L319,183 L192,176 L244,350 L285,524 L409,517 L421,562 L295,555 L341,700 L291,700 L259,555 L137,562 L125,517 L251,524 L200,350 L158,176 L35,183 L23,138 L149,145"/> 
            <glyph glyph-name="•" unicode="&#x2022;" horiz-adv-x="375" d=" M232,222 Q261,222 287,234 Q313,246 332.5,267 Q352,288 363.5,315.5 Q375,343 375,373 Q375,424 345.5,453 Q316,482 270,482 Q241,482 215,470 Q189,458 169.5,437 Q150,416 138.5,388.5 Q127,361 127,331 Q127,280 156.5,251 Q186,222 232,222"/> 
            <glyph glyph-name="…" unicode="&#x2026;" horiz-adv-x="555" d=" M466,0 L532,0 L555,85 L489,85 M240,0 L306,0 L329,85 L263,85 M14,0 L80,0 L103,85 L37,85"/> 
            <glyph glyph-name="‰" unicode="&#x2030;" horiz-adv-x="1161" d=" M230,346 Q270,346 305,364.5 Q340,383 365.5,413.5 Q391,444 406,483.5 Q421,523 421,565 Q421,595 411,621 Q401,647 383,666.5 Q365,686 339.5,697 Q314,708 284,708 Q244,708 209,689.5 Q174,671 148.5,640.5 Q123,610 108,570.5 Q93,531 93,489 Q93,459 103,433 Q113,407 131,387.5 Q149,368 174.5,357 Q200,346 230,346 M65,0 L125,0 L807,700 L747,700 M970,-7 Q1010,-7 1045,11.5 Q1080,30 1105.5,60.5 Q1131,91 1146,130.5 Q1161,170 1161,212 Q1161,242 1151,268 Q1141,294 1123,313.5 Q1105,333 1079.5,344 Q1054,355 1024,355 Q984,355 949,336.5 Q914,318 888.5,287.5 Q863,257 848,217.5 Q833,178 833,136 Q833,106 843,80 Q853,54 871,34.5 Q889,15 914.5,4 Q940,-7 970,-7 M588,-7 Q628,-7 663,11.5 Q698,30 723.5,60.5 Q749,91 764,130.5 Q779,170 779,212 Q779,242 769,268 Q759,294 741,313.5 Q723,333 697.5,344 Q672,355 642,355 Q602,355 567,336.5 Q532,318 506.5,287.5 Q481,257 466,217.5 Q451,178 451,136 Q451,106 461,80 Q471,54 489,34.5 Q507,15 532.5,4 Q558,-7 588,-7 M234,389 Q189,389 165.5,417.5 Q142,446 142,494 Q142,525 152.5,555.5 Q163,586 182,610.5 Q201,635 226,650 Q251,665 280,665 Q325,665 348.5,636.5 Q372,608 372,560 Q372,529 361.5,498.5 Q351,468 332,443.5 Q313,419 288,404 Q263,389 234,389 M974,36 Q929,36 905.5,64.5 Q882,93 882,141 Q882,172 892.5,202.5 Q903,233 922,257.5 Q941,282 966,297 Q991,312 1020,312 Q1065,312 1088.5,283.5 Q1112,255 1112,207 Q1112,176 1101.5,145.5 Q1091,115 1072,90.5 Q1053,66 1028,51 Q1003,36 974,36 M592,36 Q547,36 523.5,64.5 Q500,93 500,141 Q500,172 510.5,202.5 Q521,233 540,257.5 Q559,282 584,297 Q609,312 638,312 Q683,312 706.5,283.5 Q730,255 730,207 Q730,176 719.5,145.5 Q709,115 690,90.5 Q671,66 646,51 Q621,36 592,36"/> 
            <glyph glyph-name="‹" unicode="&#x2039;" horiz-adv-x="299" d=" M149,42 L190,64 L107,248 L299,440 L263,468 L47,259 L45,251"/> 
            <glyph glyph-name="›" unicode="&#x203A;" horiz-adv-x="265" d=" M47,41 L263,250 L265,258 L161,467 L120,445 L203,261 L11,69"/> 
            <glyph glyph-name="™" unicode="&#x2122;" horiz-adv-x="761" d=" M360,392 L395,392 L466,638 L537,460 L542,460 L709,638 L638,392 L673,392 L761,700 L720,700 L552,517 L480,700 L448,700 M154,392 L189,392 L267,666 L368,666 L378,700 L141,700 L131,666 L232,666"/> 
            <glyph glyph-name="∕" unicode="&#x2215;" horiz-adv-x="673" d=" M-83,-98 L-24,-98 L673,758 L614,758"/> 
            <glyph glyph-name="√" unicode="&#x221A;" horiz-adv-x="1001" d=" M756,0 L805,0 L1001,730 L952,730 M417,0 L466,0 L591,465 L775,465 L787,510 L603,510 L620,573 Q636,633 665.5,659.5 Q695,686 735,686 Q760,686 780.5,680 Q801,674 827,662 L839,706 Q818,717 792,723.5 Q766,730 737,730 Q613,730 574,584 L554,510 L480,510 L468,465 L542,465 M55,0 L104,0 L229,465 L413,465 L425,510 L241,510 L258,573 Q274,633 303.5,659.5 Q333,686 373,686 Q398,686 418.5,680 Q439,674 465,662 L477,706 Q456,717 430,723.5 Q404,730 375,730 Q251,730 212,584 L192,510 L118,510 L106,465 L180,465"/> 
            <glyph glyph-name="≈" unicode="&#x2248;" horiz-adv-x="1002" d=" M923,643 L984,643 L1002,710 L941,710 M417,0 L466,0 L591,465 L775,465 L787,510 L603,510 L620,573 Q636,633 665.5,659.5 Q695,686 735,686 Q760,686 780.5,680 Q801,674 827,662 L839,706 Q818,717 792,723.5 Q766,730 737,730 Q613,730 574,584 L554,510 L480,510 L468,465 L542,465 M55,0 L104,0 L229,465 L413,465 L425,510 L241,510 L258,573 Q274,633 303.5,659.5 Q333,686 373,686 Q398,686 418.5,680 Q439,674 465,662 L477,706 Q456,717 430,723.5 Q404,730 375,730 Q251,730 212,584 L192,510 L118,510 L106,465 L180,465 M756,0 L805,0 L942,510 L893,510"/> 
            </font>
</defs>
</svg>
