<?xml version="1.0" standalone="no"?>
<!DOCTYPE svg PUBLIC "-//W3C//DTD SVG 1.1//EN" "http://www.w3.org/Graphics/SVG/1.1/DTD/svg11.dtd" >
<svg xmlns="http://www.w3.org/2000/svg">
    <defs>
        <font id="Gotham-Bold">
            <font-face font-family="Gotham-Bold"
                       units-per-em="1000"
                       ascent="0"
                       descent="0"
                       bbox="-71 -173 1195 932"
                    />
            <missing-glyph horiz-adv-x="0" />
            
            <glyph glyph-name="!" unicode="&#x21;" horiz-adv-x="251" d=" M73,700 L73,680 L120,238 L204,238 L251,680 L251,700 M243,0 L243,160 L81,160 L81,0"/> 
            <glyph glyph-name="&quot;" unicode="&#x22;" horiz-adv-x="479" d=" M293,381 L370,381 L479,695 L479,700 L311,700 M57,381 L134,381 L243,695 L243,700 L75,700"/> 
            <glyph glyph-name="#" unicode="&#x23;" horiz-adv-x="665" d=" M665,426 L665,554 L589,554 L614,700 L482,700 L457,554 L312,554 L337,700 L205,700 L180,554 L70,554 L70,426 L158,426 L133,278 L35,278 L35,150 L111,150 L85,0 L217,0 L243,150 L388,150 L362,0 L494,0 L520,150 L630,150 L630,278 L542,278 L567,426 M435,426 L410,278 L265,278 L290,426"/> 
            <glyph glyph-name="$" unicode="&#x24;" horiz-adv-x="596" d=" M596,199 Q596,283 544.5,333.5 Q493,384 379,415 L379,566 Q411,558 442,542.5 Q473,527 503,507 L570,624 Q529,653 483.5,671.5 Q438,690 384,698 L384,758 L280,758 L280,700 Q233,695 194,679.5 Q155,664 127.5,638.5 Q100,613 85,579 Q70,545 70,503 Q70,459 83.5,425.5 Q97,392 123.5,367 Q150,342 190.5,323.5 Q231,305 285,290 L285,131 Q240,140 201.5,160.5 Q163,181 122,212 L44,98 Q94,60 154.5,35.5 Q215,11 280,3 L280,-98 L384,-98 L384,1 Q432,6 471,22 Q510,38 537.5,63.5 Q565,89 580.5,123 Q596,157 596,199 M285,440 Q244,455 230,472 Q216,489 216,512 Q216,536 232.5,553 Q249,570 285,575 M450,191 Q450,137 379,126 L379,266 Q420,251 435,234 Q450,217 450,191"/> 
            <glyph glyph-name="%" unicode="&#x25;" horiz-adv-x="815" d=" M385,530 Q385,567 373,599.5 Q361,632 338.5,656 Q316,680 285,694 Q254,708 216,708 Q178,708 146.5,694 Q115,680 92.5,655.5 Q70,631 57.5,598 Q45,565 45,528 Q45,491 57,458.5 Q69,426 91.5,402 Q114,378 145,364 Q176,350 214,350 Q252,350 283.5,364 Q315,378 337.5,402.5 Q360,427 372.5,459.5 Q385,492 385,530 M745,700 L626,700 L115,0 L234,0 M815,172 Q815,209 803,241.5 Q791,274 768.5,298 Q746,322 715,336 Q684,350 646,350 Q608,350 576.5,336 Q545,322 522.5,297.5 Q500,273 487.5,240 Q475,207 475,170 Q475,133 487,100.5 Q499,68 521.5,44 Q544,20 575,6 Q606,-8 644,-8 Q682,-8 713.5,6 Q745,20 767.5,44.5 Q790,69 802.5,101.5 Q815,134 815,172 M280,528 Q280,493 264,467 Q248,441 216,441 Q186,441 168,467.5 Q150,494 150,530 Q150,565 166,591 Q182,617 214,617 Q244,617 262,590.5 Q280,564 280,528 M710,170 Q710,135 694,109 Q678,83 646,83 Q616,83 598,109.5 Q580,136 580,172 Q580,207 596,233 Q612,259 644,259 Q674,259 692,232.5 Q710,206 710,170"/> 
            <glyph glyph-name="&amp;" unicode="&#x26;" horiz-adv-x="668" d=" M668,65 L565,168 Q591,203 614,241 Q637,279 657,316 L544,378 Q527,346 510,315.5 Q493,285 476,258 L383,351 Q448,376 489,420 Q530,464 530,535 Q530,572 516,604.5 Q502,637 476,661 Q450,685 414,698.5 Q378,712 333,712 Q282,712 242.5,696.5 Q203,681 176,655.5 Q149,630 135,596.5 Q121,563 121,527 Q121,490 132.5,456.5 Q144,423 170,386 Q104,356 69,308.5 Q34,261 34,193 Q34,146 52,108.5 Q70,71 101.5,44.5 Q133,18 176,4 Q219,-10 269,-10 Q330,-10 380.5,11.5 Q431,33 474,68 L555,-14 M396,526 Q396,492 372.5,470.5 Q349,449 303,432 Q281,457 271.5,476.5 Q262,496 262,520 Q262,552 280.5,572 Q299,592 330,592 Q359,592 377.5,575 Q396,558 396,526 M388,156 Q364,137 338.5,126.5 Q313,116 287,116 Q244,116 216.5,138.5 Q189,161 189,199 Q189,225 204,249.5 Q219,274 254,292"/> 
            <glyph glyph-name="'" unicode="&#x27;" horiz-adv-x="245" d=" M57,381 L136,381 L245,695 L245,700 L75,700"/> 
            <glyph glyph-name="(" unicode="&#x28;" horiz-adv-x="403" d=" M403,614 L336,715 Q197,640 128,536 Q59,432 59,287 Q59,142 128,38 Q197,-66 336,-141 L403,-40 Q352,-5 315.5,31 Q279,67 255.5,106 Q232,145 221,189.5 Q210,234 210,287 Q210,340 221,384.5 Q232,429 255.5,468 Q279,507 315.5,543 Q352,579 403,614"/> 
            <glyph glyph-name=")" unicode="&#x29;" horiz-adv-x="386" d=" M386,287 Q386,432 317,536 Q248,640 109,715 L42,614 Q93,579 129.5,543 Q166,507 189.5,468 Q213,429 224,384.5 Q235,340 235,287 Q235,234 224,189.5 Q213,145 189.5,106 Q166,67 129.5,31 Q93,-5 42,-40 L109,-141 Q248,-66 317,38 Q386,142 386,287"/> 
            <glyph glyph-name="*" unicode="&#x2A;" horiz-adv-x="379" d=" M379,490 L267,537 L379,584 L337,656 L240,582 L256,702 L174,702 L190,582 L93,656 L51,584 L163,537 L51,490 L93,418 L190,492 L174,372 L256,372 L240,492 L337,418"/> 
            <glyph glyph-name="+" unicode="&#x2B;" horiz-adv-x="572" d=" M249,421 L68,421 L68,283 L249,283 L249,103 L391,103 L391,283 L572,283 L572,421 L391,421 L391,601 L249,601"/> 
            <glyph glyph-name="," unicode="&#x2C;" horiz-adv-x="224" d=" M26,-99 L39,-162 Q128,-161 176,-117.5 Q224,-74 224,25 L224,160 L62,160 L62,0 L124,0 Q132,-88 26,-99"/> 
            <glyph glyph-name="-" unicode="&#x2D;" horiz-adv-x="358" d=" M358,237 L358,383 L50,383 L50,237"/> 
            <glyph glyph-name="." unicode="&#x2E;" horiz-adv-x="224" d=" M224,0 L224,160 L62,160 L62,0"/> 
            <glyph glyph-name="/" unicode="&#x2F;" horiz-adv-x="544" d=" M415,798 L-28,-128 L101,-128 L544,798"/> 
            <glyph glyph-name="0" unicode="&#x30;" horiz-adv-x="676" d=" M676,351 Q676,427 654,493 Q632,559 591.5,608 Q551,657 493.5,684.5 Q436,712 366,712 Q296,712 238.5,684 Q181,656 140,607 Q99,558 76.5,491.5 Q54,425 54,349 Q54,272 76,206.5 Q98,141 138.5,92 Q179,43 236.5,15.5 Q294,-12 364,-12 Q434,-12 491.5,16 Q549,44 590,93 Q631,142 653.5,208 Q676,274 676,351 M518,349 Q518,301 507.5,260.5 Q497,220 477,190 Q457,160 429,143.5 Q401,127 366,127 Q331,127 302.5,144 Q274,161 254,191 Q234,221 223,262 Q212,303 212,351 Q212,399 222.5,440 Q233,481 253,510.5 Q273,540 301,556.5 Q329,573 364,573 Q399,573 427.5,556 Q456,539 476,509 Q496,479 507,438 Q518,397 518,349"/> 
            <glyph glyph-name="1" unicode="&#x31;" horiz-adv-x="330" d=" M24,645 L56,519 L178,549 L178,0 L330,0 L330,705 L225,705"/> 
            <glyph glyph-name="2" unicode="&#x32;" horiz-adv-x="567" d=" M309,572 Q351,572 377,549 Q403,526 403,481 Q403,459 396.5,440.5 Q390,422 375.5,402.5 Q361,383 338,361.5 Q315,340 282,313 L49,122 L49,0 L567,0 L567,133 L262,133 L376,221 Q422,257 457,287.5 Q492,318 514.5,349 Q537,380 548.5,414.5 Q560,449 560,493 Q560,542 543.5,582 Q527,622 495.5,650.5 Q464,679 419.5,694.5 Q375,710 319,710 Q272,710 235,700.5 Q198,691 167.5,672.5 Q137,654 110.5,627 Q84,600 58,565 L166,478 Q205,526 236.5,549 Q268,572 309,572"/> 
            <glyph glyph-name="3" unicode="&#x33;" horiz-adv-x="563" d=" M354,568 L187,400 L211,302 L275,302 Q341,302 376.5,279 Q412,256 412,212 Q412,172 384.5,149 Q357,126 313,126 Q259,126 219.5,147.5 Q180,169 144,210 L38,109 Q83,55 149.5,21.5 Q216,-12 311,-12 Q369,-12 416,5 Q463,22 495.5,53 Q528,84 545.5,126 Q563,168 563,218 Q563,267 547,301.5 Q531,336 505,359.5 Q479,383 445,396 Q411,409 375,415 L552,584 L552,700 L79,700 L79,568"/> 
            <glyph glyph-name="4" unicode="&#x34;" horiz-adv-x="639" d=" M415,705 L31,260 L56,151 L398,151 L398,0 L545,0 L545,151 L639,151 L639,276 L545,276 L545,705 M398,276 L212,276 L398,494"/> 
            <glyph glyph-name="5" unicode="&#x35;" horiz-adv-x="571" d=" M90,355 L179,296 Q204,307 233.5,314.5 Q263,322 296,322 Q353,322 386.5,297 Q420,272 420,226 Q420,178 388.5,153 Q357,128 303,128 Q256,128 216,148 Q176,168 136,204 L43,93 Q94,44 157,16 Q220,-12 305,-12 Q365,-12 414.5,5 Q464,22 498.5,53.5 Q533,85 552,130 Q571,175 571,231 Q571,291 552,333.5 Q533,376 500,403 Q467,430 422.5,443 Q378,456 326,456 Q297,456 276,452.5 Q255,449 234,444 L242,565 L540,565 L540,700 L110,700"/> 
            <glyph glyph-name="6" unicode="&#x36;" horiz-adv-x="606" d=" M580,635 Q557,653 533,667.5 Q509,682 483,692 Q457,702 427,707 Q397,712 361,712 Q283,712 225,682.5 Q167,653 129,601.5 Q91,550 72.5,480 Q54,410 54,329 Q54,224 76.5,162.5 Q99,101 137,63 Q174,26 222,7 Q270,-12 339,-12 Q396,-12 445,5.5 Q494,23 529.5,55.5 Q565,88 585.5,132.5 Q606,177 606,231 Q606,286 587,328 Q568,370 535,398 Q502,426 457,440.5 Q412,455 360,455 Q308,455 274.5,441 Q241,427 215,410 Q219,444 229,474 Q239,504 256.5,525.5 Q274,547 298.5,559.5 Q323,572 356,572 Q378,572 397,568 Q416,564 433,557 Q450,550 466,539.5 Q482,529 499,516 M453,224 Q453,178 421.5,149 Q390,120 333,120 Q276,120 243.5,149.5 Q211,179 211,225 Q211,270 242.5,298.5 Q274,327 331,327 Q388,327 420.5,298 Q453,269 453,224"/> 
            <glyph glyph-name="7" unicode="&#x37;" horiz-adv-x="572" d=" M68,567 L397,567 L84,0 L258,0 L572,584 L572,700 L68,700"/> 
            <glyph glyph-name="8" unicode="&#x38;" horiz-adv-x="585" d=" M585,197 Q585,260 555.5,297.5 Q526,335 472,363 Q513,388 537,424 Q561,460 561,517 Q561,557 543.5,592.5 Q526,628 493.5,654 Q461,680 415.5,695 Q370,710 315,710 Q259,710 214,695 Q169,680 136.5,654 Q104,628 86.5,592.5 Q69,557 69,517 Q69,460 93,424 Q117,388 158,363 Q102,337 73.5,297.5 Q45,258 45,193 Q45,147 65.5,109.5 Q86,72 122,45.5 Q158,19 207.5,4.5 Q257,-10 315,-10 Q373,-10 422.5,4 Q472,18 508,44.5 Q544,71 564.5,109.5 Q585,148 585,197 M415,500 Q415,462 388,438 Q361,414 315,414 Q269,414 242,438.5 Q215,463 215,501 Q215,534 241,558.5 Q267,583 315,583 Q363,583 389,558 Q415,533 415,500 M436,205 Q436,167 404,142 Q372,117 315,117 Q258,117 226,142 Q194,167 194,205 Q194,247 228,269.5 Q262,292 315,292 Q368,292 402,269.5 Q436,247 436,205"/> 
            <glyph glyph-name="9" unicode="&#x39;" horiz-adv-x="608" d=" M608,371 Q608,423 602,464 Q596,505 585,537 Q574,569 559,593 Q544,617 525,636 Q505,656 484,670.5 Q463,685 439,694 Q415,703 386.5,707.5 Q358,712 323,712 Q264,712 214.5,693.5 Q165,675 130,642 Q95,609 75.5,564 Q56,519 56,466 Q56,412 73.5,370 Q91,328 124,299 Q157,270 203,254.5 Q249,239 306,239 Q352,239 387,252 Q422,265 448,287 Q440,216 405.5,172 Q371,128 306,128 Q261,128 226,142.5 Q191,157 153,188 L72,71 Q117,34 171,11 Q225,-12 302,-12 Q377,-12 434,16 Q491,44 529.5,94 Q568,144 588,214.5 Q608,285 608,371 M451,472 Q451,426 419.5,396.5 Q388,367 331,367 Q274,367 241.5,396 Q209,425 209,473 Q209,521 240,550.5 Q271,580 328,580 Q386,580 418.5,550 Q451,520 451,472"/> 
            <glyph glyph-name=":" unicode="&#x3A;" horiz-adv-x="229" d=" M229,376 L229,536 L67,536 L67,376 M229,0 L229,160 L67,160 L67,0"/> 
            <glyph glyph-name=";" unicode="&#x3B;" horiz-adv-x="229" d=" M229,376 L229,536 L67,536 L67,376 M31,-99 L44,-162 Q133,-161 181,-117.5 Q229,-74 229,25 L229,160 L67,160 L67,0 L129,0 Q137,-88 31,-99"/> 
            <glyph glyph-name="&lt;" unicode="&#x3C;" horiz-adv-x="552" d=" M68,421 L68,283 L552,71 L552,214 L214,353 L552,492 L552,633"/> 
            <glyph glyph-name="=" unicode="&#x3D;" horiz-adv-x="557" d=" M83,551 L83,413 L557,413 L557,551 M83,291 L83,153 L557,153 L557,291"/> 
            <glyph glyph-name="&gt;" unicode="&#x3E;" horiz-adv-x="572" d=" M572,283 L572,421 L88,633 L88,490 L426,351 L88,212 L88,71"/> 
            <glyph glyph-name="?" unicode="&#x3F;" horiz-adv-x="507" d=" M179,405 L174,400 L197,238 L299,238 L310,299 Q351,307 387,321.5 Q423,336 449.5,360 Q476,384 491.5,418.5 Q507,453 507,501 Q507,551 489.5,590 Q472,629 440,655.5 Q408,682 363.5,695.5 Q319,709 265,709 Q183,709 123.5,679 Q64,649 20,601 L112,500 Q147,535 183.5,552 Q220,569 262,569 Q306,569 330,550.5 Q354,532 354,497 Q354,456 314,432.5 Q274,409 179,405 M326,0 L326,160 L164,160 L164,0"/> 
            <glyph glyph-name="@" unicode="&#x40;" horiz-adv-x="927" d=" M927,316 Q927,393 893.5,464.5 Q860,536 801,591 Q742,646 662.5,679 Q583,712 491,712 Q399,712 319,677 Q239,642 180,582.5 Q121,523 87,443.5 Q53,364 53,274 Q53,184 86.5,105 Q120,26 180,-33.5 Q240,-93 321.5,-127.5 Q403,-162 499,-162 Q577,-162 641.5,-142 Q706,-122 764,-87 L744,-55 Q687,-88 630.5,-105 Q574,-122 499,-122 Q410,-122 336,-91 Q262,-60 208.5,-6.5 Q155,47 125,119 Q95,191 95,274 Q95,356 125,428.5 Q155,501 208,555 Q261,609 333.5,640.5 Q406,672 491,672 Q575,672 647.5,642.5 Q720,613 772.5,563.5 Q825,514 855,449.5 Q885,385 885,316 Q885,266 875,228 Q865,190 848,164 Q831,138 808,125 Q785,112 758,112 Q723,112 704,130 Q685,148 685,175 Q685,181 685.5,189.5 Q686,198 688,206 L735,475 L617,494 L606,441 Q585,470 552.5,489.5 Q520,509 468,509 Q424,509 383.5,489.5 Q343,470 312,436.5 Q281,403 262.5,357 Q244,311 244,258 Q244,213 258,177.5 Q272,142 297,117 Q322,92 355.5,78.5 Q389,65 427,65 Q476,65 512.5,83.5 Q549,102 575,125 Q594,103 630.5,84 Q667,65 728,65 Q769,65 805.5,80.5 Q842,96 869,127.5 Q896,159 911.5,206 Q927,253 927,316 M581,312 Q581,281 571.5,255 Q562,229 545.5,209.5 Q529,190 507.5,179 Q486,168 462,168 Q420,168 394,193 Q368,218 368,265 Q368,295 377.5,321 Q387,347 403.5,365.5 Q420,384 442,395 Q464,406 488,406 Q529,406 555,380.5 Q581,355 581,312"/> 
            <glyph glyph-name="A" unicode="&#x41;" horiz-adv-x="766" d=" M766,0 L466,705 L324,705 L24,0 L181,0 L245,157 L541,157 L605,0 M486,293 L300,293 L393,520"/> 
            <glyph glyph-name="B" unicode="&#x42;" horiz-adv-x="679" d=" M679,192 L679,194 Q679,264 644,303.5 Q609,343 548,366 Q567,376 583.5,390 Q600,404 612.5,422.5 Q625,441 632.5,464 Q640,487 640,517 L640,519 Q640,602 578.5,651 Q517,700 409,700 L84,700 L84,0 L417,0 Q476,0 524.5,12 Q573,24 607.5,48 Q642,72 660.5,108 Q679,144 679,192 M487,491 Q487,452 457,434.5 Q427,417 376,417 L234,417 L234,565 L386,565 Q435,565 461,546.5 Q487,528 487,493 M526,211 Q526,172 497,153.5 Q468,135 417,135 L234,135 L234,289 L412,289 Q472,289 499,268.5 Q526,248 526,213"/> 
            <glyph glyph-name="C" unicode="&#x43;" horiz-adv-x="699" d=" M699,113 L601,212 Q560,174 518.5,152 Q477,130 417,130 Q372,130 334.5,147.5 Q297,165 270.5,195 Q244,225 229,265 Q214,305 214,350 L214,352 Q214,397 229,436.5 Q244,476 271,506 Q298,536 335.5,553 Q373,570 417,570 Q470,570 512.5,549 Q555,528 596,491 L694,604 Q670,628 642,648 Q614,668 581,682 Q548,696 507.5,704 Q467,712 418,712 Q337,712 270,683.5 Q203,655 155,605.5 Q107,556 80,490.5 Q53,425 53,350 L53,348 Q53,273 80,207 Q107,141 155,92.5 Q203,44 269,16 Q335,-12 412,-12 Q463,-12 504,-3.5 Q545,5 579.5,21.5 Q614,38 643,61 Q672,84 699,113"/> 
            <glyph glyph-name="D" unicode="&#x44;" horiz-adv-x="729" d=" M729,350 L729,352 Q729,426 702,489.5 Q675,553 625.5,600 Q576,647 507.5,673.5 Q439,700 357,700 L84,700 L84,0 L357,0 Q439,0 507.5,27 Q576,54 625.5,101 Q675,148 702,212 Q729,276 729,350 M568,348 Q568,301 552.5,263 Q537,225 509.5,197 Q482,169 443,154 Q404,139 357,139 L238,139 L238,561 L357,561 Q404,561 443,545.5 Q482,530 509.5,502 Q537,474 552.5,435 Q568,396 568,350"/> 
            <glyph glyph-name="E" unicode="&#x45;" horiz-adv-x="617" d=" M617,0 L617,137 L237,137 L237,284 L567,284 L567,421 L237,421 L237,563 L612,563 L612,700 L84,700 L84,0"/> 
            <glyph glyph-name="F" unicode="&#x46;" horiz-adv-x="617" d=" M617,560 L617,700 L84,700 L84,0 L238,0 L238,271 L572,271 L572,411 L238,411 L238,560"/> 
            <glyph glyph-name="G" unicode="&#x47;" horiz-adv-x="720" d=" M720,99 L720,403 L416,403 L416,270 L571,270 L571,170 Q512,128 426,128 Q379,128 340.5,144.5 Q302,161 273.5,191 Q245,221 229.5,261.5 Q214,302 214,350 L214,352 Q214,397 229.5,436.5 Q245,476 272.5,505.5 Q300,535 336.5,552.5 Q373,570 415,570 Q445,570 470,565 Q495,560 516.5,551 Q538,542 558,529 Q578,516 598,499 L695,616 Q668,639 639,657 Q610,675 577,687 Q544,699 505.5,705.5 Q467,712 420,712 Q340,712 273,683.5 Q206,655 157,605.5 Q108,556 80.5,490.5 Q53,425 53,350 L53,348 Q53,270 80,204 Q107,138 155.5,90 Q204,42 271.5,15 Q339,-12 421,-12 Q517,-12 591.5,20.5 Q666,53 720,99"/> 
            <glyph glyph-name="H" unicode="&#x48;" horiz-adv-x="676" d=" M676,0 L676,700 L522,700 L522,423 L238,423 L238,700 L84,700 L84,0 L238,0 L238,281 L522,281 L522,0"/> 
            <glyph glyph-name="I" unicode="&#x49;" horiz-adv-x="245" d=" M245,0 L245,700 L91,700 L91,0"/> 
            <glyph glyph-name="J" unicode="&#x4A;" horiz-adv-x="491" d=" M491,242 L491,700 L333,700 L333,249 Q333,188 308,160.5 Q283,133 239,133 Q202,133 171.5,151.5 Q141,170 111,203 L14,95 Q50,52 105.5,21 Q161,-10 243,-10 Q298,-10 344,5.5 Q390,21 422.5,52.5 Q455,84 473,131 Q491,178 491,242"/> 
            <glyph glyph-name="K" unicode="&#x4B;" horiz-adv-x="721" d=" M721,0 L423,403 L708,700 L522,700 L238,394 L238,700 L84,700 L84,0 L238,0 L238,214 L319,298 L536,0"/> 
            <glyph glyph-name="L" unicode="&#x4C;" horiz-adv-x="587" d=" M587,0 L587,140 L238,140 L238,700 L84,700 L84,0"/> 
            <glyph glyph-name="M" unicode="&#x4D;" horiz-adv-x="784" d=" M784,0 L784,700 L618,700 L434,404 L250,700 L84,700 L84,0 L235,0 L235,454 L430,158 L434,158 L631,457 L631,0"/> 
            <glyph glyph-name="N" unicode="&#x4E;" horiz-adv-x="706" d=" M706,0 L706,700 L554,700 L554,269 L226,700 L84,700 L84,0 L236,0 L236,445 L575,0"/> 
            <glyph glyph-name="O" unicode="&#x4F;" horiz-adv-x="797" d=" M797,350 L797,352 Q797,427 769.5,492.5 Q742,558 692.5,606.5 Q643,655 575,683.5 Q507,712 426,712 Q345,712 276.5,683.5 Q208,655 158.5,605.5 Q109,556 81,490.5 Q53,425 53,350 L53,348 Q53,273 80.5,207.5 Q108,142 157.5,93.5 Q207,45 275,16.5 Q343,-12 424,-12 Q505,-12 573.5,16.5 Q642,45 691.5,94.5 Q741,144 769,209.5 Q797,275 797,350 M636,348 Q636,303 620.5,263.5 Q605,224 577.5,194 Q550,164 511,147 Q472,130 426,130 Q379,130 340.5,147.5 Q302,165 273.5,195 Q245,225 229.5,265 Q214,305 214,350 L214,352 Q214,397 229.5,436.5 Q245,476 272.5,506 Q300,536 338.5,553 Q377,570 424,570 Q470,570 509,552.5 Q548,535 576.5,505 Q605,475 620.5,435 Q636,395 636,350"/> 
            <glyph glyph-name="P" unicode="&#x50;" horiz-adv-x="638" d=" M638,456 L638,458 Q638,512 619.5,556.5 Q601,601 566.5,633 Q532,665 482.5,682.5 Q433,700 370,700 L84,700 L84,0 L238,0 L238,210 L355,210 Q414,210 465.5,225.5 Q517,241 555.5,272 Q594,303 616,349 Q638,395 638,456 M482,453 Q482,408 450,377.5 Q418,347 360,347 L238,347 L238,561 L357,561 Q415,561 448.5,534 Q482,507 482,455"/> 
            <glyph glyph-name="Q" unicode="&#x51;" horiz-adv-x="807" d=" M807,88 L735,149 Q765,193 781,244 Q797,295 797,350 L797,352 Q797,427 769.5,492.5 Q742,558 692.5,606.5 Q643,655 575,683.5 Q507,712 426,712 Q345,712 276.5,683.5 Q208,655 158.5,605.5 Q109,556 81,490.5 Q53,425 53,350 L53,348 Q53,273 80.5,207.5 Q108,142 157.5,93.5 Q207,45 275,16.5 Q343,-12 424,-12 Q483,-12 535,3.5 Q587,19 632,48 L709,-21 M636,348 Q636,294 617,252 L502,356 L404,246 L518,149 Q475,130 426,130 Q379,130 340.5,147.5 Q302,165 273.5,195 Q245,225 229.5,265 Q214,305 214,350 L214,352 Q214,397 229.5,436.5 Q245,476 272.5,506 Q300,536 338.5,553 Q377,570 424,570 Q470,570 509,552.5 Q548,535 576.5,505 Q605,475 620.5,435 Q636,395 636,350"/> 
            <glyph glyph-name="R" unicode="&#x52;" horiz-adv-x="689" d=" M689,0 L518,250 Q585,275 626.5,328.5 Q668,382 668,467 L668,469 Q668,578 598.5,639 Q529,700 404,700 L84,700 L84,0 L238,0 L238,224 L359,224 L509,0 M512,459 Q512,414 481.5,387 Q451,360 394,360 L238,360 L238,561 L391,561 Q448,561 480,536 Q512,511 512,461"/> 
            <glyph glyph-name="S" unicode="&#x53;" horiz-adv-x="590" d=" M590,207 L590,209 Q590,255 575.5,288 Q561,321 532.5,345.5 Q504,370 462.5,387.5 Q421,405 368,419 Q323,431 293.5,440 Q264,449 247,459 Q230,469 223.5,481.5 Q217,494 217,511 L217,513 Q217,539 239.5,556.5 Q262,574 307,574 Q352,574 397,555.5 Q442,537 489,505 L569,621 Q515,664 450.5,687 Q386,710 309,710 Q255,710 210,695 Q165,680 132.5,652 Q100,624 82,585.5 Q64,547 64,499 L64,497 Q64,445 80.5,410 Q97,375 127,351.5 Q157,328 200,312 Q243,296 296,283 Q340,272 367.5,262 Q395,252 410.5,242 Q426,232 431.5,220.5 Q437,209 437,194 L437,192 Q437,161 410.5,143.5 Q384,126 336,126 Q276,126 225.5,149 Q175,172 127,211 L36,102 Q99,45 176,17.5 Q253,-10 333,-10 Q390,-10 437,4.5 Q484,19 518,46.5 Q552,74 571,114.5 Q590,155 590,207"/> 
            <glyph glyph-name="T" unicode="&#x54;" horiz-adv-x="614" d=" M614,558 L614,700 L34,700 L34,558 L247,558 L247,0 L401,0 L401,558"/> 
            <glyph glyph-name="U" unicode="&#x55;" horiz-adv-x="683" d=" M683,305 L683,700 L529,700 L529,299 Q529,215 489,173 Q449,131 378,131 Q307,131 267,174.5 Q227,218 227,304 L227,700 L73,700 L73,300 Q73,145 154,67 Q235,-11 376,-11 Q446,-11 503,8.5 Q560,28 600,67.5 Q640,107 661.5,166 Q683,225 683,305"/> 
            <glyph glyph-name="V" unicode="&#x56;" horiz-adv-x="726" d=" M726,700 L560,700 L377,207 L194,700 L24,700 L307,-5 L443,-5"/> 
            <glyph glyph-name="W" unicode="&#x57;" horiz-adv-x="1092" d=" M1092,700 L931,700 L786,226 L629,702 L497,702 L340,226 L195,700 L30,700 L269,-5 L403,-5 L561,453 L719,-5 L853,-5"/> 
            <glyph glyph-name="X" unicode="&#x58;" horiz-adv-x="701" d=" M701,0 L457,358 L691,700 L516,700 L368,473 L221,700 L41,700 L275,356 L31,0 L206,0 L364,240 L521,0"/> 
            <glyph glyph-name="Y" unicode="&#x59;" horiz-adv-x="704" d=" M704,700 L529,700 L359,419 L192,700 L12,700 L281,276 L281,0 L435,0 L435,279"/> 
            <glyph glyph-name="Z" unicode="&#x5A;" horiz-adv-x="646" d=" M646,0 L646,135 L261,135 L646,583 L646,700 L75,700 L75,565 L448,565 L63,117 L63,0"/> 
            <glyph glyph-name="[" unicode="&#x5B;" horiz-adv-x="406" d=" M406,700 L83,700 L83,-130 L406,-130 L406,-11 L229,-11 L229,581 L406,581"/> 
            <glyph glyph-name="\" unicode="&#x5C;" horiz-adv-x="558" d=" M115,798 L-14,798 L429,-128 L558,-128"/> 
            <glyph glyph-name="]" unicode="&#x5D;" horiz-adv-x="382" d=" M59,700 L59,581 L236,581 L236,-11 L59,-11 L59,-130 L382,-130 L382,700"/> 
            <glyph glyph-name="^" unicode="&#x5E;" horiz-adv-x="450" d=" M249,610 L340,493 L450,493 L302,700 L198,700 L50,493 L158,493"/> 
            <glyph glyph-name="_" unicode="&#x5F;" horiz-adv-x="602" d=" M-2,-44 L-2,-160 L602,-160 L602,-44"/> 
            <glyph glyph-name="`" unicode="&#x60;" horiz-adv-x="354" d=" M354,595 L241,772 L110,715 L238,595"/> 
            <glyph glyph-name="a" unicode="&#x61;" horiz-adv-x="529" d=" M529,0 L529,311 Q529,420 472,481 Q415,542 290,542 Q222,542 174,530 Q126,518 82,499 L120,383 Q157,397 190.5,404.5 Q224,412 268,412 Q325,412 354,387 Q383,362 383,314 L383,305 Q354,315 323.5,321 Q293,327 252,327 Q204,327 164.5,316.5 Q125,306 96.5,285 Q68,264 52,232 Q36,200 36,156 L36,154 Q36,114 50.5,83.5 Q65,53 90,32 Q115,11 148.5,0.5 Q182,-10 220,-10 Q276,-10 315,8.5 Q354,27 382,58 L382,0 M385,189 Q385,147 352.5,121 Q320,95 266,95 Q229,95 206,112 Q183,129 183,160 L183,162 Q183,198 211,217 Q239,236 288,236 Q316,236 340.5,230.5 Q365,225 385,216"/> 
            <glyph glyph-name="b" unicode="&#x62;" horiz-adv-x="631" d=" M631,267 L631,269 Q631,336 610.5,387.5 Q590,439 556,474.5 Q522,510 478,528 Q434,546 387,546 Q327,546 287.5,521.5 Q248,497 220,459 L220,730 L68,730 L68,0 L220,0 L220,70 Q247,38 286.5,14 Q326,-10 387,-10 Q435,-10 479,8 Q523,26 556.5,61.5 Q590,97 610.5,148.5 Q631,200 631,267 M479,267 Q479,233 468.5,206 Q458,179 440,159.5 Q422,140 398.5,129.5 Q375,119 348,119 Q321,119 297.5,129.5 Q274,140 256.5,159.5 Q239,179 228.5,206.5 Q218,234 218,267 L218,269 Q218,302 228.5,329.5 Q239,357 256.5,376.5 Q274,396 297.5,406.5 Q321,417 348,417 Q375,417 398.5,406.5 Q422,396 440,376.5 Q458,357 468.5,329.5 Q479,302 479,269"/> 
            <glyph glyph-name="c" unicode="&#x63;" horiz-adv-x="540" d=" M540,86 L451,176 Q423,150 394.5,134.5 Q366,119 328,119 Q297,119 272,130.5 Q247,142 229,162 Q211,182 201.5,209 Q192,236 192,267 L192,269 Q192,299 201.5,325.5 Q211,352 228.5,372 Q246,392 269.5,403.5 Q293,415 322,415 Q363,415 390.5,399 Q418,383 444,356 L537,456 Q499,498 449,522 Q399,546 323,546 Q261,546 209.5,524 Q158,502 121,464 Q84,426 63,375 Q42,324 42,267 L42,265 Q42,208 63,157.5 Q84,107 121,69.5 Q158,32 209.5,10 Q261,-12 321,-12 Q401,-12 451,15.5 Q501,43 540,86"/> 
            <glyph glyph-name="d" unicode="&#x64;" horiz-adv-x="607" d=" M607,0 L607,730 L455,730 L455,466 Q428,498 388.5,522 Q349,546 288,546 Q240,546 196,528 Q152,510 118.5,474.5 Q85,439 64.5,387.5 Q44,336 44,269 L44,267 Q44,200 64.5,148.5 Q85,97 119,61.5 Q153,26 197,8 Q241,-10 288,-10 Q348,-10 387.5,14.5 Q427,39 455,77 L455,0 M457,267 Q457,234 446.5,206.5 Q436,179 418.5,159.5 Q401,140 377.5,129.5 Q354,119 327,119 Q300,119 276.5,129.5 Q253,140 235,159.5 Q217,179 206.5,206.5 Q196,234 196,267 L196,269 Q196,303 206.5,330 Q217,357 235,376.5 Q253,396 276.5,406.5 Q300,417 327,417 Q354,417 377.5,406.5 Q401,396 418.5,376.5 Q436,357 446.5,329.5 Q457,302 457,269"/> 
            <glyph glyph-name="e" unicode="&#x65;" horiz-adv-x="568" d=" M568,253 L568,255 Q568,312 552.5,364.5 Q537,417 504.5,457.5 Q472,498 423,522 Q374,546 307,546 Q248,546 199.5,524 Q151,502 116,464 Q81,426 61.5,375 Q42,324 42,267 L42,265 Q42,203 63,152.5 Q84,102 121.5,65 Q159,28 210.5,8 Q262,-12 322,-12 Q395,-12 449,14.5 Q503,41 541,88 L454,165 Q422,136 392,123 Q362,110 324,110 Q273,110 238.5,136.5 Q204,163 193,215 L566,215 Q567,226 567.5,234 Q568,242 568,253 M420,310 L191,310 Q200,362 229.5,393 Q259,424 307,424 Q355,424 384,392.5 Q413,361 420,310"/> 
            <glyph glyph-name="f" unicode="&#x66;" horiz-adv-x="368" d=" M368,596 L368,722 Q347,729 321.5,733 Q296,737 260,737 Q179,737 136.5,695.5 Q94,654 94,565 L94,531 L31,531 L31,406 L94,406 L94,0 L246,0 L246,406 L367,406 L367,530 L244,530 L244,551 Q244,609 299,609 Q319,609 335,605.5 Q351,602 368,596"/> 
            <glyph glyph-name="g" unicode="&#x67;" horiz-adv-x="607" d=" M607,121 L607,536 L455,536 L455,466 Q424,500 384,523 Q344,546 282,546 Q236,546 193,529.5 Q150,513 117,481 Q84,449 64,402.5 Q44,356 44,296 L44,294 Q44,234 63.5,187.5 Q83,141 116,109 Q149,77 192,60.5 Q235,44 282,44 Q343,44 383,67 Q423,90 457,131 L457,105 Q457,33 419.5,-4 Q382,-41 304,-41 Q250,-41 207.5,-28 Q165,-15 123,8 L71,-106 Q122,-133 182,-147.5 Q242,-162 308,-162 Q383,-162 439,-146 Q495,-130 532.5,-96 Q570,-62 588.5,-8.5 Q607,45 607,121 M457,294 Q457,267 447,244 Q437,221 419.5,204.5 Q402,188 378,179 Q354,170 326,170 Q270,170 233,204 Q196,238 196,294 L196,296 Q196,323 206,346 Q216,369 233.5,385.5 Q251,402 274.5,411 Q298,420 326,420 Q354,420 378,411 Q402,402 419.5,385.5 Q437,369 447,346 Q457,323 457,296"/> 
            <glyph glyph-name="h" unicode="&#x68;" horiz-adv-x="559" d=" M559,0 L559,347 Q559,440 511.5,493 Q464,546 377,546 Q348,546 325,539 Q302,532 283,520 Q264,508 248.5,492.5 Q233,477 220,460 L220,730 L68,730 L68,0 L220,0 L220,299 Q220,353 245.5,380.5 Q271,408 315,408 Q359,408 383,380.5 Q407,353 407,299 L407,0"/> 
            <glyph glyph-name="i" unicode="&#x69;" horiz-adv-x="231" d=" M231,595 L231,730 L71,730 L71,595 M227,0 L227,536 L75,536 L75,0"/> 
            <glyph glyph-name="j" unicode="&#x6A;" horiz-adv-x="231" d=" M231,595 L231,730 L71,730 L71,595 M227,9 L227,536 L75,536 L75,21 Q75,-13 60,-27 Q45,-41 21,-41 Q7,-41 -11,-38 L-11,-157 Q5,-160 19.5,-161.5 Q34,-163 55,-163 Q140,-163 183.5,-121.5 Q227,-80 227,9"/> 
            <glyph glyph-name="k" unicode="&#x6B;" horiz-adv-x="587" d=" M587,0 L376,325 L580,536 L398,536 L220,341 L220,730 L68,730 L68,0 L220,0 L220,163 L273,219 L413,0"/> 
            <glyph glyph-name="l" unicode="&#x6C;" horiz-adv-x="227" d=" M227,0 L227,730 L75,730 L75,0"/> 
            <glyph glyph-name="m" unicode="&#x6D;" horiz-adv-x="886" d=" M886,0 L886,349 Q886,446 838,496 Q790,546 705,546 Q650,546 607,524.5 Q564,503 529,461 Q508,502 469.5,524 Q431,546 378,546 Q349,546 325.5,539 Q302,532 283,520 Q264,508 248.5,492.5 Q233,477 220,460 L220,536 L68,536 L68,0 L220,0 L220,299 Q220,353 244.5,380.5 Q269,408 312,408 Q355,408 378,380.5 Q401,353 401,299 L401,0 L553,0 L553,299 Q553,353 577.5,380.5 Q602,408 645,408 Q688,408 711,380.5 Q734,353 734,299 L734,0"/> 
            <glyph glyph-name="n" unicode="&#x6E;" horiz-adv-x="559" d=" M559,0 L559,347 Q559,440 511.5,493 Q464,546 377,546 Q348,546 325,539 Q302,532 283,520 Q264,508 248.5,492.5 Q233,477 220,460 L220,536 L68,536 L68,0 L220,0 L220,299 Q220,353 245.5,380.5 Q271,408 315,408 Q359,408 383,380.5 Q407,353 407,299 L407,0"/> 
            <glyph glyph-name="o" unicode="&#x6F;" horiz-adv-x="622" d=" M622,267 L622,269 Q622,327 600,377.5 Q578,428 539.5,465.5 Q501,503 448,524.5 Q395,546 333,546 Q270,546 217,524 Q164,502 125,464 Q86,426 64,375.5 Q42,325 42,267 L42,265 Q42,207 64,156.5 Q86,106 124.5,68.5 Q163,31 216,9.5 Q269,-12 331,-12 Q394,-12 447,10 Q500,32 539,70 Q578,108 600,158.5 Q622,209 622,267 M472,265 Q472,235 462.5,208.5 Q453,182 435,162 Q417,142 391.5,130.5 Q366,119 333,119 Q301,119 275.5,131 Q250,143 231,163.5 Q212,184 202,210.5 Q192,237 192,267 L192,269 Q192,299 201.5,325.5 Q211,352 229,372 Q247,392 272.5,403.5 Q298,415 331,415 Q362,415 388,403 Q414,391 433,370.5 Q452,350 462,323.5 Q472,297 472,267"/> 
            <glyph glyph-name="p" unicode="&#x70;" horiz-adv-x="631" d=" M631,267 L631,269 Q631,336 610.5,387.5 Q590,439 556,474.5 Q522,510 478,528 Q434,546 387,546 Q327,546 287.5,521.5 Q248,497 220,459 L220,536 L68,536 L68,-160 L220,-160 L220,70 Q247,38 286.5,14 Q326,-10 387,-10 Q435,-10 479,8 Q523,26 556.5,61.5 Q590,97 610.5,148.5 Q631,200 631,267 M479,267 Q479,233 468.5,206 Q458,179 440,159.5 Q422,140 398.5,129.5 Q375,119 348,119 Q321,119 297.5,129.5 Q274,140 256.5,159.5 Q239,179 228.5,206.5 Q218,234 218,267 L218,269 Q218,302 228.5,329.5 Q239,357 256.5,376.5 Q274,396 297.5,406.5 Q321,417 348,417 Q375,417 398.5,406.5 Q422,396 440,376.5 Q458,357 468.5,329.5 Q479,302 479,269"/> 
            <glyph glyph-name="q" unicode="&#x71;" horiz-adv-x="607" d=" M607,-160 L607,536 L455,536 L455,466 Q428,498 388.5,522 Q349,546 288,546 Q240,546 196,528 Q152,510 118.5,474.5 Q85,439 64.5,387.5 Q44,336 44,269 L44,267 Q44,200 64.5,148.5 Q85,97 119,61.5 Q153,26 197,8 Q241,-10 288,-10 Q348,-10 387.5,14.5 Q427,39 455,77 L455,-160 M457,267 Q457,234 446.5,206.5 Q436,179 418.5,159.5 Q401,140 377.5,129.5 Q354,119 327,119 Q300,119 276.5,129.5 Q253,140 235,159.5 Q217,179 206.5,206.5 Q196,234 196,267 L196,269 Q196,303 206.5,330 Q217,357 235,376.5 Q253,396 276.5,406.5 Q300,417 327,417 Q354,417 377.5,406.5 Q401,396 418.5,376.5 Q436,357 446.5,329.5 Q457,302 457,269"/> 
            <glyph glyph-name="r" unicode="&#x72;" horiz-adv-x="391" d=" M391,387 L391,546 Q323,549 283,516 Q243,483 220,428 L220,536 L68,536 L68,0 L220,0 L220,198 Q220,295 263.5,341 Q307,387 383,387"/> 
            <glyph glyph-name="s" unicode="&#x73;" horiz-adv-x="461" d=" M461,163 L461,165 Q461,202 446,228 Q431,254 408,272 Q385,290 356,302.5 Q327,315 299,324 Q277,331 257.5,338 Q238,345 223,352.5 Q208,360 199,368.5 Q190,377 190,388 L190,390 Q190,406 204,416.5 Q218,427 246,427 Q275,427 313,413.5 Q351,400 391,377 L449,482 Q405,511 352.5,527.5 Q300,544 249,544 Q208,544 172.5,533 Q137,522 110.5,500 Q84,478 68.5,446.5 Q53,415 53,374 L53,372 Q53,333 67.5,306 Q82,279 105,260.5 Q128,242 156.5,230.5 Q185,219 213,211 Q235,204 255,198 Q275,192 290.5,185.5 Q306,179 315,170 Q324,161 324,149 L324,147 Q324,129 308.5,118 Q293,107 260,107 Q222,107 178.5,123 Q135,139 91,171 L26,71 Q80,29 139.5,9.5 Q199,-10 256,-10 Q299,-10 336.5,0.5 Q374,11 402,32 Q430,53 445.5,85.5 Q461,118 461,163"/> 
            <glyph glyph-name="t" unicode="&#x74;" horiz-adv-x="371" d=" M369,22 L369,144 Q334,125 294,125 Q245,125 245,177 L245,406 L371,406 L371,536 L245,536 L245,673 L93,673 L93,536 L29,536 L29,406 L93,406 L93,152 Q93,105 104.5,74.5 Q116,44 136.5,25 Q157,6 185.5,-1.5 Q214,-9 249,-9 Q287,-9 316,-0.5 Q345,8 369,22"/> 
            <glyph glyph-name="u" unicode="&#x75;" horiz-adv-x="555" d=" M555,0 L555,536 L403,536 L403,237 Q403,183 377.5,155.5 Q352,128 308,128 Q264,128 240,155.5 Q216,183 216,237 L216,536 L64,536 L64,189 Q64,96 111.5,43 Q159,-10 246,-10 Q275,-10 298,-3 Q321,4 340,16 Q359,28 374.5,43.5 Q390,59 403,76 L403,0"/> 
            <glyph glyph-name="v" unicode="&#x76;" horiz-adv-x="580" d=" M580,536 L422,536 L301,177 L181,536 L20,536 L231,-4 L369,-4"/> 
            <glyph glyph-name="w" unicode="&#x77;" horiz-adv-x="837" d=" M837,536 L686,536 L598,210 L496,538 L365,538 L264,211 L178,536 L24,536 L189,-4 L325,-4 L430,325 L533,-4 L670,-4"/> 
            <glyph glyph-name="x" unicode="&#x78;" horiz-adv-x="561" d=" M561,0 L372,275 L553,536 L394,536 L293,380 L193,536 L30,536 L211,272 L23,0 L182,0 L290,167 L398,0"/> 
            <glyph glyph-name="y" unicode="&#x79;" horiz-adv-x="578" d=" M578,536 L420,536 L303,171 L181,536 L20,536 L230,-2 Q220,-22 208.5,-29.5 Q197,-37 177,-37 Q162,-37 144.5,-31 Q127,-25 112,-16 L61,-126 Q90,-143 122,-153 Q154,-163 196,-163 Q230,-163 256,-155 Q282,-147 302.5,-129 Q323,-111 340,-82.5 Q357,-54 372,-13"/> 
            <glyph glyph-name="z" unicode="&#x7A;" horiz-adv-x="516" d=" M516,0 L516,123 L238,123 L516,429 L516,536 L59,536 L59,413 L327,413 L50,107 L50,0"/> 
            <glyph glyph-name="{" unicode="&#x7B;" horiz-adv-x="443" d=" M443,614 L416,715 Q347,703 302,685 Q257,667 230.5,642.5 Q204,618 193,586.5 Q182,555 182,517 Q182,511 182.5,502 Q183,493 183.5,483 Q184,473 184.5,463.5 Q185,454 185,448 Q185,389 159.5,367 Q134,345 75,345 L49,345 L49,229 L75,229 Q134,229 159.5,207 Q185,185 185,126 Q185,120 184.5,110.5 Q184,101 183.5,91 Q183,81 182.5,72 Q182,63 182,57 Q182,19 193,-12.5 Q204,-44 230.5,-68.5 Q257,-93 302,-111 Q347,-129 416,-141 L443,-40 Q403,-29 379,-17.5 Q355,-6 342,8 Q329,22 325,39 Q321,56 321,79 Q321,94 322.5,115.5 Q324,137 324,153 Q324,208 297.5,239 Q271,270 220,287 Q271,304 297.5,335 Q324,366 324,421 Q324,437 322.5,458.5 Q321,480 321,495 Q321,518 325,535 Q329,552 342,566 Q355,580 379,591.5 Q403,603 443,614"/> 
            <glyph glyph-name="|" unicode="&#x7C;" horiz-adv-x="235" d=" M235,-128 L235,798 L115,798 L115,-128"/> 
            <glyph glyph-name="}" unicode="&#x7D;" horiz-adv-x="441" d=" M441,229 L441,345 L415,345 Q356,345 330.5,367 Q305,389 305,448 Q305,454 305.5,463.5 Q306,473 306.5,483 Q307,493 307.5,502 Q308,511 308,517 Q308,555 297,586.5 Q286,618 259.5,642.5 Q233,667 188,685 Q143,703 74,715 L47,614 Q87,603 111,591.5 Q135,580 148,566 Q161,552 165,535 Q169,518 169,495 Q169,480 167.5,458.5 Q166,437 166,421 Q166,366 192.5,335 Q219,304 270,287 Q219,270 192.5,239 Q166,208 166,153 Q166,137 167.5,115.5 Q169,94 169,79 Q169,56 165,39 Q161,22 148,8 Q135,-6 111,-17.5 Q87,-29 47,-40 L74,-141 Q143,-129 188,-111 Q233,-93 259.5,-68.5 Q286,-44 297,-12.5 Q308,19 308,57 Q308,63 307.5,72 Q307,81 306.5,91 Q306,101 305.5,110.5 Q305,120 305,126 Q305,185 330.5,207 Q356,229 415,229"/> 
            <glyph glyph-name="~" unicode="&#x7E;" horiz-adv-x="461" d=" M461,372 L380,397 Q369,373 357.5,360.5 Q346,348 323,348 Q309,348 293,354 Q277,360 258,367.5 Q239,375 217.5,381 Q196,387 173,387 Q147,387 127.5,377 Q108,367 93.5,349 Q79,331 68.5,305.5 Q58,280 49,249 L130,224 Q141,248 152.5,260.5 Q164,273 187,273 Q200,273 216.5,267 Q233,261 252,253.5 Q271,246 292.5,240 Q314,234 337,234 Q389,234 416.5,271.5 Q444,309 461,372"/> 
            <glyph glyph-name="¡" unicode="&#xA1;" horiz-adv-x="251" d=" M81,700 L81,540 L243,540 L243,700 M251,0 L251,20 L204,462 L120,462 L73,20 L73,0"/> 
            <glyph glyph-name="¢" unicode="&#xA2;" horiz-adv-x="542" d=" M348,208 L403,484 Q417,477 428.5,468 Q440,459 452,447 L542,544 Q519,569 493,588 Q467,607 434,618 L451,706 L347,706 L333,634 L327,634 Q266,634 214.5,612 Q163,590 126,552 Q89,514 68,463 Q47,412 47,354 Q47,309 60,267.5 Q73,226 97,192 Q121,158 154,132.5 Q187,107 227,92 L208,-6 L312,-6 L328,76 Q401,78 452,105.5 Q503,133 542,177 L456,264 Q432,241 406,226.5 Q380,212 348,208 M312,503 L258,226 Q227,246 210.5,280 Q194,314 194,356 Q194,385 202.5,410.5 Q211,436 226.5,456 Q242,476 264,488.5 Q286,501 312,503"/> 
            <glyph glyph-name="£" unicode="&#xA3;" horiz-adv-x="598" d=" M136,394 L60,394 L60,267 L136,267 L136,126 L60,101 L60,0 L596,0 L596,133 L292,133 L292,267 L520,267 L520,394 L292,394 L292,471 Q292,516 314.5,541.5 Q337,567 375,567 Q407,567 431,550.5 Q455,534 481,501 L598,595 Q580,619 558.5,640 Q537,661 510,676.5 Q483,692 449,701 Q415,710 373,710 Q258,710 197,648 Q136,586 136,475"/> 
            <glyph glyph-name="¤" unicode="&#xA4;" horiz-adv-x="682" d=" M124,386 Q123,377 123,367 Q123,358 123,349 Q123,341 123,333 Q123,326 124,318 L49,318 L49,217 L141,217 Q156,166 182.5,123.5 Q209,81 246.5,51 Q284,21 332,4.5 Q380,-12 437,-12 Q523,-12 580.5,26 Q638,64 682,126 L572,207 Q539,166 509.5,145.5 Q480,125 437,125 Q389,125 355,148.5 Q321,172 302,217 L488,217 L488,318 L280,318 Q279,326 279,334 Q279,343 279,351 Q279,360 279,369 Q279,378 280,386 L488,386 L488,487 L304,487 Q323,529 354.5,552 Q386,575 431,575 Q475,575 505,554.5 Q535,534 564,496 L680,584 Q660,612 636.5,635.5 Q613,659 583.5,676 Q554,693 517,702.5 Q480,712 434,712 Q378,712 331.5,695.5 Q285,679 248.5,649 Q212,619 185,577.5 Q158,536 143,487 L49,487 L49,386"/> 
            <glyph glyph-name="¥" unicode="&#xA5;" horiz-adv-x="672" d=" M417,262 L601,262 L601,370 L456,370 L672,700 L500,700 L345,441 L191,700 L14,700 L228,370 L85,370 L85,262 L269,262 L269,200 L85,200 L85,92 L269,92 L269,0 L417,0 L417,92 L601,92 L601,200 L417,200"/> 
            <glyph glyph-name="§" unicode="&#xA7;" horiz-adv-x="577" d=" M577,356 Q577,385 564.5,407 Q552,429 525,446.5 Q498,464 456,478.5 Q414,493 355,506 Q319,514 297.5,520.5 Q276,527 264.5,533.5 Q253,540 249,546.5 Q245,553 245,562 Q245,579 261,589 Q277,599 311,599 Q353,599 388,582 Q423,565 458,533 L540,615 Q498,661 441,685.5 Q384,710 307,710 Q209,710 155.5,668 Q102,626 102,554 Q102,528 112,503.5 Q122,479 144,462 Q106,448 80.5,421 Q55,394 55,344 Q55,315 67.5,293 Q80,271 107,253.5 Q134,236 176,221.5 Q218,207 277,194 Q313,186 334.5,179.5 Q356,173 367.5,166.5 Q379,160 383,153.5 Q387,147 387,138 Q387,121 371,111 Q355,101 321,101 Q279,101 244,118 Q209,135 174,167 L92,85 Q134,39 191,14.5 Q248,-10 325,-10 Q423,-10 476.5,32 Q530,74 530,146 Q530,172 520,196.5 Q510,221 488,238 Q526,252 551.5,279 Q577,306 577,356 M444,334 Q444,314 429.5,301.5 Q415,289 389,289 Q373,289 350.5,293 Q328,297 289,307 Q237,320 212.5,333 Q188,346 188,366 Q188,386 202.5,398.5 Q217,411 243,411 Q259,411 281.5,407 Q304,403 343,393 Q395,380 419.5,367 Q444,354 444,334"/> 
            <glyph glyph-name="¨" unicode="&#xA8;" horiz-adv-x="430" d=" M430,595 L430,730 L284,730 L284,595 M216,595 L216,730 L70,730 L70,595"/> 
            <glyph glyph-name="©" unicode="&#xA9;" horiz-adv-x="777" d=" M777,351 Q777,425 749,491 Q721,557 672.5,606 Q624,655 558,683.5 Q492,712 416,712 Q340,712 273.5,683 Q207,654 158,604.5 Q109,555 81,489 Q53,423 53,349 Q53,275 81,209 Q109,143 157.5,94 Q206,45 272,16.5 Q338,-12 414,-12 Q490,-12 556.5,17 Q623,46 672,95.5 Q721,145 749,211 Q777,277 777,351 M735,351 Q735,284 710.5,225.5 Q686,167 643,123 Q600,79 541.5,53.5 Q483,28 414,28 Q346,28 287.5,53 Q229,78 186,121.5 Q143,165 119,223.5 Q95,282 95,349 Q95,416 119.5,474.5 Q144,533 187,577 Q230,621 288.5,646.5 Q347,672 416,672 Q484,672 542.5,647 Q601,622 643.5,578.5 Q686,535 710.5,476.5 Q735,418 735,351 M577,225 L521,281 Q498,261 476,248.5 Q454,236 422,236 Q398,236 377.5,245.5 Q357,255 342.5,271 Q328,287 320,309 Q312,331 312,355 Q312,380 320,401.5 Q328,423 343,439 Q358,455 378,464.5 Q398,474 422,474 Q450,474 473.5,462.5 Q497,451 519,431 L574,495 Q547,521 512,537.5 Q477,554 422,554 Q378,554 341,538 Q304,522 277.5,495 Q251,468 236.5,431.5 Q222,395 222,354 Q222,312 237,276 Q252,240 278,213.5 Q304,187 340.5,171.5 Q377,156 419,156 Q475,156 511,174.5 Q547,193 577,225"/> 
            <glyph glyph-name="ª" unicode="&#xAA;" horiz-adv-x="327" d=" M323,405 L323,576 Q323,636 292,669.5 Q261,703 192,703 Q154,703 128,696.5 Q102,690 77,679 L98,616 Q118,624 137,628 Q156,632 179,632 Q211,632 227,618 Q243,604 243,578 L243,573 Q227,578 210,581.5 Q193,585 171,585 Q118,585 85,562 Q52,539 52,490 Q52,445 81.5,422 Q111,399 153,399 Q184,399 205.5,409.5 Q227,420 242,437 L242,405 M327,277 L327,343 L49,343 L49,277 M244,509 Q244,486 225.5,471.5 Q207,457 178,457 Q158,457 145.5,466.5 Q133,476 133,494 Q133,514 148.5,524.5 Q164,535 190,535 Q206,535 219.5,532 Q233,529 244,524"/> 
            <glyph glyph-name="«" unicode="&#xAB;" horiz-adv-x="597" d=" M481,496 L313,272 L313,264 L481,40 L597,98 L467,269 L597,440 M209,496 L41,272 L41,264 L209,40 L325,98 L195,269 L325,440"/> 
            <glyph glyph-name="®" unicode="&#xAE;" horiz-adv-x="777" d=" M777,351 Q777,425 749,491 Q721,557 672.5,606 Q624,655 558,683.5 Q492,712 416,712 Q340,712 273.5,683 Q207,654 158,604.5 Q109,555 81,489 Q53,423 53,349 Q53,275 81,209 Q109,143 157.5,94 Q206,45 272,16.5 Q338,-12 414,-12 Q490,-12 556.5,17 Q623,46 672,95.5 Q721,145 749,211 Q777,277 777,351 M735,351 Q735,284 710.5,225.5 Q686,167 643,123 Q600,79 541.5,53.5 Q483,28 414,28 Q346,28 287.5,53 Q229,78 186,121.5 Q143,165 119,223.5 Q95,282 95,349 Q95,416 119.5,474.5 Q144,533 187,577 Q230,621 288.5,646.5 Q347,672 416,672 Q484,672 542.5,647 Q601,622 643.5,578.5 Q686,535 710.5,476.5 Q735,418 735,351 M588,426 Q588,486 547,519.5 Q506,553 437,553 L266,553 L266,168 L351,168 L351,292 L418,292 L500,168 L599,168 L505,306 Q542,320 565,349 Q588,378 588,426 M502,421 Q502,396 485,380.5 Q468,365 436,365 L351,365 L351,478 L434,478 Q466,478 484,464 Q502,450 502,421"/> 
            <glyph glyph-name="¯" unicode="&#xAF;" horiz-adv-x="430" d=" M430,600 L430,705 L70,705 L70,600"/> 
            <glyph glyph-name="°" unicode="&#xB0;" horiz-adv-x="413" d=" M413,537 Q413,571 399,601.5 Q385,632 361,655.5 Q337,679 305.5,692.5 Q274,706 240,706 Q206,706 174.5,692.5 Q143,679 119,655.5 Q95,632 81,601.5 Q67,571 67,537 Q67,503 81,472.5 Q95,442 119,418.5 Q143,395 174.5,381.5 Q206,368 240,368 Q274,368 305.5,381.5 Q337,395 361,418.5 Q385,442 399,472.5 Q413,503 413,537 M332,537 Q332,518 325,501 Q318,484 306,471 Q294,458 277,450.5 Q260,443 240,443 Q220,443 203,450.5 Q186,458 174,471 Q162,484 155,501 Q148,518 148,537 Q148,556 155,573 Q162,590 174,603 Q186,616 203,623.5 Q220,631 240,631 Q260,631 277,623.5 Q294,616 306,603 Q318,590 325,573 Q332,556 332,537"/> 
            <glyph glyph-name="±" unicode="&#xB1;" horiz-adv-x="570" d=" M570,207 Q570,269 538.5,304 Q507,339 459,360 Q500,383 525.5,421 Q551,459 551,523 Q551,565 533.5,599.5 Q516,634 483,659 Q450,684 404,698 Q358,712 301,712 Q256,712 220,703 Q184,694 154,677 Q124,660 99,636.5 Q74,613 50,583 L156,493 Q188,529 221,551.5 Q254,574 299,574 Q347,574 373.5,553 Q400,532 400,499 Q400,463 372.5,440 Q345,417 291,417 L210,417 L210,289 L287,289 Q350,289 384.5,269 Q419,249 419,209 Q419,171 392.5,148.5 Q366,126 316,126 Q259,126 217,148 Q175,170 140,207 L37,107 Q88,52 157.5,20 Q227,-12 314,-12 Q375,-12 423,4.5 Q471,21 503.5,50 Q536,79 553,119.5 Q570,160 570,207"/> 
            <glyph glyph-name="´" unicode="&#xB4;" horiz-adv-x="390" d=" M262,595 L390,715 L259,772 L146,595"/> 
            <glyph glyph-name="µ" unicode="&#xB5;" horiz-adv-x="861" d=" M797,351 Q797,426 769.5,492 Q742,558 692.5,606.5 Q643,655 575,683.5 Q507,712 426,712 Q345,712 276.5,683.5 Q208,655 158.5,605.5 Q109,556 81,490 Q53,424 53,349 Q53,274 80.5,208 Q108,142 157.5,93.5 Q207,45 275,16.5 Q343,-12 424,-12 Q479,-12 530,2 L635,-101 L861,-101 L861,-91 L683,89 Q737,139 767,206.5 Q797,274 797,351 M636,349 Q636,304 620.5,264 Q605,224 577.5,194 Q550,164 511,147 Q472,130 426,130 Q379,130 340.5,147.5 Q302,165 273.5,195 Q245,225 229.5,265.5 Q214,306 214,351 Q214,396 229.5,436 Q245,476 272.5,506 Q300,536 338.5,553 Q377,570 424,570 Q470,570 509,552.5 Q548,535 576.5,505 Q605,475 620.5,434.5 Q636,394 636,349"/> 
            <glyph glyph-name="¶" unicode="&#xB6;" horiz-adv-x="506" d=" M311,700 Q249,700 198.5,684 Q148,668 111.5,637.5 Q75,607 55,563 Q35,519 35,464 Q35,405 57,361.5 Q79,318 118.5,288.5 Q158,259 211.5,244.5 Q265,230 328,230 L352,230 L352,0 L506,0 L506,700"/> 
            <glyph glyph-name="·" unicode="&#xB7;" horiz-adv-x="224" d=" M224,230 L224,390 L62,390 L62,230"/> 
            <glyph glyph-name="¸" unicode="&#xB8;" horiz-adv-x="319" d=" M207,10 L118,-120 L245,-173 L319,10"/> 
            <glyph glyph-name="º" unicode="&#xBA;" horiz-adv-x="349" d=" M349,552 Q349,584 337.5,612 Q326,640 305.5,660.5 Q285,681 257,693 Q229,705 196,705 Q163,705 134.5,693 Q106,681 85.5,660 Q65,639 53,611 Q41,583 41,551 Q41,519 52.5,491 Q64,463 84.5,442.5 Q105,422 133,410 Q161,398 194,398 Q227,398 255.5,410 Q284,422 304.5,443 Q325,464 337,492 Q349,520 349,552 M339,277 L339,343 L51,343 L51,277 M267,551 Q267,518 248,494 Q229,470 196,470 Q163,470 143,494.5 Q123,519 123,552 Q123,585 142,609 Q161,633 194,633 Q227,633 247,608.5 Q267,584 267,551"/> 
            <glyph glyph-name="»" unicode="&#xBB;" horiz-adv-x="604" d=" M436,40 L604,264 L604,272 L436,496 L320,438 L450,267 L320,96 M164,40 L332,264 L332,272 L164,496 L48,438 L178,267 L48,96"/> 
            <glyph glyph-name="¿" unicode="&#xBF;" horiz-adv-x="524" d=" M218,700 L218,540 L380,540 L380,700 M365,295 L370,300 L347,462 L245,462 L234,401 Q193,393 157,378.5 Q121,364 94.5,340 Q68,316 52.5,281.5 Q37,247 37,199 Q37,149 54.5,110 Q72,71 104,44.5 Q136,18 180.5,4.5 Q225,-9 279,-9 Q361,-9 420.5,21 Q480,51 524,99 L432,200 Q397,165 360.5,148 Q324,131 282,131 Q238,131 214,149.5 Q190,168 190,203 Q190,244 230,267.5 Q270,291 365,295"/> 
            <glyph glyph-name="À" unicode="&#xC0;" horiz-adv-x="766" d=" M766,0 L466,705 L324,705 L24,0 L181,0 L245,157 L541,157 L605,0 M486,293 L300,293 L393,520 M459,755 L346,932 L215,875 L343,755"/> 
            <glyph glyph-name="Á" unicode="&#xC1;" horiz-adv-x="766" d=" M766,0 L466,705 L324,705 L24,0 L181,0 L245,157 L541,157 L605,0 M486,293 L300,293 L393,520 M447,755 L575,875 L444,932 L331,755"/> 
            <glyph glyph-name="Â" unicode="&#xC2;" horiz-adv-x="766" d=" M766,0 L466,705 L324,705 L24,0 L181,0 L245,157 L541,157 L605,0 M486,293 L300,293 L393,520 M394,821 L473,755 L590,755 L467,912 L323,912 L200,755 L315,755"/> 
            <glyph glyph-name="Ã" unicode="&#xC3;" horiz-adv-x="766" d=" M766,0 L466,705 L324,705 L24,0 L181,0 L245,157 L541,157 L605,0 M486,293 L300,293 L393,520 M601,893 L520,918 Q509,894 497.5,881.5 Q486,869 463,869 Q449,869 433,875 Q417,881 398,888.5 Q379,896 357.5,902 Q336,908 313,908 Q287,908 267.5,898 Q248,888 233.5,870 Q219,852 208.5,826.5 Q198,801 189,770 L270,745 Q281,769 292.5,781.5 Q304,794 327,794 Q340,794 356.5,788 Q373,782 392,774.5 Q411,767 432.5,761 Q454,755 477,755 Q529,755 556.5,792.5 Q584,830 601,893"/> 
            <glyph glyph-name="Ä" unicode="&#xC4;" horiz-adv-x="766" d=" M766,0 L466,705 L324,705 L24,0 L181,0 L245,157 L541,157 L605,0 M486,293 L300,293 L393,520 M575,755 L575,890 L429,890 L429,755 M361,755 L361,890 L215,890 L215,755"/> 
            <glyph glyph-name="Å" unicode="&#xC5;" horiz-adv-x="766" d=" M766,0 L474,687 Q493,704 504.5,726.5 Q516,749 516,775 Q516,799 506,820.5 Q496,842 479.5,857.5 Q463,873 441,882.5 Q419,892 395,892 Q371,892 349,882.5 Q327,873 310.5,857.5 Q294,842 284,820.5 Q274,799 274,775 Q274,749 285.5,726.5 Q297,704 316,687 L24,0 L181,0 L245,157 L541,157 L605,0 M457,775 Q457,749 439,731 Q421,713 395,713 Q369,713 351,731 Q333,749 333,775 Q333,801 351,819 Q369,837 395,837 Q421,837 439,819 Q457,801 457,775 M486,293 L300,293 L393,520"/> 
            <glyph glyph-name="Æ" unicode="&#xC6;" horiz-adv-x="992" d=" M992,0 L992,137 L637,137 L637,284 L942,284 L942,421 L637,421 L637,563 L987,563 L987,700 L386,700 L9,0 L166,0 L249,157 L484,157 L484,0 M484,293 L321,293 L466,567 L484,567"/> 
            <glyph glyph-name="Ç" unicode="&#xC7;" horiz-adv-x="699" d=" M326,-2 L246,-120 L373,-173 L438,-11 Q483,-9 520,0.5 Q557,10 588.5,26 Q620,42 647,64 Q674,86 699,113 L601,212 Q560,174 518.5,152 Q477,130 417,130 Q372,130 334.5,147.5 Q297,165 270.5,195 Q244,225 229,265.5 Q214,306 214,351 Q214,396 229,436 Q244,476 271,506 Q298,536 335.5,553 Q373,570 417,570 Q470,570 512.5,549 Q555,528 596,491 L694,604 Q670,628 642,648 Q614,668 581,682 Q548,696 507.5,704 Q467,712 418,712 Q337,712 270,683.5 Q203,655 155,605.5 Q107,556 80,490 Q53,424 53,349 Q53,284 73,226.5 Q93,169 129,122.5 Q165,76 215.5,44 Q266,12 326,-2"/> 
            <glyph glyph-name="È" unicode="&#xC8;" horiz-adv-x="617" d=" M617,0 L617,137 L237,137 L237,284 L567,284 L567,421 L237,421 L237,563 L612,563 L612,700 L84,700 L84,0 M433,755 L320,932 L189,875 L317,755"/> 
            <glyph glyph-name="É" unicode="&#xC9;" horiz-adv-x="617" d=" M617,0 L617,137 L237,137 L237,284 L567,284 L567,421 L237,421 L237,563 L612,563 L612,700 L84,700 L84,0 M380,755 L508,875 L377,932 L264,755"/> 
            <glyph glyph-name="Ê" unicode="&#xCA;" horiz-adv-x="617" d=" M617,0 L617,137 L237,137 L237,284 L567,284 L567,421 L237,421 L237,563 L612,563 L612,700 L84,700 L84,0 M345,821 L424,755 L541,755 L418,912 L274,912 L151,755 L266,755"/> 
            <glyph glyph-name="Ë" unicode="&#xCB;" horiz-adv-x="617" d=" M617,0 L617,137 L237,137 L237,284 L567,284 L567,421 L237,421 L237,563 L612,563 L612,700 L84,700 L84,0 M526,755 L526,890 L380,890 L380,755 M312,755 L312,890 L166,890 L166,755"/> 
            <glyph glyph-name="Ì" unicode="&#xCC;" horiz-adv-x="336" d=" M245,0 L245,700 L91,700 L91,0 M65872,755 L65759,932 L65628,875 L65756,755"/> 
            <glyph glyph-name="Í" unicode="&#xCD;" horiz-adv-x="349" d=" M245,0 L245,700 L91,700 L91,0 M65757,755 L65885,875 L65754,932 L65641,755"/> 
            <glyph glyph-name="Î" unicode="&#xCE;" horiz-adv-x="481" d=" M245,0 L245,700 L91,700 L91,0 M285,821 L364,755 L481,755 L358,912 L214,912 L91,755 L206,755"/> 
            <glyph glyph-name="Ï" unicode="&#xCF;" horiz-adv-x="451" d=" M245,0 L245,700 L91,700 L91,0 M451,755 L451,890 L305,890 L305,755 M237,755 L237,890 L91,890 L91,755"/> 
            <glyph glyph-name="Ð" unicode="&#xD0;" horiz-adv-x="759" d=" M114,284 L114,0 L387,0 Q469,0 537.5,27 Q606,54 655.5,101 Q705,148 732,212.5 Q759,277 759,351 Q759,425 732,489 Q705,553 655.5,600 Q606,647 537.5,673.5 Q469,700 387,700 L114,700 L114,420 L39,420 L39,284 M266,420 L266,561 L387,561 Q434,561 473,545.5 Q512,530 539.5,502 Q567,474 582.5,435 Q598,396 598,349 Q598,302 582.5,263.5 Q567,225 539.5,197 Q512,169 473,154 Q434,139 387,139 L266,139 L266,284 L418,284 L418,420"/> 
            <glyph glyph-name="Ñ" unicode="&#xD1;" horiz-adv-x="706" d=" M706,0 L706,700 L554,700 L554,269 L226,700 L84,700 L84,0 L236,0 L236,445 L575,0 M601,893 L520,918 Q509,894 497.5,881.5 Q486,869 463,869 Q449,869 433,875 Q417,881 398,888.5 Q379,896 357.5,902 Q336,908 313,908 Q287,908 267.5,898 Q248,888 233.5,870 Q219,852 208.5,826.5 Q198,801 189,770 L270,745 Q281,769 292.5,781.5 Q304,794 327,794 Q340,794 356.5,788 Q373,782 392,774.5 Q411,767 432.5,761 Q454,755 477,755 Q529,755 556.5,792.5 Q584,830 601,893"/> 
            <glyph glyph-name="Ò" unicode="&#xD2;" horiz-adv-x="797" d=" M797,350 L797,352 Q797,427 769.5,492.5 Q742,558 692.5,606.5 Q643,655 575,683.5 Q507,712 426,712 Q345,712 276.5,683.5 Q208,655 158.5,605.5 Q109,556 81,490.5 Q53,425 53,350 L53,348 Q53,273 80.5,207.5 Q108,142 157.5,93.5 Q207,45 275,16.5 Q343,-12 424,-12 Q505,-12 573.5,16.5 Q642,45 691.5,94.5 Q741,144 769,209.5 Q797,275 797,350 M636,348 Q636,303 620.5,263.5 Q605,224 577.5,194 Q550,164 511,147 Q472,130 426,130 Q379,130 340.5,147.5 Q302,165 273.5,195 Q245,225 229.5,265 Q214,305 214,350 L214,352 Q214,397 229.5,436.5 Q245,476 272.5,506 Q300,536 338.5,553 Q377,570 424,570 Q470,570 509,552.5 Q548,535 576.5,505 Q605,475 620.5,435 Q636,395 636,350 M479,755 L366,932 L235,875 L363,755"/> 
            <glyph glyph-name="Ó" unicode="&#xD3;" horiz-adv-x="797" d=" M797,350 L797,352 Q797,427 769.5,492.5 Q742,558 692.5,606.5 Q643,655 575,683.5 Q507,712 426,712 Q345,712 276.5,683.5 Q208,655 158.5,605.5 Q109,556 81,490.5 Q53,425 53,350 L53,348 Q53,273 80.5,207.5 Q108,142 157.5,93.5 Q207,45 275,16.5 Q343,-12 424,-12 Q505,-12 573.5,16.5 Q642,45 691.5,94.5 Q741,144 769,209.5 Q797,275 797,350 M636,348 Q636,303 620.5,263.5 Q605,224 577.5,194 Q550,164 511,147 Q472,130 426,130 Q379,130 340.5,147.5 Q302,165 273.5,195 Q245,225 229.5,265 Q214,305 214,350 L214,352 Q214,397 229.5,436.5 Q245,476 272.5,506 Q300,536 338.5,553 Q377,570 424,570 Q470,570 509,552.5 Q548,535 576.5,505 Q605,475 620.5,435 Q636,395 636,350 M487,755 L615,875 L484,932 L371,755"/> 
            <glyph glyph-name="Ô" unicode="&#xD4;" horiz-adv-x="797" d=" M797,350 L797,352 Q797,427 769.5,492.5 Q742,558 692.5,606.5 Q643,655 575,683.5 Q507,712 426,712 Q345,712 276.5,683.5 Q208,655 158.5,605.5 Q109,556 81,490.5 Q53,425 53,350 L53,348 Q53,273 80.5,207.5 Q108,142 157.5,93.5 Q207,45 275,16.5 Q343,-12 424,-12 Q505,-12 573.5,16.5 Q642,45 691.5,94.5 Q741,144 769,209.5 Q797,275 797,350 M636,348 Q636,303 620.5,263.5 Q605,224 577.5,194 Q550,164 511,147 Q472,130 426,130 Q379,130 340.5,147.5 Q302,165 273.5,195 Q245,225 229.5,265 Q214,305 214,350 L214,352 Q214,397 229.5,436.5 Q245,476 272.5,506 Q300,536 338.5,553 Q377,570 424,570 Q470,570 509,552.5 Q548,535 576.5,505 Q605,475 620.5,435 Q636,395 636,350 M424,821 L503,755 L620,755 L497,912 L353,912 L230,755 L345,755"/> 
            <glyph glyph-name="Õ" unicode="&#xD5;" horiz-adv-x="797" d=" M797,350 L797,352 Q797,427 769.5,492.5 Q742,558 692.5,606.5 Q643,655 575,683.5 Q507,712 426,712 Q345,712 276.5,683.5 Q208,655 158.5,605.5 Q109,556 81,490.5 Q53,425 53,350 L53,348 Q53,273 80.5,207.5 Q108,142 157.5,93.5 Q207,45 275,16.5 Q343,-12 424,-12 Q505,-12 573.5,16.5 Q642,45 691.5,94.5 Q741,144 769,209.5 Q797,275 797,350 M636,348 Q636,303 620.5,263.5 Q605,224 577.5,194 Q550,164 511,147 Q472,130 426,130 Q379,130 340.5,147.5 Q302,165 273.5,195 Q245,225 229.5,265 Q214,305 214,350 L214,352 Q214,397 229.5,436.5 Q245,476 272.5,506 Q300,536 338.5,553 Q377,570 424,570 Q470,570 509,552.5 Q548,535 576.5,505 Q605,475 620.5,435 Q636,395 636,350 M631,893 L550,918 Q539,894 527.5,881.5 Q516,869 493,869 Q479,869 463,875 Q447,881 428,888.5 Q409,896 387.5,902 Q366,908 343,908 Q317,908 297.5,898 Q278,888 263.5,870 Q249,852 238.5,826.5 Q228,801 219,770 L300,745 Q311,769 322.5,781.5 Q334,794 357,794 Q370,794 386.5,788 Q403,782 422,774.5 Q441,767 462.5,761 Q484,755 507,755 Q559,755 586.5,792.5 Q614,830 631,893"/> 
            <glyph glyph-name="Ö" unicode="&#xD6;" horiz-adv-x="797" d=" M797,350 L797,352 Q797,427 769.5,492.5 Q742,558 692.5,606.5 Q643,655 575,683.5 Q507,712 426,712 Q345,712 276.5,683.5 Q208,655 158.5,605.5 Q109,556 81,490.5 Q53,425 53,350 L53,348 Q53,273 80.5,207.5 Q108,142 157.5,93.5 Q207,45 275,16.5 Q343,-12 424,-12 Q505,-12 573.5,16.5 Q642,45 691.5,94.5 Q741,144 769,209.5 Q797,275 797,350 M636,348 Q636,303 620.5,263.5 Q605,224 577.5,194 Q550,164 511,147 Q472,130 426,130 Q379,130 340.5,147.5 Q302,165 273.5,195 Q245,225 229.5,265 Q214,305 214,350 L214,352 Q214,397 229.5,436.5 Q245,476 272.5,506 Q300,536 338.5,553 Q377,570 424,570 Q470,570 509,552.5 Q548,535 576.5,505 Q605,475 620.5,435 Q636,395 636,350 M605,755 L605,890 L459,890 L459,755 M391,755 L391,890 L245,890 L245,755"/> 
            <glyph glyph-name="Ø" unicode="&#xD8;" horiz-adv-x="805" d=" M797,351 Q797,421 773.5,482 Q750,543 707,591 L805,705 L658,705 L619,662 Q577,686 528.5,699 Q480,712 426,712 Q345,712 276.5,683.5 Q208,655 158.5,605.5 Q109,556 81,490 Q53,424 53,349 Q53,279 76.5,218 Q100,157 143,109 L45,-5 L192,-5 L231,38 Q273,14 321.5,1 Q370,-12 424,-12 Q505,-12 573.5,16.5 Q642,45 691.5,94.5 Q741,144 769,210 Q797,276 797,351 M523,549 L246,228 Q211,283 211,351 Q211,396 226.5,436 Q242,476 270,506.5 Q298,537 337.5,555 Q377,573 424,573 Q452,573 476.5,566.5 Q501,560 523,549 M639,349 Q639,304 623.5,264 Q608,224 580,193.5 Q552,163 512.5,145 Q473,127 426,127 Q398,127 373.5,133.5 Q349,140 327,151 L604,472 Q639,417 639,349"/> 
            <glyph glyph-name="Ù" unicode="&#xD9;" horiz-adv-x="683" d=" M683,305 L683,700 L529,700 L529,299 Q529,215 489,173 Q449,131 378,131 Q307,131 267,174.5 Q227,218 227,304 L227,700 L73,700 L73,300 Q73,145 154,67 Q235,-11 376,-11 Q446,-11 503,8.5 Q560,28 600,67.5 Q640,107 661.5,166 Q683,225 683,305 M447,750 L334,927 L203,870 L331,750"/> 
            <glyph glyph-name="Ú" unicode="&#xDA;" horiz-adv-x="683" d=" M683,305 L683,700 L529,700 L529,299 Q529,215 489,173 Q449,131 378,131 Q307,131 267,174.5 Q227,218 227,304 L227,700 L73,700 L73,300 Q73,145 154,67 Q235,-11 376,-11 Q446,-11 503,8.5 Q560,28 600,67.5 Q640,107 661.5,166 Q683,225 683,305 M425,750 L553,870 L422,927 L309,750"/> 
            <glyph glyph-name="Û" unicode="&#xDB;" horiz-adv-x="683" d=" M683,305 L683,700 L529,700 L529,299 Q529,215 489,173 Q449,131 378,131 Q307,131 267,174.5 Q227,218 227,304 L227,700 L73,700 L73,300 Q73,145 154,67 Q235,-11 376,-11 Q446,-11 503,8.5 Q560,28 600,67.5 Q640,107 661.5,166 Q683,225 683,305 M377,821 L456,755 L573,755 L450,912 L306,912 L183,755 L298,755"/> 
            <glyph glyph-name="Ü" unicode="&#xDC;" horiz-adv-x="683" d=" M683,305 L683,700 L529,700 L529,299 Q529,215 489,173 Q449,131 378,131 Q307,131 267,174.5 Q227,218 227,304 L227,700 L73,700 L73,300 Q73,145 154,67 Q235,-11 376,-11 Q446,-11 503,8.5 Q560,28 600,67.5 Q640,107 661.5,166 Q683,225 683,305 M558,755 L558,890 L412,890 L412,755 M344,755 L344,890 L198,890 L198,755"/> 
            <glyph glyph-name="Ý" unicode="&#xDD;" horiz-adv-x="704" d=" M704,700 L529,700 L359,419 L192,700 L12,700 L281,276 L281,0 L435,0 L435,279 M415,750 L543,870 L412,927 L299,750"/> 
            <glyph glyph-name="Þ" unicode="&#xDE;" horiz-adv-x="638" d=" M638,355 Q638,409 619.5,454 Q601,499 566.5,531 Q532,563 482.5,580.5 Q433,598 370,598 L238,598 L238,700 L84,700 L84,0 L238,0 L238,108 L355,108 Q414,108 465.5,123.5 Q517,139 555.5,170 Q594,201 616,247.5 Q638,294 638,355 M482,352 Q482,305 450,275 Q418,245 360,245 L238,245 L238,459 L357,459 Q415,459 448.5,432 Q482,405 482,352"/> 
            <glyph glyph-name="ß" unicode="&#xDF;" horiz-adv-x="577" d=" M537,542 Q537,583 522.5,618.5 Q508,654 479.5,680.5 Q451,707 409.5,722 Q368,737 314,737 Q258,737 212.5,721 Q167,705 135,675 Q103,645 85.5,601.5 Q68,558 68,503 L68,0 L219,0 L219,509 Q219,555 243.5,582 Q268,609 307,609 Q344,609 365.5,587.5 Q387,566 387,528 Q387,486 361.5,456 Q336,426 299,403 L299,303 Q354,295 390.5,271 Q427,247 427,205 Q427,161 394,138 Q361,115 299,112 L299,-2 Q362,-5 413.5,7.5 Q465,20 501.5,46 Q538,72 557.5,111 Q577,150 577,200 Q577,236 566,264.5 Q555,293 537,314.5 Q519,336 495.5,351.5 Q472,367 446,378 Q465,391 481.5,406 Q498,421 510.5,440.5 Q523,460 530,484.5 Q537,509 537,542"/> 
            <glyph glyph-name="à" unicode="&#xE0;" horiz-adv-x="529" d=" M529,0 L529,311 Q529,420 472,481 Q415,542 290,542 Q222,542 174,530 Q126,518 82,499 L120,383 Q157,397 190.5,404.5 Q224,412 268,412 Q325,412 354,387 Q383,362 383,314 L383,305 Q354,315 323.5,321 Q293,327 252,327 Q204,327 164.5,316.5 Q125,306 96.5,285 Q68,264 52,232 Q36,200 36,156 L36,154 Q36,114 50.5,83.5 Q65,53 90,32 Q115,11 148.5,0.5 Q182,-10 220,-10 Q276,-10 315,8.5 Q354,27 382,58 L382,0 M385,189 Q385,147 352.5,121 Q320,95 266,95 Q229,95 206,112 Q183,129 183,160 L183,162 Q183,198 211,217 Q239,236 288,236 Q316,236 340.5,230.5 Q365,225 385,216 M370,595 L257,772 L126,715 L254,595"/> 
            <glyph glyph-name="á" unicode="&#xE1;" horiz-adv-x="529" d=" M529,0 L529,311 Q529,420 472,481 Q415,542 290,542 Q222,542 174,530 Q126,518 82,499 L120,383 Q157,397 190.5,404.5 Q224,412 268,412 Q325,412 354,387 Q383,362 383,314 L383,305 Q354,315 323.5,321 Q293,327 252,327 Q204,327 164.5,316.5 Q125,306 96.5,285 Q68,264 52,232 Q36,200 36,156 L36,154 Q36,114 50.5,83.5 Q65,53 90,32 Q115,11 148.5,0.5 Q182,-10 220,-10 Q276,-10 315,8.5 Q354,27 382,58 L382,0 M385,189 Q385,147 352.5,121 Q320,95 266,95 Q229,95 206,112 Q183,129 183,160 L183,162 Q183,198 211,217 Q239,236 288,236 Q316,236 340.5,230.5 Q365,225 385,216 M343,595 L471,715 L340,772 L227,595"/> 
            <glyph glyph-name="â" unicode="&#xE2;" horiz-adv-x="529" d=" M529,0 L529,311 Q529,420 472,481 Q415,542 290,542 Q222,542 174,530 Q126,518 82,499 L120,383 Q157,397 190.5,404.5 Q224,412 268,412 Q325,412 354,387 Q383,362 383,314 L383,305 Q354,315 323.5,321 Q293,327 252,327 Q204,327 164.5,316.5 Q125,306 96.5,285 Q68,264 52,232 Q36,200 36,156 L36,154 Q36,114 50.5,83.5 Q65,53 90,32 Q115,11 148.5,0.5 Q182,-10 220,-10 Q276,-10 315,8.5 Q354,27 382,58 L382,0 M385,189 Q385,147 352.5,121 Q320,95 266,95 Q229,95 206,112 Q183,129 183,160 L183,162 Q183,198 211,217 Q239,236 288,236 Q316,236 340.5,230.5 Q365,225 385,216 M293,661 L372,595 L489,595 L366,752 L222,752 L99,595 L214,595"/> 
            <glyph glyph-name="ã" unicode="&#xE3;" horiz-adv-x="529" d=" M529,0 L529,311 Q529,420 472,481 Q415,542 290,542 Q222,542 174,530 Q126,518 82,499 L120,383 Q157,397 190.5,404.5 Q224,412 268,412 Q325,412 354,387 Q383,362 383,314 L383,305 Q354,315 323.5,321 Q293,327 252,327 Q204,327 164.5,316.5 Q125,306 96.5,285 Q68,264 52,232 Q36,200 36,156 L36,154 Q36,114 50.5,83.5 Q65,53 90,32 Q115,11 148.5,0.5 Q182,-10 220,-10 Q276,-10 315,8.5 Q354,27 382,58 L382,0 M385,189 Q385,147 352.5,121 Q320,95 266,95 Q229,95 206,112 Q183,129 183,160 L183,162 Q183,198 211,217 Q239,236 288,236 Q316,236 340.5,230.5 Q365,225 385,216 M502,733 L421,758 Q410,734 398.5,721.5 Q387,709 364,709 Q350,709 334,715 Q318,721 299,728.5 Q280,736 258.5,742 Q237,748 214,748 Q188,748 168.5,738 Q149,728 134.5,710 Q120,692 109.5,666.5 Q99,641 90,610 L171,585 Q182,609 193.5,621.5 Q205,634 228,634 Q241,634 257.5,628 Q274,622 293,614.5 Q312,607 333.5,601 Q355,595 378,595 Q430,595 457.5,632.5 Q485,670 502,733"/> 
            <glyph glyph-name="ä" unicode="&#xE4;" horiz-adv-x="529" d=" M529,0 L529,311 Q529,420 472,481 Q415,542 290,542 Q222,542 174,530 Q126,518 82,499 L120,383 Q157,397 190.5,404.5 Q224,412 268,412 Q325,412 354,387 Q383,362 383,314 L383,305 Q354,315 323.5,321 Q293,327 252,327 Q204,327 164.5,316.5 Q125,306 96.5,285 Q68,264 52,232 Q36,200 36,156 L36,154 Q36,114 50.5,83.5 Q65,53 90,32 Q115,11 148.5,0.5 Q182,-10 220,-10 Q276,-10 315,8.5 Q354,27 382,58 L382,0 M385,189 Q385,147 352.5,121 Q320,95 266,95 Q229,95 206,112 Q183,129 183,160 L183,162 Q183,198 211,217 Q239,236 288,236 Q316,236 340.5,230.5 Q365,225 385,216 M474,595 L474,730 L328,730 L328,595 M260,595 L260,730 L114,730 L114,595"/> 
            <glyph glyph-name="å" unicode="&#xE5;" horiz-adv-x="529" d=" M529,0 L529,311 Q529,420 472,481 Q415,542 290,542 Q222,542 174,530 Q126,518 82,499 L120,383 Q157,397 190.5,404.5 Q224,412 268,412 Q325,412 354,387 Q383,362 383,314 L383,305 Q354,315 323.5,321 Q293,327 252,327 Q204,327 164.5,316.5 Q125,306 96.5,285 Q68,264 52,232 Q36,200 36,156 L36,154 Q36,114 50.5,83.5 Q65,53 90,32 Q115,11 148.5,0.5 Q182,-10 220,-10 Q276,-10 315,8.5 Q354,27 382,58 L382,0 M385,189 Q385,147 352.5,121 Q320,95 266,95 Q229,95 206,112 Q183,129 183,160 L183,162 Q183,198 211,217 Q239,236 288,236 Q316,236 340.5,230.5 Q365,225 385,216 M415,710 Q415,734 405,755.5 Q395,777 378.5,792.5 Q362,808 340,817.5 Q318,827 294,827 Q270,827 248,817.5 Q226,808 209.5,792.5 Q193,777 183,755.5 Q173,734 173,710 Q173,686 183,664.5 Q193,643 209.5,627.5 Q226,612 248,602.5 Q270,593 294,593 Q318,593 340,602.5 Q362,612 378.5,627.5 Q395,643 405,664.5 Q415,686 415,710 M356,710 Q356,684 338,666 Q320,648 294,648 Q268,648 250,666 Q232,684 232,710 Q232,736 250,754 Q268,772 294,772 Q320,772 338,754 Q356,736 356,710"/> 
            <glyph glyph-name="æ" unicode="&#xE6;" horiz-adv-x="906" d=" M456,69 Q494,31 546,9.5 Q598,-12 660,-12 Q733,-12 787,14.5 Q841,41 879,88 L792,165 Q760,136 730,123 Q700,110 662,110 Q611,110 577,136.5 Q543,163 531,215 L904,215 Q905,226 905.5,234.5 Q906,243 906,254 Q906,311 890.5,364 Q875,417 843,457.5 Q811,498 763,522 Q715,546 649,546 Q594,546 549.5,527 Q505,508 472,474 Q445,507 400.5,524.5 Q356,542 290,542 Q222,542 174,530 Q126,518 82,499 L120,383 Q157,397 190.5,404.5 Q224,412 268,412 Q325,412 354,387 Q383,362 383,314 L383,305 Q354,315 323.5,321 Q293,327 252,327 Q204,327 164.5,316.5 Q125,306 96.5,285 Q68,264 52,232 Q36,200 36,157 Q36,117 51,86 Q66,55 92.5,33.5 Q119,12 156,1 Q193,-10 238,-10 Q302,-10 356,12.5 Q410,35 456,69 M529,310 Q538,362 567.5,393 Q597,424 645,424 Q693,424 722,392.5 Q751,361 758,310 M384,217 Q386,198 391,181 Q396,164 403,148 Q369,122 334.5,109.5 Q300,97 266,97 Q229,97 206,114 Q183,131 183,163 Q183,200 211,218 Q239,236 288,236 Q315,236 339.5,230.5 Q364,225 384,217"/> 
            <glyph glyph-name="ç" unicode="&#xE7;" horiz-adv-x="540" d=" M236,0 L154,-120 L281,-173 L346,-11 Q415,-6 459.5,20.5 Q504,47 540,86 L451,176 Q423,150 394.5,134.5 Q366,119 328,119 Q297,119 272,130.5 Q247,142 229,162.5 Q211,183 201.5,210 Q192,237 192,268 Q192,298 201.5,324.5 Q211,351 228.5,371.5 Q246,392 269.5,403.5 Q293,415 322,415 Q363,415 390.5,399 Q418,383 444,356 L537,456 Q499,498 449,522 Q399,546 323,546 Q261,546 209.5,524 Q158,502 121,464 Q84,426 63,375 Q42,324 42,266 Q42,219 56,176.5 Q70,134 95.5,99 Q121,64 156.5,38.5 Q192,13 236,0"/> 
            <glyph glyph-name="è" unicode="&#xE8;" horiz-adv-x="568" d=" M568,253 L568,255 Q568,312 552.5,364.5 Q537,417 504.5,457.5 Q472,498 423,522 Q374,546 307,546 Q248,546 199.5,524 Q151,502 116,464 Q81,426 61.5,375 Q42,324 42,267 L42,265 Q42,203 63,152.5 Q84,102 121.5,65 Q159,28 210.5,8 Q262,-12 322,-12 Q395,-12 449,14.5 Q503,41 541,88 L454,165 Q422,136 392,123 Q362,110 324,110 Q273,110 238.5,136.5 Q204,163 193,215 L566,215 Q567,226 567.5,234 Q568,242 568,253 M420,310 L191,310 Q200,362 229.5,393 Q259,424 307,424 Q355,424 384,392.5 Q413,361 420,310 M366,595 L253,772 L122,715 L250,595"/> 
            <glyph glyph-name="é" unicode="&#xE9;" horiz-adv-x="568" d=" M568,253 L568,255 Q568,312 552.5,364.5 Q537,417 504.5,457.5 Q472,498 423,522 Q374,546 307,546 Q248,546 199.5,524 Q151,502 116,464 Q81,426 61.5,375 Q42,324 42,267 L42,265 Q42,203 63,152.5 Q84,102 121.5,65 Q159,28 210.5,8 Q262,-12 322,-12 Q395,-12 449,14.5 Q503,41 541,88 L454,165 Q422,136 392,123 Q362,110 324,110 Q273,110 238.5,136.5 Q204,163 193,215 L566,215 Q567,226 567.5,234 Q568,242 568,253 M420,310 L191,310 Q200,362 229.5,393 Q259,424 307,424 Q355,424 384,392.5 Q413,361 420,310 M362,595 L490,715 L359,772 L246,595"/> 
            <glyph glyph-name="ê" unicode="&#xEA;" horiz-adv-x="568" d=" M568,253 L568,255 Q568,312 552.5,364.5 Q537,417 504.5,457.5 Q472,498 423,522 Q374,546 307,546 Q248,546 199.5,524 Q151,502 116,464 Q81,426 61.5,375 Q42,324 42,267 L42,265 Q42,203 63,152.5 Q84,102 121.5,65 Q159,28 210.5,8 Q262,-12 322,-12 Q395,-12 449,14.5 Q503,41 541,88 L454,165 Q422,136 392,123 Q362,110 324,110 Q273,110 238.5,136.5 Q204,163 193,215 L566,215 Q567,226 567.5,234 Q568,242 568,253 M420,310 L191,310 Q200,362 229.5,393 Q259,424 307,424 Q355,424 384,392.5 Q413,361 420,310 M305,661 L384,595 L501,595 L378,752 L234,752 L111,595 L226,595"/> 
            <glyph glyph-name="ë" unicode="&#xEB;" horiz-adv-x="568" d=" M568,253 L568,255 Q568,312 552.5,364.5 Q537,417 504.5,457.5 Q472,498 423,522 Q374,546 307,546 Q248,546 199.5,524 Q151,502 116,464 Q81,426 61.5,375 Q42,324 42,267 L42,265 Q42,203 63,152.5 Q84,102 121.5,65 Q159,28 210.5,8 Q262,-12 322,-12 Q395,-12 449,14.5 Q503,41 541,88 L454,165 Q422,136 392,123 Q362,110 324,110 Q273,110 238.5,136.5 Q204,163 193,215 L566,215 Q567,226 567.5,234 Q568,242 568,253 M420,310 L191,310 Q200,362 229.5,393 Q259,424 307,424 Q355,424 384,392.5 Q413,361 420,310 M486,595 L486,730 L340,730 L340,595 M272,595 L272,730 L126,730 L126,595"/> 
            <glyph glyph-name="ì" unicode="&#xEC;" horiz-adv-x="320" d=" M227,0 L227,536 L75,536 L75,0 M576,595 L463,772 L332,715 L460,595"/> 
            <glyph glyph-name="í" unicode="&#xED;" horiz-adv-x="330" d=" M227,0 L227,536 L75,536 L75,0 M458,595 L586,715 L455,772 L342,595"/> 
            <glyph glyph-name="î" unicode="&#xEE;" horiz-adv-x="465" d=" M227,0 L227,536 L75,536 L75,0 M269,661 L348,595 L465,595 L342,752 L198,752 L75,595 L190,595"/> 
            <glyph glyph-name="ï" unicode="&#xEF;" horiz-adv-x="435" d=" M227,0 L227,536 L75,536 L75,0 M435,595 L435,730 L289,730 L289,595 M221,595 L221,730 L75,730 L75,595"/> 
            <glyph glyph-name="ð" unicode="&#xF0;" horiz-adv-x="604" d=" M307,570 L394,454 Q362,471 334,478.5 Q306,486 271,486 Q221,486 179,469 Q137,452 106.5,421 Q76,390 59,346.5 Q42,303 42,251 Q42,196 63,148 Q84,100 120.5,64.5 Q157,29 208,8.5 Q259,-12 319,-12 Q386,-12 439,10 Q492,32 529,69.5 Q566,107 585,157 Q604,207 604,263 Q604,295 599,325 Q594,355 583.5,384 Q573,413 556.5,443.5 Q540,474 516,507 L435,622 L537,663 L482,738 L382,697 L359,730 L188,730 L252,644 L137,598 L193,523 M456,248 Q456,220 447,196 Q438,172 421,154 Q404,136 379.5,126 Q355,116 324,116 Q294,116 269.5,126.5 Q245,137 227,155 Q209,173 199.5,197 Q190,221 190,248 Q190,276 199.5,299.5 Q209,323 226,340.5 Q243,358 268,368 Q293,378 323,378 Q353,378 378,368 Q403,358 420,340 Q437,322 446.5,298.5 Q456,275 456,248"/> 
            <glyph glyph-name="ñ" unicode="&#xF1;" horiz-adv-x="559" d=" M559,0 L559,347 Q559,440 511.5,493 Q464,546 377,546 Q348,546 325,539 Q302,532 283,520 Q264,508 248.5,492.5 Q233,477 220,460 L220,536 L68,536 L68,0 L220,0 L220,299 Q220,353 245.5,380.5 Q271,408 315,408 Q359,408 383,380.5 Q407,353 407,299 L407,0 M522,733 L441,758 Q430,734 418.5,721.5 Q407,709 384,709 Q370,709 354,715 Q338,721 319,728.5 Q300,736 278.5,742 Q257,748 234,748 Q208,748 188.5,738 Q169,728 154.5,710 Q140,692 129.5,666.5 Q119,641 110,610 L191,585 Q202,609 213.5,621.5 Q225,634 248,634 Q261,634 277.5,628 Q294,622 313,614.5 Q332,607 353.5,601 Q375,595 398,595 Q450,595 477.5,632.5 Q505,670 522,733"/> 
            <glyph glyph-name="ò" unicode="&#xF2;" horiz-adv-x="622" d=" M622,267 L622,269 Q622,327 600,377.5 Q578,428 539.5,465.5 Q501,503 448,524.5 Q395,546 333,546 Q270,546 217,524 Q164,502 125,464 Q86,426 64,375.5 Q42,325 42,267 L42,265 Q42,207 64,156.5 Q86,106 124.5,68.5 Q163,31 216,9.5 Q269,-12 331,-12 Q394,-12 447,10 Q500,32 539,70 Q578,108 600,158.5 Q622,209 622,267 M472,265 Q472,235 462.5,208.5 Q453,182 435,162 Q417,142 391.5,130.5 Q366,119 333,119 Q301,119 275.5,131 Q250,143 231,163.5 Q212,184 202,210.5 Q192,237 192,267 L192,269 Q192,299 201.5,325.5 Q211,352 229,372 Q247,392 272.5,403.5 Q298,415 331,415 Q362,415 388,403 Q414,391 433,370.5 Q452,350 462,323.5 Q472,297 472,267 M390,595 L277,772 L146,715 L274,595"/> 
            <glyph glyph-name="ó" unicode="&#xF3;" horiz-adv-x="622" d=" M622,267 L622,269 Q622,327 600,377.5 Q578,428 539.5,465.5 Q501,503 448,524.5 Q395,546 333,546 Q270,546 217,524 Q164,502 125,464 Q86,426 64,375.5 Q42,325 42,267 L42,265 Q42,207 64,156.5 Q86,106 124.5,68.5 Q163,31 216,9.5 Q269,-12 331,-12 Q394,-12 447,10 Q500,32 539,70 Q578,108 600,158.5 Q622,209 622,267 M472,265 Q472,235 462.5,208.5 Q453,182 435,162 Q417,142 391.5,130.5 Q366,119 333,119 Q301,119 275.5,131 Q250,143 231,163.5 Q212,184 202,210.5 Q192,237 192,267 L192,269 Q192,299 201.5,325.5 Q211,352 229,372 Q247,392 272.5,403.5 Q298,415 331,415 Q362,415 388,403 Q414,391 433,370.5 Q452,350 462,323.5 Q472,297 472,267 M390,595 L518,715 L387,772 L274,595"/> 
            <glyph glyph-name="ô" unicode="&#xF4;" horiz-adv-x="622" d=" M622,267 L622,269 Q622,327 600,377.5 Q578,428 539.5,465.5 Q501,503 448,524.5 Q395,546 333,546 Q270,546 217,524 Q164,502 125,464 Q86,426 64,375.5 Q42,325 42,267 L42,265 Q42,207 64,156.5 Q86,106 124.5,68.5 Q163,31 216,9.5 Q269,-12 331,-12 Q394,-12 447,10 Q500,32 539,70 Q578,108 600,158.5 Q622,209 622,267 M472,265 Q472,235 462.5,208.5 Q453,182 435,162 Q417,142 391.5,130.5 Q366,119 333,119 Q301,119 275.5,131 Q250,143 231,163.5 Q212,184 202,210.5 Q192,237 192,267 L192,269 Q192,299 201.5,325.5 Q211,352 229,372 Q247,392 272.5,403.5 Q298,415 331,415 Q362,415 388,403 Q414,391 433,370.5 Q452,350 462,323.5 Q472,297 472,267 M331,661 L410,595 L527,595 L404,752 L260,752 L137,595 L252,595"/> 
            <glyph glyph-name="õ" unicode="&#xF5;" horiz-adv-x="622" d=" M622,267 L622,269 Q622,327 600,377.5 Q578,428 539.5,465.5 Q501,503 448,524.5 Q395,546 333,546 Q270,546 217,524 Q164,502 125,464 Q86,426 64,375.5 Q42,325 42,267 L42,265 Q42,207 64,156.5 Q86,106 124.5,68.5 Q163,31 216,9.5 Q269,-12 331,-12 Q394,-12 447,10 Q500,32 539,70 Q578,108 600,158.5 Q622,209 622,267 M472,265 Q472,235 462.5,208.5 Q453,182 435,162 Q417,142 391.5,130.5 Q366,119 333,119 Q301,119 275.5,131 Q250,143 231,163.5 Q212,184 202,210.5 Q192,237 192,267 L192,269 Q192,299 201.5,325.5 Q211,352 229,372 Q247,392 272.5,403.5 Q298,415 331,415 Q362,415 388,403 Q414,391 433,370.5 Q452,350 462,323.5 Q472,297 472,267 M538,733 L457,758 Q446,734 434.5,721.5 Q423,709 400,709 Q386,709 370,715 Q354,721 335,728.5 Q316,736 294.5,742 Q273,748 250,748 Q224,748 204.5,738 Q185,728 170.5,710 Q156,692 145.5,666.5 Q135,641 126,610 L207,585 Q218,609 229.5,621.5 Q241,634 264,634 Q277,634 293.5,628 Q310,622 329,614.5 Q348,607 369.5,601 Q391,595 414,595 Q466,595 493.5,632.5 Q521,670 538,733"/> 
            <glyph glyph-name="ö" unicode="&#xF6;" horiz-adv-x="622" d=" M622,267 L622,269 Q622,327 600,377.5 Q578,428 539.5,465.5 Q501,503 448,524.5 Q395,546 333,546 Q270,546 217,524 Q164,502 125,464 Q86,426 64,375.5 Q42,325 42,267 L42,265 Q42,207 64,156.5 Q86,106 124.5,68.5 Q163,31 216,9.5 Q269,-12 331,-12 Q394,-12 447,10 Q500,32 539,70 Q578,108 600,158.5 Q622,209 622,267 M472,265 Q472,235 462.5,208.5 Q453,182 435,162 Q417,142 391.5,130.5 Q366,119 333,119 Q301,119 275.5,131 Q250,143 231,163.5 Q212,184 202,210.5 Q192,237 192,267 L192,269 Q192,299 201.5,325.5 Q211,352 229,372 Q247,392 272.5,403.5 Q298,415 331,415 Q362,415 388,403 Q414,391 433,370.5 Q452,350 462,323.5 Q472,297 472,267 M512,595 L512,730 L366,730 L366,595 M298,595 L298,730 L152,730 L152,595"/> 
            <glyph glyph-name="ø" unicode="&#xF8;" horiz-adv-x="637" d=" M622,268 Q622,320 605,365.5 Q588,411 556,448 L637,541 L504,541 L476,511 Q445,528 409,537 Q373,546 333,546 Q270,546 217,524 Q164,502 125,464 Q86,426 64,375 Q42,324 42,266 Q42,214 59,168.5 Q76,123 107,87 L27,-5 L160,-5 L187,23 Q219,6 255,-3 Q291,-12 331,-12 Q394,-12 447,10 Q500,32 539,70 Q578,108 600,159 Q622,210 622,268 M388,407 L204,197 Q188,231 188,268 Q188,299 198,326.5 Q208,354 227,374.5 Q246,395 272,407 Q298,419 331,419 Q362,419 388,407 M476,266 Q476,235 466,207.5 Q456,180 437,159.5 Q418,139 392,127 Q366,115 333,115 Q304,115 277,126 L460,337 Q476,303 476,266"/> 
            <glyph glyph-name="ù" unicode="&#xF9;" horiz-adv-x="555" d=" M555,0 L555,536 L403,536 L403,237 Q403,183 377.5,155.5 Q352,128 308,128 Q264,128 240,155.5 Q216,183 216,237 L216,536 L64,536 L64,189 Q64,96 111.5,43 Q159,-10 246,-10 Q275,-10 298,-3 Q321,4 340,16 Q359,28 374.5,43.5 Q390,59 403,76 L403,0 M385,595 L272,772 L141,715 L269,595"/> 
            <glyph glyph-name="ú" unicode="&#xFA;" horiz-adv-x="555" d=" M555,0 L555,536 L403,536 L403,237 Q403,183 377.5,155.5 Q352,128 308,128 Q264,128 240,155.5 Q216,183 216,237 L216,536 L64,536 L64,189 Q64,96 111.5,43 Q159,-10 246,-10 Q275,-10 298,-3 Q321,4 340,16 Q359,28 374.5,43.5 Q390,59 403,76 L403,0 M353,595 L481,715 L350,772 L237,595"/> 
            <glyph glyph-name="û" unicode="&#xFB;" horiz-adv-x="555" d=" M555,0 L555,536 L403,536 L403,237 Q403,183 377.5,155.5 Q352,128 308,128 Q264,128 240,155.5 Q216,183 216,237 L216,536 L64,536 L64,189 Q64,96 111.5,43 Q159,-10 246,-10 Q275,-10 298,-3 Q321,4 340,16 Q359,28 374.5,43.5 Q390,59 403,76 L403,0 M310,661 L389,595 L506,595 L383,752 L239,752 L116,595 L231,595"/> 
            <glyph glyph-name="ü" unicode="&#xFC;" horiz-adv-x="555" d=" M555,0 L555,536 L403,536 L403,237 Q403,183 377.5,155.5 Q352,128 308,128 Q264,128 240,155.5 Q216,183 216,237 L216,536 L64,536 L64,189 Q64,96 111.5,43 Q159,-10 246,-10 Q275,-10 298,-3 Q321,4 340,16 Q359,28 374.5,43.5 Q390,59 403,76 L403,0 M491,595 L491,730 L345,730 L345,595 M277,595 L277,730 L131,730 L131,595"/> 
            <glyph glyph-name="ý" unicode="&#xFD;" horiz-adv-x="578" d=" M578,536 L420,536 L303,171 L181,536 L20,536 L230,-2 Q220,-22 208.5,-29.5 Q197,-37 177,-37 Q162,-37 144.5,-31 Q127,-25 112,-16 L61,-126 Q90,-143 122,-153 Q154,-163 196,-163 Q230,-163 256,-155 Q282,-147 302.5,-129 Q323,-111 340,-82.5 Q357,-54 372,-13 M345,595 L473,715 L342,772 L229,595"/> 
            <glyph glyph-name="þ" unicode="&#xFE;" horiz-adv-x="631" d=" M631,268 Q631,335 610.5,387 Q590,439 556,474.5 Q522,510 478,528 Q434,546 387,546 Q327,546 287.5,521.5 Q248,497 220,459 L220,730 L68,730 L68,-160 L220,-160 L220,70 Q247,38 286.5,14 Q326,-10 387,-10 Q435,-10 479,8 Q523,26 556.5,61.5 Q590,97 610.5,148.5 Q631,200 631,268 M479,268 Q479,234 468.5,206.5 Q458,179 440,159.5 Q422,140 398.5,129.5 Q375,119 348,119 Q321,119 297.5,129.5 Q274,140 256.5,159.5 Q239,179 228.5,206.5 Q218,234 218,268 Q218,302 228.5,329.5 Q239,357 256.5,376.5 Q274,396 297.5,406.5 Q321,417 348,417 Q375,417 398.5,406.5 Q422,396 440,376.5 Q458,357 468.5,329.5 Q479,302 479,268"/> 
            <glyph glyph-name="ÿ" unicode="&#xFF;" horiz-adv-x="578" d=" M578,536 L420,536 L303,171 L181,536 L20,536 L230,-2 Q220,-22 208.5,-29.5 Q197,-37 177,-37 Q162,-37 144.5,-31 Q127,-25 112,-16 L61,-126 Q90,-143 122,-153 Q154,-163 196,-163 Q230,-163 256,-155 Q282,-147 302.5,-129 Q323,-111 340,-82.5 Q357,-54 372,-13 M480,595 L480,730 L334,730 L334,595 M266,595 L266,730 L120,730 L120,595"/> 
            <glyph glyph-name="ı" unicode="&#x131;" horiz-adv-x="227" d=" M227,0 L227,536 L75,536 L75,0"/> 
            <glyph glyph-name="Ł" unicode="&#x141;" horiz-adv-x="617" d=" M617,0 L617,140 L266,140 L266,308 L458,365 L458,508 L266,451 L266,700 L114,700 L114,405 L39,383 L39,240 L114,262 L114,0"/> 
            <glyph glyph-name="ł" unicode="&#x142;" horiz-adv-x="332" d=" M256,324 L332,347 L332,490 L256,467 L256,730 L106,730 L106,423 L30,400 L30,257 L106,280 L106,0 L256,0"/> 
            <glyph glyph-name="Œ" unicode="&#x152;" horiz-adv-x="1022" d=" M1022,0 L1022,137 L667,137 L667,284 L972,284 L972,421 L667,421 L667,563 L1017,563 L1017,700 L425,700 Q342,700 274,673 Q206,646 156.5,598.5 Q107,551 80,487 Q53,423 53,349 Q53,275 80,211 Q107,147 156.5,100 Q206,53 274,26.5 Q342,0 425,0 M514,139 L425,139 Q378,139 339,154.5 Q300,170 272,198 Q244,226 229,265 Q214,304 214,351 Q214,398 229,436.5 Q244,475 272,503 Q300,531 339,546 Q378,561 425,561 L514,561"/> 
            <glyph glyph-name="œ" unicode="&#x153;" horiz-adv-x="988" d=" M532,83 Q567,38 620.5,13 Q674,-12 742,-12 Q815,-12 869,14.5 Q923,41 961,88 L874,165 Q842,136 812,123 Q782,110 744,110 Q693,110 659,136.5 Q625,163 613,215 L986,215 Q987,226 987.5,234.5 Q988,243 988,254 Q988,311 972.5,364 Q957,417 925,457.5 Q893,498 845,522 Q797,546 731,546 Q668,546 618,520.5 Q568,495 535,452 Q498,496 445.5,521 Q393,546 328,546 Q268,546 216,524 Q164,502 125.5,464 Q87,426 64.5,375 Q42,324 42,266 Q42,208 64,157 Q86,106 124.5,68.5 Q163,31 214,9.5 Q265,-12 322,-12 Q387,-12 441,13.5 Q495,39 532,83 M611,310 Q620,362 649.5,393 Q679,424 727,424 Q775,424 804,392.5 Q833,361 840,310 M462,266 Q462,236 453,209.5 Q444,183 426.5,162.5 Q409,142 384,130.5 Q359,119 328,119 Q298,119 273,131 Q248,143 230,163 Q212,183 202,210.5 Q192,238 192,268 Q192,298 201,324.5 Q210,351 227.5,371.5 Q245,392 269.5,403.5 Q294,415 326,415 Q356,415 381,403 Q406,391 424,371 Q442,351 452,323.5 Q462,296 462,266"/> 
            <glyph glyph-name="Š" unicode="&#x160;" horiz-adv-x="590" d=" M590,207 L590,209 Q590,255 575.5,288 Q561,321 532.5,345.5 Q504,370 462.5,387.5 Q421,405 368,419 Q323,431 293.5,440 Q264,449 247,459 Q230,469 223.5,481.5 Q217,494 217,511 L217,513 Q217,539 239.5,556.5 Q262,574 307,574 Q352,574 397,555.5 Q442,537 489,505 L569,621 Q515,664 450.5,687 Q386,710 309,710 Q255,710 210,695 Q165,680 132.5,652 Q100,624 82,585.5 Q64,547 64,499 L64,497 Q64,445 80.5,410 Q97,375 127,351.5 Q157,328 200,312 Q243,296 296,283 Q340,272 367.5,262 Q395,252 410.5,242 Q426,232 431.5,220.5 Q437,209 437,194 L437,192 Q437,161 410.5,143.5 Q384,126 336,126 Q276,126 225.5,149 Q175,172 127,211 L36,102 Q99,45 176,17.5 Q253,-10 333,-10 Q390,-10 437,4.5 Q484,19 518,46.5 Q552,74 571,114.5 Q590,155 590,207 M318,846 L239,912 L122,912 L245,755 L389,755 L512,912 L397,912"/> 
            <glyph glyph-name="š" unicode="&#x161;" horiz-adv-x="461" d=" M461,163 L461,165 Q461,202 446,228 Q431,254 408,272 Q385,290 356,302.5 Q327,315 299,324 Q277,331 257.5,338 Q238,345 223,352.5 Q208,360 199,368.5 Q190,377 190,388 L190,390 Q190,406 204,416.5 Q218,427 246,427 Q275,427 313,413.5 Q351,400 391,377 L449,482 Q405,511 352.5,527.5 Q300,544 249,544 Q208,544 172.5,533 Q137,522 110.5,500 Q84,478 68.5,446.5 Q53,415 53,374 L53,372 Q53,333 67.5,306 Q82,279 105,260.5 Q128,242 156.5,230.5 Q185,219 213,211 Q235,204 255,198 Q275,192 290.5,185.5 Q306,179 315,170 Q324,161 324,149 L324,147 Q324,129 308.5,118 Q293,107 260,107 Q222,107 178.5,123 Q135,139 91,171 L26,71 Q80,29 139.5,9.5 Q199,-10 256,-10 Q299,-10 336.5,0.5 Q374,11 402,32 Q430,53 445.5,85.5 Q461,118 461,163 M256,686 L177,752 L60,752 L183,595 L327,595 L450,752 L335,752"/> 
            <glyph glyph-name="Ÿ" unicode="&#x178;" horiz-adv-x="704" d=" M704,700 L529,700 L359,419 L192,700 L12,700 L281,276 L281,0 L435,0 L435,279 M538,755 L538,890 L392,890 L392,755 M324,755 L324,890 L178,890 L178,755"/> 
            <glyph glyph-name="Ž" unicode="&#x17D;" horiz-adv-x="646" d=" M646,0 L646,135 L261,135 L646,583 L646,700 L75,700 L75,565 L448,565 L63,117 L63,0 M358,846 L279,912 L162,912 L285,755 L429,755 L552,912 L437,912"/> 
            <glyph glyph-name="ž" unicode="&#x17E;" horiz-adv-x="516" d=" M516,0 L516,123 L238,123 L516,429 L516,536 L59,536 L59,413 L327,413 L50,107 L50,0 M290,686 L211,752 L94,752 L217,595 L361,595 L484,752 L369,752"/> 
            <glyph glyph-name="ƒ" unicode="&#x192;" horiz-adv-x="500" d=" M500,567 L500,693 Q462,705 401,705 Q311,705 268.5,662 Q226,619 212,543 L198,469 L109,469 L109,344 L176,344 L148,181 Q142,148 126,134 Q110,120 78,120 Q60,120 41,123 L41,0 Q55,-3 68,-4 Q81,-5 100,-5 Q143,-5 176,3.5 Q209,12 233,31.5 Q257,51 272,82 Q287,113 295,157 L328,344 L465,344 L465,469 L350,469 L357,509 Q363,544 381,560.5 Q399,577 432,577 Q448,577 465,574.5 Q482,572 500,567"/> 
            <glyph glyph-name="ˆ" unicode="&#x2C6;" horiz-adv-x="445" d=" M249,661 L328,595 L445,595 L322,752 L178,752 L55,595 L170,595"/> 
            <glyph glyph-name="ˇ" unicode="&#x2C7;" horiz-adv-x="445" d=" M251,686 L172,752 L55,752 L178,595 L322,595 L445,752 L330,752"/> 
            <glyph glyph-name="ˉ" unicode="&#x2C9;" horiz-adv-x="430" d=" M430,600 L430,705 L70,705 L70,600"/> 
            <glyph glyph-name="˘" unicode="&#x2D8;" horiz-adv-x="438" d=" M438,752 L336,752 Q327,725 307.5,708.5 Q288,692 250,692 Q212,692 192.5,708.5 Q173,725 164,752 L62,752 Q69,676 119.5,634.5 Q170,593 250,593 Q330,593 380.5,634.5 Q431,676 438,752"/> 
            <glyph glyph-name="˙" unicode="&#x2D9;" horiz-adv-x="325" d=" M325,595 L325,730 L175,730 L175,595"/> 
            <glyph glyph-name="˚" unicode="&#x2DA;" horiz-adv-x="371" d=" M371,710 Q371,734 361,755.5 Q351,777 334.5,792.5 Q318,808 296,817.5 Q274,827 250,827 Q226,827 204,817.5 Q182,808 165.5,792.5 Q149,777 139,755.5 Q129,734 129,710 Q129,686 139,664.5 Q149,643 165.5,627.5 Q182,612 204,602.5 Q226,593 250,593 Q274,593 296,602.5 Q318,612 334.5,627.5 Q351,643 361,664.5 Q371,686 371,710 M312,710 Q312,684 294,666 Q276,648 250,648 Q224,648 206,666 Q188,684 188,710 Q188,736 206,754 Q224,772 250,772 Q276,772 294,754 Q312,736 312,710"/> 
            <glyph glyph-name="˛" unicode="&#x2DB;" horiz-adv-x="371" d=" M291,10 L187,10 Q180,-4 175.5,-21 Q171,-38 171,-55 Q171,-115 223,-143.5 Q275,-172 371,-164 L371,-97 Q323,-94 304,-77 Q285,-60 285,-29 Q285,-11 291,10"/> 
            <glyph glyph-name="˜" unicode="&#x2DC;" horiz-adv-x="456" d=" M456,733 L375,758 Q364,734 352.5,721.5 Q341,709 318,709 Q304,709 288,715 Q272,721 253,728.5 Q234,736 212.5,742 Q191,748 168,748 Q142,748 122.5,738 Q103,728 88.5,710 Q74,692 63.5,666.5 Q53,641 44,610 L125,585 Q136,609 147.5,621.5 Q159,634 182,634 Q195,634 211.5,628 Q228,622 247,614.5 Q266,607 287.5,601 Q309,595 332,595 Q384,595 411.5,632.5 Q439,670 456,733"/> 
            <glyph glyph-name="˝" unicode="&#x2DD;" horiz-adv-x="472" d=" M342,595 L472,715 L344,772 L231,595 M147,595 L275,715 L147,772 L36,595"/> 
            <glyph glyph-name="Ω" unicode="&#x3A9;" horiz-adv-x="750" d=" M626,530 L626,551 Q626,609 681,609 Q701,609 717,605.5 Q733,602 750,596 L750,722 Q729,729 703.5,733 Q678,737 642,737 Q561,737 518.5,695.5 Q476,654 476,565 L476,531 L413,531 L413,406 L476,406 L476,0 L628,0 L628,406 L749,406 L749,530 M244,530 L244,551 Q244,609 299,609 Q319,609 335,605.5 Q351,602 368,596 L368,722 Q347,729 321.5,733 Q296,737 260,737 Q179,737 136.5,695.5 Q94,654 94,565 L94,531 L31,531 L31,406 L94,406 L94,0 L246,0 L246,406 L367,406 L367,530"/> 
            <glyph glyph-name="μ" unicode="&#x3BC;" horiz-adv-x="861" d=" M797,351 Q797,426 769.5,492 Q742,558 692.5,606.5 Q643,655 575,683.5 Q507,712 426,712 Q345,712 276.5,683.5 Q208,655 158.5,605.5 Q109,556 81,490 Q53,424 53,349 Q53,274 80.5,208 Q108,142 157.5,93.5 Q207,45 275,16.5 Q343,-12 424,-12 Q479,-12 530,2 L635,-101 L861,-101 L861,-91 L683,89 Q737,139 767,206.5 Q797,274 797,351 M636,349 Q636,304 620.5,264 Q605,224 577.5,194 Q550,164 511,147 Q472,130 426,130 Q379,130 340.5,147.5 Q302,165 273.5,195 Q245,225 229.5,265.5 Q214,306 214,351 Q214,396 229.5,436 Q245,476 272.5,506 Q300,536 338.5,553 Q377,570 424,570 Q470,570 509,552.5 Q548,535 576.5,505 Q605,475 620.5,434.5 Q636,394 636,349"/> 
            <glyph glyph-name="π" unicode="&#x3C0;" horiz-adv-x="777" d=" M777,351 Q777,425 749,491 Q721,557 672.5,606 Q624,655 558,683.5 Q492,712 416,712 Q340,712 273.5,683 Q207,654 158,604.5 Q109,555 81,489 Q53,423 53,349 Q53,275 81,209 Q109,143 157.5,94 Q206,45 272,16.5 Q338,-12 414,-12 Q490,-12 556.5,17 Q623,46 672,95.5 Q721,145 749,211 Q777,277 777,351 M735,351 Q735,284 710.5,225.5 Q686,167 643,123 Q600,79 541.5,53.5 Q483,28 414,28 Q346,28 287.5,53 Q229,78 186,121.5 Q143,165 119,223.5 Q95,282 95,349 Q95,416 119.5,474.5 Q144,533 187,577 Q230,621 288.5,646.5 Q347,672 416,672 Q484,672 542.5,647 Q601,622 643.5,578.5 Q686,535 710.5,476.5 Q735,418 735,351 M588,415 Q588,475 548.5,512 Q509,549 440,549 L282,549 L282,164 L368,164 L368,280 L432,280 Q464,280 492.5,288.5 Q521,297 542,314 Q563,331 575.5,356.5 Q588,382 588,415 M501,414 Q501,388 483.5,371.5 Q466,355 434,355 L368,355 L368,473 L432,473 Q464,473 482.5,458 Q501,443 501,414"/> 
            <glyph glyph-name="–" unicode="&#x2013;" horiz-adv-x="478" d=" M478,239 L478,381 L50,381 L50,239"/> 
            <glyph glyph-name="—" unicode="&#x2014;" horiz-adv-x="848" d=" M848,239 L848,381 L50,381 L50,239"/> 
            <glyph glyph-name="‘" unicode="&#x2018;" horiz-adv-x="255" d=" M255,642 L242,705 Q153,703 105,660 Q57,617 57,518 L57,383 L219,383 L219,543 L157,543 Q149,631 255,642"/> 
            <glyph glyph-name="’" unicode="&#x2019;" horiz-adv-x="229" d=" M31,441 L44,378 Q133,379 181,422.5 Q229,466 229,565 L229,700 L67,700 L67,540 L129,540 Q137,452 31,441"/> 
            <glyph glyph-name="‚" unicode="&#x201A;" horiz-adv-x="224" d=" M26,-99 L39,-162 Q128,-161 176,-117.5 Q224,-74 224,25 L224,160 L62,160 L62,0 L124,0 Q132,-88 26,-99"/> 
            <glyph glyph-name="“" unicode="&#x201C;" horiz-adv-x="509" d=" M509,642 L496,705 Q407,703 359,660 Q311,617 311,518 L311,383 L473,383 L473,543 L411,543 Q403,631 509,642 M255,642 L242,705 Q153,703 105,660 Q57,617 57,518 L57,383 L219,383 L219,543 L157,543 Q149,631 255,642"/> 
            <glyph glyph-name="”" unicode="&#x201D;" horiz-adv-x="483" d=" M285,441 L298,378 Q387,379 435,422.5 Q483,466 483,565 L483,700 L321,700 L321,540 L383,540 Q391,452 285,441 M31,441 L44,378 Q133,379 181,422.5 Q229,466 229,565 L229,700 L67,700 L67,540 L129,540 Q137,452 31,441"/> 
            <glyph glyph-name="„" unicode="&#x201E;" horiz-adv-x="478" d=" M280,-99 L293,-162 Q382,-161 430,-117.5 Q478,-74 478,25 L478,160 L316,160 L316,0 L378,0 Q386,-88 280,-99 M26,-99 L39,-162 Q128,-161 176,-117.5 Q224,-74 224,25 L224,160 L62,160 L62,0 L124,0 Q132,-88 26,-99"/> 
            <glyph glyph-name="†" unicode="&#x2020;" horiz-adv-x="357" d=" M237,508 L357,498 L357,581 L238,571 L251,700 L159,700 L172,571 L53,581 L53,498 L173,508 L163,238 L247,238"/> 
            <glyph glyph-name="‡" unicode="&#x2021;" horiz-adv-x="367" d=" M367,119 L367,202 L248,192 L257,350 L248,508 L367,498 L367,581 L248,571 L261,700 L169,700 L182,571 L63,581 L63,498 L182,508 L173,350 L182,192 L63,202 L63,119 L182,129 L169,0 L261,0 L248,129"/> 
            <glyph glyph-name="•" unicode="&#x2022;" horiz-adv-x="399" d=" M399,352 Q399,383 387,410 Q375,437 355,457 Q335,477 308,489 Q281,501 250,501 Q219,501 192,489 Q165,477 144.5,457 Q124,437 112.5,410 Q101,383 101,352 Q101,321 112.5,294 Q124,267 144.5,246.5 Q165,226 192,214.5 Q219,203 250,203 Q281,203 308,214.5 Q335,226 355,246.5 Q375,267 387,294 Q399,321 399,352"/> 
            <glyph glyph-name="…" unicode="&#x2026;" horiz-adv-x="778" d=" M778,0 L778,156 L620,156 L620,0 M499,0 L499,156 L341,156 L341,0 M220,0 L220,156 L62,156 L62,0"/> 
            <glyph glyph-name="‰" unicode="&#x2030;" horiz-adv-x="1195" d=" M385,530 Q385,567 373,599.5 Q361,632 338.5,656 Q316,680 285,694 Q254,708 216,708 Q178,708 146.5,694 Q115,680 92.5,655.5 Q70,631 57.5,598 Q45,565 45,528 Q45,491 57,458.5 Q69,426 91.5,402 Q114,378 145,364 Q176,350 214,350 Q252,350 283.5,364 Q315,378 337.5,402.5 Q360,427 372.5,459.5 Q385,492 385,530 M626,700 L115,0 L234,0 L745,700 M1195,172 Q1195,209 1183,241.5 Q1171,274 1148.5,298 Q1126,322 1095,336 Q1064,350 1026,350 Q988,350 956.5,336 Q925,322 902.5,297.5 Q880,273 867.5,240 Q855,207 855,170 Q855,133 867,100.5 Q879,68 901.5,44 Q924,20 955,6 Q986,-8 1024,-8 Q1062,-8 1093.5,6 Q1125,20 1147.5,44.5 Q1170,69 1182.5,101.5 Q1195,134 1195,172 M815,172 Q815,209 803,241.5 Q791,274 768.5,298 Q746,322 715,336 Q684,350 646,350 Q608,350 576.5,336 Q545,322 522.5,297.5 Q500,273 487.5,240 Q475,207 475,170 Q475,133 487,100.5 Q499,68 521.5,44 Q544,20 575,6 Q606,-8 644,-8 Q682,-8 713.5,6 Q745,20 767.5,44.5 Q790,69 802.5,101.5 Q815,134 815,172 M280,528 Q280,493 264,467 Q248,441 216,441 Q186,441 168,467.5 Q150,494 150,530 Q150,565 166,591 Q182,617 214,617 Q244,617 262,590.5 Q280,564 280,528 M1090,170 Q1090,135 1074,109 Q1058,83 1026,83 Q996,83 978,109.5 Q960,136 960,172 Q960,207 976,233 Q992,259 1024,259 Q1054,259 1072,232.5 Q1090,206 1090,170 M710,170 Q710,135 694,109 Q678,83 646,83 Q616,83 598,109.5 Q580,136 580,172 Q580,207 596,233 Q612,259 644,259 Q674,259 692,232.5 Q710,206 710,170"/> 
            <glyph glyph-name="‹" unicode="&#x2039;" horiz-adv-x="325" d=" M209,496 L41,272 L41,264 L209,40 L325,98 L195,269 L325,440"/> 
            <glyph glyph-name="›" unicode="&#x203A;" horiz-adv-x="332" d=" M164,40 L332,264 L332,272 L164,496 L48,438 L178,267 L48,96"/> 
            <glyph glyph-name="™" unicode="&#x2122;" horiz-adv-x="653" d=" M587,600 L587,392 L653,392 L653,700 L581,700 L500,570 L419,700 L345,700 L345,392 L411,392 L411,600 L496,465 L502,465 M188,638 L280,638 L280,700 L26,700 L26,638 L118,638 L118,392 L188,392"/> 
            <glyph glyph-name="∕" unicode="&#x2215;" horiz-adv-x="529" d=" M395,758 L-71,-98 L63,-98 L529,758"/> 
            <glyph glyph-name="√" unicode="&#x221A;" horiz-adv-x="991" d=" M626,530 L626,551 Q626,609 681,609 Q701,609 717,605.5 Q733,602 750,596 L750,722 Q729,729 703.5,733 Q678,737 642,737 Q561,737 518.5,695.5 Q476,654 476,565 L476,531 L413,531 L413,406 L476,406 L476,0 L628,0 L628,406 L749,406 L749,530 M244,530 L244,551 Q244,609 299,609 Q319,609 335,605.5 Q351,602 368,596 L368,722 Q347,729 321.5,733 Q296,737 260,737 Q179,737 136.5,695.5 Q94,654 94,565 L94,531 L31,531 L31,406 L94,406 L94,0 L246,0 L246,406 L367,406 L367,530 M991,0 L991,730 L839,730 L839,0"/> 
            <glyph glyph-name="≈" unicode="&#x2248;" horiz-adv-x="995" d=" M995,595 L995,730 L835,730 L835,595 M626,530 L626,551 Q626,609 681,609 Q701,609 717,605.5 Q733,602 750,596 L750,722 Q729,729 703.5,733 Q678,737 642,737 Q561,737 518.5,695.5 Q476,654 476,565 L476,531 L413,531 L413,406 L476,406 L476,0 L628,0 L628,406 L749,406 L749,530 M244,530 L244,551 Q244,609 299,609 Q319,609 335,605.5 Q351,602 368,596 L368,722 Q347,729 321.5,733 Q296,737 260,737 Q179,737 136.5,695.5 Q94,654 94,565 L94,531 L31,531 L31,406 L94,406 L94,0 L246,0 L246,406 L367,406 L367,530 M991,0 L991,536 L839,536 L839,0"/> 
            </font>
</defs>
</svg>
